HennyPenny-Regular.ufo
<glyph name="quotedbl" format="2">
  <advance width="600"/>
  <unicode hex="0022"/>
  <outline>
    <contour>
      <point x="172" y="1679" type="qcurve" smooth="yes"/>
      <point x="204" y="1679"/>
      <point x="244" y="1635"/>
      <point x="244" y="1579" type="qcurve" smooth="yes"/>
      <point x="244" y="1556"/>
      <point x="244" y="1447"/>
      <point x="241" y="1311"/>
      <point x="237" y="1164"/>
      <point x="228" y="1043"/>
      <point x="215" y="965"/>
      <point x="205" y="965" type="qcurve" smooth="yes"/>
      <point x="199" y="965"/>
      <point x="184" y="1010"/>
      <point x="167" y="1086"/>
      <point x="150" y="1185"/>
      <point x="134" y="1292"/>
      <point x="119" y="1399"/>
      <point x="108" y="1491"/>
      <point x="102" y="1562"/>
      <point x="102" y="1579" type="qcurve" smooth="yes"/>
      <point x="102" y="1679"/>
    </contour>
    <contour>
      <point x="426" y="1712" type="qcurve" smooth="yes"/>
      <point x="447" y="1712"/>
      <point x="474" y="1693"/>
      <point x="489" y="1663"/>
      <point x="494" y="1624"/>
      <point x="494" y="1604" type="qcurve" smooth="yes"/>
      <point x="494" y="1575"/>
      <point x="490" y="1492"/>
      <point x="484" y="1406"/>
      <point x="477" y="1330"/>
      <point x="475" y="1307" type="qcurve" smooth="yes"/>
      <point x="473" y="1282"/>
      <point x="466" y="1215"/>
      <point x="457" y="1145"/>
      <point x="446" y="1077"/>
      <point x="434" y="1024"/>
      <point x="419" y="991"/>
      <point x="412" y="991" type="qcurve" smooth="yes"/>
      <point x="401" y="991"/>
      <point x="384" y="1060"/>
      <point x="370" y="1170"/>
      <point x="360" y="1306"/>
      <point x="353" y="1439"/>
      <point x="350" y="1554"/>
      <point x="350" y="1589" type="qcurve" smooth="yes"/>
      <point x="350" y="1651"/>
      <point x="384" y="1712"/>
    </contour>
  </outline>
</glyph>
<glyph name="percent" format="2">
  <advance width="1616"/>
  <unicode hex="0025"/>
  <outline>
    <contour>
      <point x="459" y="1888" type="qcurve" smooth="yes"/>
      <point x="539" y="1888"/>
      <point x="668" y="1840"/>
      <point x="758" y="1749"/>
      <point x="807" y="1619"/>
      <point x="807" y="1538" type="qcurve" smooth="yes"/>
      <point x="807" y="1433"/>
      <point x="738" y="1293"/>
      <point x="632" y="1209"/>
      <point x="506" y="1174"/>
      <point x="449" y="1174" type="qcurve" smooth="yes"/>
      <point x="388" y="1174"/>
      <point x="267" y="1215"/>
      <point x="171" y="1302"/>
      <point x="111" y="1437"/>
      <point x="111" y="1532" type="qcurve" smooth="yes"/>
      <point x="111" y="1623"/>
      <point x="166" y="1758"/>
      <point x="261" y="1845"/>
      <point x="387" y="1888"/>
    </contour>
    <contour>
      <point x="446" y="1839" type="qcurve" smooth="yes"/>
      <point x="409" y="1839"/>
      <point x="355" y="1807"/>
      <point x="320" y="1750"/>
      <point x="303" y="1671"/>
      <point x="303" y="1624" type="qcurve" smooth="yes"/>
      <point x="303" y="1537"/>
      <point x="330" y="1389"/>
      <point x="381" y="1281"/>
      <point x="454" y="1221"/>
      <point x="500" y="1221" type="qcurve" smooth="yes"/>
      <point x="540" y="1221"/>
      <point x="594" y="1267"/>
      <point x="626" y="1342"/>
      <point x="639" y="1437"/>
      <point x="639" y="1485" type="qcurve" smooth="yes"/>
      <point x="639" y="1539"/>
      <point x="623" y="1664"/>
      <point x="580" y="1769"/>
      <point x="505" y="1839"/>
    </contour>
    <contour>
      <point x="1186" y="846" type="qcurve" smooth="yes"/>
      <point x="1268" y="846"/>
      <point x="1406" y="790"/>
      <point x="1507" y="692"/>
      <point x="1563" y="557"/>
      <point x="1563" y="479" type="qcurve" smooth="yes"/>
      <point x="1563" y="379"/>
      <point x="1496" y="228"/>
      <point x="1381" y="127"/>
      <point x="1229" y="76"/>
      <point x="1145" y="76" type="qcurve" smooth="yes"/>
      <point x="1070" y="76"/>
      <point x="939" y="119"/>
      <point x="842" y="207"/>
      <point x="786" y="341"/>
      <point x="786" y="432" type="qcurve" smooth="yes"/>
      <point x="786" y="537"/>
      <point x="855" y="693"/>
      <point x="968" y="796"/>
      <point x="1111" y="846"/>
    </contour>
    <contour>
      <point x="1180" y="795" type="qcurve" smooth="yes"/>
      <point x="1136" y="795"/>
      <point x="1059" y="752"/>
      <point x="1001" y="662"/>
      <point x="967" y="524"/>
      <point x="967" y="430" type="qcurve" smooth="yes"/>
      <point x="967" y="359"/>
      <point x="998" y="248"/>
      <point x="1052" y="172"/>
      <point x="1125" y="133"/>
      <point x="1167" y="133" type="qcurve" smooth="yes"/>
      <point x="1219" y="133"/>
      <point x="1294" y="183"/>
      <point x="1344" y="274"/>
      <point x="1368" y="404"/>
      <point x="1368" y="485" type="qcurve" smooth="yes"/>
      <point x="1368" y="570"/>
      <point x="1340" y="688"/>
      <point x="1290" y="762"/>
      <point x="1221" y="795"/>
    </contour>
    <contour>
      <point x="1398" y="1903" type="qcurve" smooth="yes"/>
      <point x="1415" y="1903"/>
      <point x="1415" y="1882" type="qcurve" smooth="yes"/>
      <point x="1415" y="1869"/>
      <point x="1386" y="1810"/>
      <point x="1339" y="1730"/>
      <point x="1280" y="1638"/>
      <point x="1219" y="1548"/>
      <point x="1162" y="1467"/>
      <point x="1142" y="1438" type="qcurve" smooth="yes"/>
      <point x="1107" y="1388"/>
      <point x="1007" y="1248"/>
      <point x="889" y="1084"/>
      <point x="759" y="906"/>
      <point x="630" y="728"/>
      <point x="507" y="560"/>
      <point x="403" y="419"/>
      <point x="325" y="311"/>
      <point x="305" y="283" type="qcurve" smooth="yes"/>
      <point x="266" y="227"/>
      <point x="191" y="126"/>
      <point x="163" y="84" type="qcurve" smooth="yes"/>
      <point x="131" y="38"/>
      <point x="85" y="-18"/>
      <point x="65" y="-18" type="qcurve" smooth="yes"/>
      <point x="56" y="-18"/>
      <point x="43" y="-8"/>
      <point x="43" y="6" type="qcurve" smooth="yes"/>
      <point x="43" y="31"/>
      <point x="104" y="135"/>
      <point x="155" y="207" type="qcurve" smooth="yes"/>
      <point x="212" y="287"/>
      <point x="345" y="472"/>
      <point x="417" y="578" type="qcurve" smooth="yes"/>
      <point x="473" y="659"/>
      <point x="611" y="852"/>
      <point x="761" y="1059"/>
      <point x="916" y="1272"/>
      <point x="1064" y="1474"/>
      <point x="1198" y="1658"/>
      <point x="1251" y="1733" type="qcurve" smooth="yes"/>
      <point x="1278" y="1770"/>
      <point x="1322" y="1833"/>
      <point x="1358" y="1878"/>
      <point x="1387" y="1903"/>
    </contour>
  </outline>
</glyph>
<glyph name="parenright" format="2">
  <advance width="909"/>
  <unicode hex="0029"/>
  <outline>
    <contour>
      <point x="150" y="1532" type="qcurve" smooth="yes"/>
      <point x="187" y="1532"/>
      <point x="326" y="1486"/>
      <point x="490" y="1389"/>
      <point x="661" y="1237"/>
      <point x="800" y="1025"/>
      <point x="889" y="748"/>
      <point x="889" y="575" type="qcurve" smooth="yes"/>
      <point x="889" y="440"/>
      <point x="833" y="208"/>
      <point x="738" y="13"/>
      <point x="613" y="-148"/>
      <point x="476" y="-275"/>
      <point x="334" y="-368"/>
      <point x="207" y="-429"/>
      <point x="101" y="-459"/>
      <point x="68" y="-459" type="qcurve" smooth="yes"/>
      <point x="20" y="-459"/>
      <point x="20" y="-438" type="qcurve" smooth="yes"/>
      <point x="20" y="-425"/>
      <point x="49" y="-404"/>
      <point x="101" y="-379"/>
      <point x="172" y="-346"/>
      <point x="257" y="-294"/>
      <point x="351" y="-221"/>
      <point x="401" y="-168" type="qcurve" smooth="yes"/>
      <point x="481" y="-83"/>
      <point x="581" y="99"/>
      <point x="638" y="282"/>
      <point x="659" y="458"/>
      <point x="659" y="537" type="qcurve" smooth="yes"/>
      <point x="659" y="585"/>
      <point x="646" y="718"/>
      <point x="614" y="865"/>
      <point x="561" y="1017"/>
      <point x="522" y="1085" type="qcurve" smooth="yes"/>
      <point x="476" y="1165"/>
      <point x="381" y="1284"/>
      <point x="292" y="1369"/>
      <point x="215" y="1427"/>
      <point x="157" y="1468"/>
      <point x="123" y="1497"/>
      <point x="123" y="1511" type="qcurve" smooth="yes"/>
      <point x="123" y="1532"/>
    </contour>
  </outline>
</glyph>
<glyph name="asterisk" format="2">
  <advance width="1004"/>
  <unicode hex="002A"/>
  <outline>
    <contour>
      <point x="481" y="1878" type="qcurve" smooth="yes"/>
      <point x="519" y="1878"/>
      <point x="563" y="1825"/>
      <point x="569" y="1780" type="qcurve" smooth="yes"/>
      <point x="573" y="1753"/>
      <point x="580" y="1680"/>
      <point x="585" y="1601"/>
      <point x="590" y="1524"/>
      <point x="596" y="1463"/>
      <point x="602" y="1425"/>
      <point x="606" y="1425" type="qcurve" smooth="yes"/>
      <point x="610" y="1425"/>
      <point x="632" y="1467"/>
      <point x="664" y="1529"/>
      <point x="705" y="1602"/>
      <point x="754" y="1664"/>
      <point x="809" y="1706"/>
      <point x="838" y="1706" type="qcurve" smooth="yes"/>
      <point x="869" y="1706"/>
      <point x="895" y="1673"/>
      <point x="895" y="1647" type="qcurve" smooth="yes"/>
      <point x="895" y="1618"/>
      <point x="854" y="1558"/>
      <point x="792" y="1502"/>
      <point x="721" y="1451"/>
      <point x="659" y="1410"/>
      <point x="618" y="1381"/>
      <point x="618" y="1374" type="qcurve" smooth="yes"/>
      <point x="618" y="1364"/>
      <point x="657" y="1332"/>
      <point x="716" y="1290"/>
      <point x="785" y="1240"/>
      <point x="844" y="1185"/>
      <point x="883" y="1124"/>
      <point x="883" y="1092" type="qcurve" smooth="yes"/>
      <point x="883" y="1058"/>
      <point x="846" y="1012"/>
      <point x="811" y="1012" type="qcurve" smooth="yes"/>
      <point x="779" y="1012"/>
      <point x="728" y="1046"/>
      <point x="707" y="1075" type="qcurve" smooth="yes"/>
      <point x="680" y="1112"/>
      <point x="636" y="1196"/>
      <point x="602" y="1266"/>
      <point x="579" y="1313"/>
      <point x="573" y="1313" type="qcurve" smooth="yes"/>
      <point x="567" y="1313"/>
      <point x="535" y="1278"/>
      <point x="492" y="1226"/>
      <point x="439" y="1164"/>
      <point x="385" y="1112"/>
      <point x="332" y="1077"/>
      <point x="311" y="1077" type="qcurve" smooth="yes"/>
      <point x="290" y="1077"/>
      <point x="258" y="1102"/>
      <point x="258" y="1128" type="qcurve" smooth="yes"/>
      <point x="258" y="1153"/>
      <point x="297" y="1204"/>
      <point x="356" y="1252"/>
      <point x="424" y="1295"/>
      <point x="483" y="1329"/>
      <point x="522" y="1354"/>
      <point x="522" y="1360" type="qcurve" smooth="yes"/>
      <point x="522" y="1366"/>
      <point x="504" y="1366" type="qcurve" smooth="yes"/>
      <point x="487" y="1366"/>
      <point x="427" y="1364"/>
      <point x="389" y="1364" type="qcurve" smooth="yes"/>
      <point x="349" y="1364"/>
      <point x="256" y="1365"/>
      <point x="211" y="1370" type="qcurve" smooth="yes"/>
      <point x="163" y="1375"/>
      <point x="96" y="1412"/>
      <point x="96" y="1452" type="qcurve" smooth="yes"/>
      <point x="96" y="1473"/>
      <point x="110" y="1501"/>
      <point x="133" y="1518"/>
      <point x="161" y="1524"/>
      <point x="176" y="1524" type="qcurve" smooth="yes"/>
      <point x="204" y="1524"/>
      <point x="280" y="1505"/>
      <point x="360" y="1477"/>
      <point x="438" y="1446"/>
      <point x="499" y="1419"/>
      <point x="537" y="1403"/>
      <point x="537" y="1405" type="qcurve" smooth="yes"/>
      <point x="537" y="1412"/>
      <point x="518" y="1460"/>
      <point x="489" y="1528"/>
      <point x="456" y="1608"/>
      <point x="427" y="1689"/>
      <point x="408" y="1762"/>
      <point x="408" y="1788" type="qcurve" smooth="yes"/>
      <point x="408" y="1813"/>
      <point x="421" y="1848"/>
      <point x="442" y="1869"/>
      <point x="468" y="1878"/>
    </contour>
  </outline>
</glyph>
<glyph name="slash" format="2">
  <advance width="1415"/>
  <unicode hex="002F"/>
  <outline>
    <contour>
      <point x="1378" y="1903" type="qcurve" smooth="yes"/>
      <point x="1395" y="1903"/>
      <point x="1395" y="1882" type="qcurve" smooth="yes"/>
      <point x="1395" y="1869"/>
      <point x="1366" y="1810"/>
      <point x="1319" y="1730"/>
      <point x="1260" y="1638"/>
      <point x="1199" y="1548"/>
      <point x="1142" y="1467"/>
      <point x="1122" y="1438" type="qcurve" smooth="yes"/>
      <point x="1087" y="1388"/>
      <point x="987" y="1248"/>
      <point x="869" y="1084"/>
      <point x="739" y="906"/>
      <point x="610" y="728"/>
      <point x="487" y="560"/>
      <point x="383" y="419"/>
      <point x="305" y="311"/>
      <point x="285" y="283" type="qcurve" smooth="yes"/>
      <point x="246" y="227"/>
      <point x="171" y="126"/>
      <point x="143" y="84" type="qcurve" smooth="yes"/>
      <point x="111" y="38"/>
      <point x="65" y="-18"/>
      <point x="45" y="-18" type="qcurve" smooth="yes"/>
      <point x="36" y="-18"/>
      <point x="23" y="-8"/>
      <point x="23" y="6" type="qcurve" smooth="yes"/>
      <point x="23" y="31"/>
      <point x="84" y="135"/>
      <point x="135" y="207" type="qcurve" smooth="yes"/>
      <point x="192" y="287"/>
      <point x="325" y="472"/>
      <point x="397" y="578" type="qcurve" smooth="yes"/>
      <point x="453" y="659"/>
      <point x="591" y="852"/>
      <point x="741" y="1059"/>
      <point x="896" y="1272"/>
      <point x="1044" y="1474"/>
      <point x="1178" y="1658"/>
      <point x="1231" y="1733" type="qcurve" smooth="yes"/>
      <point x="1258" y="1770"/>
      <point x="1302" y="1833"/>
      <point x="1338" y="1878"/>
      <point x="1367" y="1903"/>
    </contour>
  </outline>
</glyph>
<glyph name="one" format="2">
  <advance width="1036"/>
  <unicode hex="0031"/>
  <outline>
    <contour>
      <point x="18" y="1098" type="qcurve" smooth="yes"/>
      <point x="0" y="1098"/>
      <point x="0" y="1114" type="qcurve" smooth="yes"/>
      <point x="0" y="1128"/>
      <point x="46" y="1157"/>
      <point x="126" y="1211"/>
      <point x="235" y="1299"/>
      <point x="299" y="1372" type="qcurve" smooth="yes"/>
      <point x="359" y="1440"/>
      <point x="430" y="1575"/>
      <point x="471" y="1682"/>
      <point x="493" y="1749"/>
      <point x="504" y="1749" type="qcurve" smooth="yes"/>
      <point x="512" y="1749"/>
      <point x="526" y="1720"/>
      <point x="536" y="1677"/>
      <point x="545" y="1627"/>
      <point x="549" y="1606" type="qcurve" smooth="yes"/>
      <point x="553" y="1586"/>
      <point x="571" y="1473"/>
      <point x="596" y="1313"/>
      <point x="627" y="1118"/>
      <point x="660" y="913"/>
      <point x="695" y="708"/>
      <point x="727" y="530"/>
      <point x="755" y="389"/>
      <point x="766" y="350" type="qcurve" smooth="yes"/>
      <point x="778" y="305"/>
      <point x="804" y="239"/>
      <point x="839" y="188"/>
      <point x="885" y="152"/>
      <point x="918" y="137" type="qcurve" smooth="yes"/>
      <point x="937" y="128"/>
      <point x="978" y="115"/>
      <point x="1012" y="104"/>
      <point x="1034" y="94"/>
      <point x="1034" y="88" type="qcurve" smooth="yes"/>
      <point x="1034" y="83"/>
      <point x="1021" y="76"/>
      <point x="1004" y="76" type="qcurve" smooth="yes"/>
      <point x="981" y="76"/>
      <point x="905" y="82"/>
      <point x="854" y="82" type="qcurve" smooth="yes"/>
      <point x="772" y="81"/>
      <point x="623" y="51"/>
      <point x="489" y="7"/>
      <point x="373" y="-45"/>
      <point x="279" y="-90"/>
      <point x="207" y="-119"/>
      <point x="184" y="-119" type="qcurve" smooth="yes"/>
      <point x="176" y="-119"/>
      <point x="164" y="-112"/>
      <point x="164" y="-102" type="qcurve" smooth="yes"/>
      <point x="164" y="-89"/>
      <point x="208" y="-57"/>
      <point x="278" y="-19"/>
      <point x="362" y="25"/>
      <point x="403" y="51" type="qcurve" smooth="yes"/>
      <point x="431" y="69"/>
      <point x="471" y="109"/>
      <point x="497" y="160"/>
      <point x="510" y="225"/>
      <point x="510" y="266" type="qcurve" smooth="yes"/>
      <point x="510" y="297"/>
      <point x="504" y="424"/>
      <point x="491" y="589"/>
      <point x="474" y="775"/>
      <point x="451" y="953"/>
      <point x="424" y="1108"/>
      <point x="408" y="1159" type="qcurve" smooth="yes"/>
      <point x="403" y="1174"/>
      <point x="390" y="1204"/>
      <point x="369" y="1229"/>
      <point x="340" y="1245"/>
      <point x="319" y="1245" type="qcurve" smooth="yes"/>
      <point x="296" y="1245"/>
      <point x="241" y="1223"/>
      <point x="182" y="1191"/>
      <point x="123" y="1152"/>
      <point x="71" y="1120"/>
      <point x="30" y="1098"/>
    </contour>
  </outline>
</glyph>
<glyph name="three" format="2">
  <advance width="1047"/>
  <unicode hex="0033"/>
  <outline>
    <contour>
      <point x="129" y="1548" type="qcurve" smooth="yes"/>
      <point x="151" y="1548"/>
      <point x="210" y="1536"/>
      <point x="289" y="1518"/>
      <point x="390" y="1498"/>
      <point x="455" y="1491" type="qcurve" smooth="yes"/>
      <point x="518" y="1483"/>
      <point x="648" y="1477"/>
      <point x="757" y="1473"/>
      <point x="834" y="1467"/>
      <point x="844" y="1460" type="qcurve" smooth="yes"/>
      <point x="852" y="1455"/>
      <point x="856" y="1444"/>
      <point x="856" y="1436" type="qcurve" smooth="yes"/>
      <point x="856" y="1421"/>
      <point x="825" y="1364"/>
      <point x="775" y="1290"/>
      <point x="711" y="1205"/>
      <point x="645" y="1120"/>
      <point x="581" y="1040"/>
      <point x="531" y="976"/>
      <point x="500" y="933"/>
      <point x="500" y="928" type="qcurve" smooth="yes"/>
      <point x="500" y="924"/>
      <point x="554" y="912"/>
      <point x="644" y="883"/>
      <point x="759" y="831"/>
      <point x="821" y="786" type="qcurve" smooth="yes"/>
      <point x="876" y="747"/>
      <point x="960" y="659"/>
      <point x="1017" y="555"/>
      <point x="1047" y="432"/>
      <point x="1047" y="358" type="qcurve" smooth="yes"/>
      <point x="1047" y="305"/>
      <point x="1023" y="191"/>
      <point x="972" y="81"/>
      <point x="894" y="-16"/>
      <point x="786" y="-90"/>
      <point x="647" y="-133"/>
      <point x="561" y="-133" type="qcurve" smooth="yes"/>
      <point x="442" y="-133"/>
      <point x="266" y="-66"/>
      <point x="141" y="44"/>
      <point x="62" y="182"/>
      <point x="17" y="325"/>
      <point x="0" y="458"/>
      <point x="0" y="508" type="qcurve" smooth="yes"/>
      <point x="0" y="550"/>
      <point x="9" y="596"/>
      <point x="18" y="596" type="qcurve" smooth="yes"/>
      <point x="24" y="596"/>
      <point x="32" y="573"/>
      <point x="41" y="528"/>
      <point x="54" y="464"/>
      <point x="66" y="424" type="qcurve" smooth="yes"/>
      <point x="118" y="245"/>
      <point x="347" y="57"/>
      <point x="504" y="57" type="qcurve" smooth="yes"/>
      <point x="565" y="57"/>
      <point x="674" y="98"/>
      <point x="756" y="180"/>
      <point x="803" y="304"/>
      <point x="803" y="387" type="qcurve" smooth="yes"/>
      <point x="803" y="472"/>
      <point x="743" y="608"/>
      <point x="652" y="713"/>
      <point x="546" y="790"/>
      <point x="455" y="843"/>
      <point x="395" y="873"/>
      <point x="395" y="879" type="qcurve" smooth="yes"/>
      <point x="395" y="885"/>
      <point x="419" y="916"/>
      <point x="458" y="964"/>
      <point x="510" y="1028"/>
      <point x="539" y="1067" type="qcurve" smooth="yes"/>
      <point x="551" y="1084"/>
      <point x="584" y="1130"/>
      <point x="620" y="1181"/>
      <point x="654" y="1232"/>
      <point x="681" y="1276"/>
      <point x="698" y="1308"/>
      <point x="698" y="1315" type="qcurve" smooth="yes"/>
      <point x="698" y="1321"/>
      <point x="652" y="1331"/>
      <point x="581" y="1339"/>
      <point x="494" y="1343"/>
      <point x="453" y="1343" type="qcurve" smooth="yes"/>
      <point x="383" y="1343"/>
      <point x="268" y="1313"/>
      <point x="227" y="1268" type="qcurve" smooth="yes"/>
      <point x="197" y="1236"/>
      <point x="161" y="1157"/>
      <point x="137" y="1088"/>
      <point x="122" y="1042"/>
      <point x="113" y="1042" type="qcurve" smooth="yes"/>
      <point x="103" y="1042"/>
      <point x="98" y="1069"/>
      <point x="98" y="1092" type="qcurve" smooth="yes"/>
      <point x="98" y="1121"/>
      <point x="102" y="1223"/>
      <point x="102" y="1282" type="qcurve" smooth="yes"/>
      <point x="102" y="1303"/>
      <point x="99" y="1358"/>
      <point x="96" y="1414"/>
      <point x="94" y="1466"/>
      <point x="94" y="1485" type="qcurve" smooth="yes"/>
      <point x="94" y="1517"/>
      <point x="109" y="1548"/>
    </contour>
  </outline>
</glyph>
<glyph name="seven" format="2">
  <advance width="1040"/>
  <unicode hex="0037"/>
  <outline>
    <contour>
      <point x="27" y="1497" type="qcurve" smooth="yes"/>
      <point x="54" y="1497"/>
      <point x="133" y="1487"/>
      <point x="242" y="1474"/>
      <point x="386" y="1464"/>
      <point x="479" y="1464" type="qcurve" smooth="yes"/>
      <point x="614" y="1464"/>
      <point x="812" y="1491"/>
      <point x="945" y="1523"/>
      <point x="1020" y="1550"/>
      <point x="1032" y="1550" type="qcurve" smooth="yes"/>
      <point x="1040" y="1550"/>
      <point x="1040" y="1542" type="qcurve" smooth="yes"/>
      <point x="1040" y="1528"/>
      <point x="975" y="1427"/>
      <point x="869" y="1243"/>
      <point x="734" y="972"/>
      <point x="664" y="788" type="qcurve" smooth="yes"/>
      <point x="618" y="669"/>
      <point x="562" y="457"/>
      <point x="530" y="277"/>
      <point x="518" y="133"/>
      <point x="514" y="29"/>
      <point x="512" y="-30"/>
      <point x="508" y="-35" type="qcurve" smooth="yes"/>
      <point x="503" y="-40"/>
      <point x="475" y="-43"/>
      <point x="434" y="-46"/>
      <point x="381" y="-50"/>
      <point x="350" y="-57" type="qcurve" smooth="yes"/>
      <point x="298" y="-70"/>
      <point x="231" y="-96"/>
      <point x="217" y="-96" type="qcurve" smooth="yes"/>
      <point x="207" y="-96"/>
      <point x="207" y="-82" type="qcurve" smooth="yes"/>
      <point x="207" y="-64"/>
      <point x="227" y="13"/>
      <point x="260" y="112"/>
      <point x="302" y="225"/>
      <point x="324" y="279" type="qcurve" smooth="yes"/>
      <point x="368" y="390"/>
      <point x="467" y="603"/>
      <point x="564" y="795"/>
      <point x="654" y="959"/>
      <point x="722" y="1085"/>
      <point x="762" y="1166"/>
      <point x="762" y="1178" type="qcurve" smooth="yes"/>
      <point x="762" y="1190"/>
      <point x="711" y="1219"/>
      <point x="628" y="1250"/>
      <point x="522" y="1280"/>
      <point x="411" y="1303"/>
      <point x="306" y="1317"/>
      <point x="266" y="1317" type="qcurve" smooth="yes"/>
      <point x="215" y="1317"/>
      <point x="157" y="1263"/>
      <point x="124" y="1176"/>
      <point x="106" y="1068"/>
      <point x="96" y="1014" type="qcurve" smooth="yes"/>
      <point x="88" y="974"/>
      <point x="79" y="920"/>
      <point x="68" y="920" type="qcurve" smooth="yes"/>
      <point x="61" y="920"/>
      <point x="55" y="942"/>
      <point x="55" y="973" type="qcurve" smooth="yes"/>
      <point x="55" y="1003"/>
      <point x="53" y="1081"/>
      <point x="47" y="1167"/>
      <point x="38" y="1257"/>
      <point x="31" y="1300" type="qcurve" smooth="yes"/>
      <point x="20" y="1370"/>
      <point x="0" y="1452"/>
      <point x="0" y="1470" type="qcurve" smooth="yes"/>
      <point x="0" y="1475"/>
      <point x="8" y="1497"/>
    </contour>
  </outline>
</glyph>
<glyph name="colon" format="2">
  <advance width="504"/>
  <unicode hex="003A"/>
  <outline>
    <contour>
      <point x="252" y="975" type="qcurve" smooth="yes"/>
      <point x="280" y="975"/>
      <point x="330" y="958"/>
      <point x="368" y="923"/>
      <point x="391" y="870"/>
      <point x="391" y="834" type="qcurve" smooth="yes"/>
      <point x="391" y="753"/>
      <point x="309" y="666"/>
      <point x="246" y="666" type="qcurve" smooth="yes"/>
      <point x="217" y="666"/>
      <point x="165" y="683"/>
      <point x="126" y="720"/>
      <point x="102" y="779"/>
      <point x="102" y="821" type="qcurve" smooth="yes"/>
      <point x="102" y="889"/>
      <point x="181" y="975"/>
    </contour>
    <contour>
      <point x="268" y="238" type="qcurve" smooth="yes"/>
      <point x="307" y="238"/>
      <point x="359" y="211"/>
      <point x="389" y="169"/>
      <point x="401" y="117"/>
      <point x="401" y="92" type="qcurve" smooth="yes"/>
      <point x="401" y="56"/>
      <point x="380" y="-2"/>
      <point x="342" y="-44"/>
      <point x="291" y="-66"/>
      <point x="260" y="-66" type="qcurve" smooth="yes"/>
      <point x="198" y="-66"/>
      <point x="129" y="17"/>
      <point x="129" y="80" type="qcurve" smooth="yes"/>
      <point x="129" y="114"/>
      <point x="148" y="172"/>
      <point x="183" y="214"/>
      <point x="235" y="238"/>
    </contour>
  </outline>
</glyph>
<glyph name="equal" format="2">
  <advance width="1343"/>
  <unicode hex="003D"/>
  <outline>
    <contour>
      <point x="1178" y="795" type="qcurve" smooth="yes"/>
      <point x="1185" y="795"/>
      <point x="1207" y="793"/>
      <point x="1227" y="787"/>
      <point x="1241" y="774"/>
      <point x="1241" y="762" type="qcurve" smooth="yes"/>
      <point x="1241" y="750"/>
      <point x="1227" y="734"/>
      <point x="1204" y="725"/>
      <point x="1177" y="722"/>
      <point x="1165" y="721" type="qcurve" smooth="yes"/>
      <point x="1127" y="719"/>
      <point x="1046" y="714"/>
      <point x="952" y="708"/>
      <point x="842" y="700"/>
      <point x="776" y="694" type="qcurve" smooth="yes"/>
      <point x="743" y="691"/>
      <point x="637" y="681"/>
      <point x="513" y="668"/>
      <point x="382" y="654"/>
      <point x="265" y="642"/>
      <point x="173" y="635"/>
      <point x="150" y="635" type="qcurve" smooth="yes"/>
      <point x="128" y="635"/>
      <point x="102" y="648"/>
      <point x="102" y="662" type="qcurve" smooth="yes"/>
      <point x="102" y="670"/>
      <point x="113" y="685"/>
      <point x="143" y="698"/>
      <point x="196" y="709"/>
      <point x="238" y="715" type="qcurve" smooth="yes"/>
      <point x="305" y="724"/>
      <point x="472" y="742"/>
      <point x="654" y="760"/>
      <point x="837" y="776"/>
      <point x="1002" y="788"/>
      <point x="1136" y="795"/>
    </contour>
    <contour>
      <point x="1034" y="461" type="qcurve" smooth="yes"/>
      <point x="1076" y="456"/>
      <point x="1104" y="439"/>
      <point x="1104" y="428" type="qcurve" smooth="yes"/>
      <point x="1104" y="418"/>
      <point x="1090" y="406"/>
      <point x="1067" y="399"/>
      <point x="1039" y="397"/>
      <point x="1024" y="397" type="qcurve" smooth="yes"/>
      <point x="1019" y="397"/>
      <point x="972" y="398"/>
      <point x="902" y="398"/>
      <point x="817" y="400"/>
      <point x="730" y="400"/>
      <point x="650" y="401"/>
      <point x="621" y="401" type="qcurve" smooth="yes"/>
      <point x="551" y="401"/>
      <point x="415" y="400"/>
      <point x="299" y="398"/>
      <point x="210" y="397"/>
      <point x="186" y="397" type="qcurve" smooth="yes"/>
      <point x="141" y="397"/>
      <point x="102" y="421"/>
      <point x="102" y="442" type="qcurve" smooth="yes"/>
      <point x="102" y="451"/>
      <point x="111" y="468"/>
      <point x="133" y="481"/>
      <point x="172" y="489"/>
      <point x="201" y="489" type="qcurve" smooth="yes"/>
      <point x="250" y="489"/>
      <point x="395" y="487"/>
      <point x="561" y="482"/>
      <point x="734" y="477"/>
      <point x="886" y="470"/>
      <point x="1005" y="464"/>
    </contour>
  </outline>
</glyph>
<glyph name="question" format="2">
  <advance width="1157"/>
  <unicode hex="003F"/>
  <outline>
    <contour>
      <point x="399" y="43" type="qcurve" smooth="yes"/>
      <point x="463" y="43"/>
      <point x="524" y="-35"/>
      <point x="524" y="-92" type="qcurve" smooth="yes"/>
      <point x="524" y="-127"/>
      <point x="501" y="-173"/>
      <point x="468" y="-199"/>
      <point x="432" y="-209"/>
      <point x="418" y="-209" type="qcurve" smooth="yes"/>
      <point x="389" y="-209"/>
      <point x="342" y="-186"/>
      <point x="308" y="-147"/>
      <point x="289" y="-97"/>
      <point x="289" y="-70" type="qcurve" smooth="yes"/>
      <point x="289" y="-23"/>
      <point x="344" y="43"/>
    </contour>
    <contour>
      <point x="584" y="1700" type="qcurve" smooth="yes"/>
      <point x="688" y="1700"/>
      <point x="874" y="1647"/>
      <point x="1013" y="1538"/>
      <point x="1094" y="1371"/>
      <point x="1094" y="1257" type="qcurve" smooth="yes"/>
      <point x="1094" y="1177"/>
      <point x="1056" y="1048"/>
      <point x="986" y="939"/>
      <point x="885" y="846"/>
      <point x="821" y="803" type="qcurve" smooth="yes"/>
      <point x="754" y="758"/>
      <point x="625" y="681"/>
      <point x="509" y="610"/>
      <point x="412" y="541"/>
      <point x="341" y="466"/>
      <point x="301" y="381"/>
      <point x="301" y="330" type="qcurve" smooth="yes"/>
      <point x="301" y="298"/>
      <point x="317" y="253"/>
      <point x="342" y="223"/>
      <point x="375" y="209"/>
      <point x="393" y="209" type="qcurve" smooth="yes"/>
      <point x="414" y="209"/>
      <point x="442" y="226"/>
      <point x="460" y="251"/>
      <point x="468" y="279"/>
      <point x="469" y="291" type="qcurve" smooth="yes"/>
      <point x="471" y="308"/>
      <point x="475" y="326"/>
      <point x="483" y="326" type="qcurve" smooth="yes"/>
      <point x="491" y="326"/>
      <point x="500" y="303"/>
      <point x="500" y="285" type="qcurve" smooth="yes"/>
      <point x="500" y="261"/>
      <point x="486" y="217"/>
      <point x="458" y="184"/>
      <point x="412" y="164"/>
      <point x="381" y="164" type="qcurve" smooth="yes"/>
      <point x="352" y="164"/>
      <point x="296" y="183"/>
      <point x="252" y="225"/>
      <point x="225" y="291"/>
      <point x="225" y="338" type="qcurve" smooth="yes"/>
      <point x="225" y="407"/>
      <point x="277" y="522"/>
      <point x="362" y="626"/>
      <point x="470" y="724"/>
      <point x="584" y="826"/>
      <point x="692" y="937"/>
      <point x="777" y="1068"/>
      <point x="829" y="1223"/>
      <point x="829" y="1319" type="qcurve" smooth="yes"/>
      <point x="829" y="1381"/>
      <point x="797" y="1503"/>
      <point x="726" y="1599"/>
      <point x="611" y="1659"/>
      <point x="528" y="1659" type="qcurve" smooth="yes"/>
      <point x="464" y="1659"/>
      <point x="366" y="1622"/>
      <point x="299" y="1559"/>
      <point x="264" y="1476"/>
      <point x="264" y="1430" type="qcurve" smooth="yes"/>
      <point x="264" y="1384"/>
      <point x="290" y="1311"/>
      <point x="330" y="1248"/>
      <point x="376" y="1192"/>
      <point x="416" y="1132"/>
      <point x="442" y="1065"/>
      <point x="442" y="1024" type="qcurve" smooth="yes"/>
      <point x="442" y="994"/>
      <point x="423" y="935"/>
      <point x="381" y="887"/>
      <point x="315" y="858"/>
      <point x="268" y="858" type="qcurve" smooth="yes"/>
      <point x="153" y="858"/>
      <point x="41" y="1019"/>
      <point x="41" y="1165" type="qcurve" smooth="yes"/>
      <point x="41" y="1217"/>
      <point x="65" y="1336"/>
      <point x="119" y="1455"/>
      <point x="203" y="1565"/>
      <point x="324" y="1649"/>
      <point x="483" y="1700"/>
    </contour>
  </outline>
</glyph>
<glyph name="E" format="2">
  <advance width="1141"/>
  <unicode hex="0045"/>
  <outline>
    <contour>
      <point x="1004" y="1642" type="qcurve" smooth="yes"/>
      <point x="1019" y="1642"/>
      <point x="1030" y="1628"/>
      <point x="1030" y="1614" type="qcurve" smooth="yes"/>
      <point x="1030" y="1596"/>
      <point x="1025" y="1550"/>
      <point x="1019" y="1481"/>
      <point x="1014" y="1384"/>
      <point x="1014" y="1315" type="qcurve" smooth="yes"/>
      <point x="1014" y="1302"/>
      <point x="1006" y="1282"/>
      <point x="995" y="1282" type="qcurve" smooth="yes"/>
      <point x="979" y="1282"/>
      <point x="973" y="1315" type="qcurve" smooth="yes"/>
      <point x="968" y="1336"/>
      <point x="961" y="1401"/>
      <point x="954" y="1448" type="qcurve" smooth="yes"/>
      <point x="949" y="1486"/>
      <point x="926" y="1528"/>
      <point x="893" y="1548"/>
      <point x="855" y="1552"/>
      <point x="836" y="1552" type="qcurve" smooth="yes"/>
      <point x="797" y="1552"/>
      <point x="696" y="1545"/>
      <point x="600" y="1536"/>
      <point x="523" y="1526"/>
      <point x="508" y="1522" type="qcurve" smooth="yes"/>
      <point x="476" y="1514"/>
      <point x="461" y="1477"/>
      <point x="461" y="1452" type="qcurve" smooth="yes"/>
      <point x="461" y="1430"/>
      <point x="463" y="1347"/>
      <point x="467" y="1240"/>
      <point x="473" y="1117"/>
      <point x="478" y="993"/>
      <point x="483" y="877"/>
      <point x="485" y="831" type="qcurve"/>
      <point x="507" y="828"/>
      <point x="564" y="823"/>
      <point x="592" y="823" type="qcurve" smooth="yes"/>
      <point x="625" y="823"/>
      <point x="670" y="832"/>
      <point x="701" y="848"/>
      <point x="719" y="871"/>
      <point x="725" y="885" type="qcurve" smooth="yes"/>
      <point x="731" y="900"/>
      <point x="736" y="928"/>
      <point x="739" y="946" type="qcurve" smooth="yes"/>
      <point x="742" y="965"/>
      <point x="754" y="977"/>
      <point x="760" y="977" type="qcurve" smooth="yes"/>
      <point x="774" y="977"/>
      <point x="774" y="952" type="qcurve" smooth="yes"/>
      <point x="774" y="930"/>
      <point x="769" y="866"/>
      <point x="763" y="796"/>
      <point x="758" y="724"/>
      <point x="758" y="694" type="qcurve" smooth="yes"/>
      <point x="758" y="667"/>
      <point x="759" y="613"/>
      <point x="761" y="567"/>
      <point x="762" y="531"/>
      <point x="762" y="522" type="qcurve" smooth="yes"/>
      <point x="762" y="508"/>
      <point x="751" y="483"/>
      <point x="737" y="483" type="qcurve" smooth="yes"/>
      <point x="714" y="483"/>
      <point x="711" y="524" type="qcurve" smooth="yes"/>
      <point x="710" y="534"/>
      <point x="709" y="570"/>
      <point x="707" y="610"/>
      <point x="702" y="650"/>
      <point x="698" y="664" type="qcurve" smooth="yes"/>
      <point x="693" y="681"/>
      <point x="667" y="714"/>
      <point x="639" y="723" type="qcurve" smooth="yes"/>
      <point x="627" y="727"/>
      <point x="592" y="733"/>
      <point x="551" y="737"/>
      <point x="508" y="740"/>
      <point x="489" y="741" type="qcurve"/>
      <point x="492" y="691"/>
      <point x="501" y="544"/>
      <point x="512" y="381"/>
      <point x="524" y="215"/>
      <point x="534" y="77"/>
      <point x="541" y="-18"/>
      <point x="543" y="-29" type="qcurve" smooth="yes"/>
      <point x="547" y="-70"/>
      <point x="581" y="-108"/>
      <point x="618" y="-113" type="qcurve" smooth="yes"/>
      <point x="658" y="-119"/>
      <point x="715" y="-119" type="qcurve" smooth="yes"/>
      <point x="791" y="-119"/>
      <point x="907" y="-103"/>
      <point x="993" y="-63"/>
      <point x="1053" y="4"/>
      <point x="1073" y="55" type="qcurve" smooth="yes"/>
      <point x="1084" y="82"/>
      <point x="1099" y="135"/>
      <point x="1110" y="177"/>
      <point x="1120" y="203"/>
      <point x="1126" y="203" type="qcurve" smooth="yes"/>
      <point x="1134" y="203"/>
      <point x="1141" y="166"/>
      <point x="1141" y="141" type="qcurve" smooth="yes"/>
      <point x="1141" y="105"/>
      <point x="1134" y="18"/>
      <point x="1122" y="-66"/>
      <point x="1107" y="-138"/>
      <point x="1100" y="-158" type="qcurve" smooth="yes"/>
      <point x="1087" y="-190"/>
      <point x="1043" y="-215"/>
      <point x="1006" y="-215" type="qcurve" smooth="yes"/>
      <point x="974" y="-215"/>
      <point x="864" y="-204"/>
      <point x="721" y="-189"/>
      <point x="556" y="-173"/>
      <point x="469" y="-168" type="qcurve" smooth="yes"/>
      <point x="402" y="-164"/>
      <point x="281" y="-160"/>
      <point x="181" y="-158"/>
      <point x="107" y="-158"/>
      <point x="86" y="-158" type="qcurve" smooth="yes"/>
      <point x="58" y="-158"/>
      <point x="41" y="-143"/>
      <point x="41" y="-131" type="qcurve" smooth="yes"/>
      <point x="41" y="-116"/>
      <point x="63" y="-104"/>
      <point x="80" y="-104" type="qcurve" smooth="yes"/>
      <point x="91" y="-104"/>
      <point x="144" y="-109"/>
      <point x="182" y="-109" type="qcurve" smooth="yes"/>
      <point x="195" y="-109"/>
      <point x="222" y="-108"/>
      <point x="238" y="-106" type="qcurve" smooth="yes"/>
      <point x="274" y="-105"/>
      <point x="313" y="-82"/>
      <point x="331" y="-51"/>
      <point x="334" y="-17"/>
      <point x="334" y="-4" type="qcurve" smooth="yes"/>
      <point x="332" y="93"/>
      <point x="315" y="314"/>
      <point x="296" y="524"/>
      <point x="277" y="700"/>
      <point x="272" y="752" type="qcurve" smooth="yes"/>
      <point x="269" y="786"/>
      <point x="259" y="881"/>
      <point x="246" y="989"/>
      <point x="231" y="1102"/>
      <point x="216" y="1209"/>
      <point x="201" y="1301"/>
      <point x="195" y="1333" type="qcurve" smooth="yes"/>
      <point x="187" y="1372"/>
      <point x="168" y="1428"/>
      <point x="146" y="1470"/>
      <point x="121" y="1500"/>
      <point x="106" y="1511" type="qcurve" smooth="yes"/>
      <point x="95" y="1520"/>
      <point x="65" y="1537"/>
      <point x="38" y="1553"/>
      <point x="20" y="1568"/>
      <point x="20" y="1577" type="qcurve" smooth="yes"/>
      <point x="20" y="1593"/>
      <point x="47" y="1593" type="qcurve" smooth="yes"/>
      <point x="61" y="1593"/>
      <point x="111" y="1586"/>
      <point x="186" y="1578"/>
      <point x="289" y="1571"/>
      <point x="356" y="1571" type="qcurve" smooth="yes"/>
      <point x="408" y="1571"/>
      <point x="538" y="1582"/>
      <point x="675" y="1597"/>
      <point x="809" y="1616"/>
      <point x="919" y="1631"/>
      <point x="994" y="1642"/>
    </contour>
  </outline>
</glyph>
<glyph name="H" format="2">
  <advance width="1522"/>
  <unicode hex="0048"/>
  <outline>
    <contour>
      <point x="88" y="1794" type="qcurve" smooth="yes"/>
      <point x="106" y="1794"/>
      <point x="165" y="1774"/>
      <point x="246" y="1745"/>
      <point x="347" y="1714"/>
      <point x="406" y="1702" type="qcurve" smooth="yes"/>
      <point x="464" y="1690"/>
      <point x="593" y="1675"/>
      <point x="707" y="1666"/>
      <point x="794" y="1660"/>
      <point x="809" y="1659" type="qcurve" smooth="yes"/>
      <point x="823" y="1657"/>
      <point x="840" y="1650"/>
      <point x="840" y="1640" type="qcurve" smooth="yes"/>
      <point x="840" y="1629"/>
      <point x="822" y="1622"/>
      <point x="811" y="1622" type="qcurve" smooth="yes"/>
      <point x="789" y="1622"/>
      <point x="704" y="1628"/>
      <point x="657" y="1628" type="qcurve" smooth="yes"/>
      <point x="622" y="1628"/>
      <point x="569" y="1615"/>
      <point x="534" y="1585"/>
      <point x="514" y="1536"/>
      <point x="512" y="1499" type="qcurve" smooth="yes"/>
      <point x="510" y="1478"/>
      <point x="509" y="1411"/>
      <point x="508" y="1329"/>
      <point x="508" y="1236"/>
      <point x="508" y="1188" type="qcurve" smooth="yes"/>
      <point x="508" y="1130"/>
      <point x="508" y="1020"/>
      <point x="508" y="928"/>
      <point x="509" y="864"/>
      <point x="510" y="852" type="qcurve" smooth="yes"/>
      <point x="511" y="826"/>
      <point x="521" y="794"/>
      <point x="539" y="776"/>
      <point x="563" y="770"/>
      <point x="578" y="770" type="qcurve" smooth="yes"/>
      <point x="606" y="770"/>
      <point x="686" y="775"/>
      <point x="777" y="783"/>
      <point x="869" y="794"/>
      <point x="948" y="803"/>
      <point x="1008" y="811"/>
      <point x="1020" y="813" type="qcurve" smooth="yes"/>
      <point x="1054" y="819"/>
      <point x="1094" y="853"/>
      <point x="1113" y="901"/>
      <point x="1118" y="962"/>
      <point x="1118" y="995" type="qcurve" smooth="yes"/>
      <point x="1118" y="1040"/>
      <point x="1111" y="1135"/>
      <point x="1101" y="1221"/>
      <point x="1090" y="1291"/>
      <point x="1087" y="1309" type="qcurve" smooth="yes"/>
      <point x="1081" y="1348"/>
      <point x="1057" y="1391"/>
      <point x="1028" y="1412"/>
      <point x="997" y="1417"/>
      <point x="985" y="1417" type="qcurve" smooth="yes"/>
      <point x="951" y="1417"/>
      <point x="880" y="1413"/>
      <point x="860" y="1413" type="qcurve" smooth="yes"/>
      <point x="840" y="1413"/>
      <point x="819" y="1429"/>
      <point x="819" y="1442" type="qcurve" smooth="yes"/>
      <point x="819" y="1453"/>
      <point x="836" y="1473"/>
      <point x="868" y="1475" type="qcurve" smooth="yes"/>
      <point x="898" y="1476"/>
      <point x="973" y="1481"/>
      <point x="1056" y="1490"/>
      <point x="1142" y="1502"/>
      <point x="1184" y="1511" type="qcurve" smooth="yes"/>
      <point x="1222" y="1520"/>
      <point x="1309" y="1545"/>
      <point x="1392" y="1568"/>
      <point x="1464" y="1585"/>
      <point x="1487" y="1585" type="qcurve" smooth="yes"/>
      <point x="1510" y="1585"/>
      <point x="1522" y="1571"/>
      <point x="1522" y="1563" type="qcurve" smooth="yes"/>
      <point x="1522" y="1549"/>
      <point x="1499" y="1538"/>
      <point x="1485" y="1538" type="qcurve" smooth="yes"/>
      <point x="1478" y="1538"/>
      <point x="1454" y="1536"/>
      <point x="1428" y="1531"/>
      <point x="1402" y="1523"/>
      <point x="1393" y="1516" type="qcurve" smooth="yes"/>
      <point x="1377" y="1503"/>
      <point x="1350" y="1458"/>
      <point x="1343" y="1413" type="qcurve" smooth="yes"/>
      <point x="1338" y="1377"/>
      <point x="1333" y="1268"/>
      <point x="1329" y="1148"/>
      <point x="1326" y="1028"/>
      <point x="1325" y="981" type="qcurve" smooth="yes"/>
      <point x="1324" y="957"/>
      <point x="1321" y="864"/>
      <point x="1319" y="743"/>
      <point x="1316" y="600"/>
      <point x="1314" y="453"/>
      <point x="1313" y="306"/>
      <point x="1313" y="242" type="qcurve" smooth="yes"/>
      <point x="1313" y="188"/>
      <point x="1313" y="98"/>
      <point x="1315" y="66" type="qcurve" smooth="yes"/>
      <point x="1316" y="34"/>
      <point x="1331" y="-7"/>
      <point x="1351" y="-32"/>
      <point x="1374" y="-45"/>
      <point x="1384" y="-49" type="qcurve" smooth="yes"/>
      <point x="1406" y="-57"/>
      <point x="1456" y="-65"/>
      <point x="1485" y="-72" type="qcurve" smooth="yes"/>
      <point x="1499" y="-75"/>
      <point x="1507" y="-84"/>
      <point x="1507" y="-90" type="qcurve" smooth="yes"/>
      <point x="1507" y="-92"/>
      <point x="1505" y="-99"/>
      <point x="1498" y="-105"/>
      <point x="1482" y="-109"/>
      <point x="1468" y="-109" type="qcurve" smooth="yes"/>
      <point x="1456" y="-109"/>
      <point x="1395" y="-104"/>
      <point x="1319" y="-97"/>
      <point x="1239" y="-92"/>
      <point x="1208" y="-92" type="qcurve" smooth="yes"/>
      <point x="1167" y="-92"/>
      <point x="1087" y="-99"/>
      <point x="1015" y="-108"/>
      <point x="951" y="-115"/>
      <point x="926" y="-115" type="qcurve" smooth="yes"/>
      <point x="884" y="-115"/>
      <point x="860" y="-94"/>
      <point x="860" y="-82" type="qcurve" smooth="yes"/>
      <point x="860" y="-66"/>
      <point x="885" y="-57"/>
      <point x="903" y="-57" type="qcurve" smooth="yes"/>
      <point x="960" y="-55"/>
      <point x="1037" y="-48"/>
      <point x="1071" y="-33" type="qcurve" smooth="yes"/>
      <point x="1096" y="-21"/>
      <point x="1127" y="12"/>
      <point x="1142" y="51"/>
      <point x="1147" y="92"/>
      <point x="1147" y="111" type="qcurve" smooth="yes"/>
      <point x="1147" y="126"/>
      <point x="1143" y="204"/>
      <point x="1136" y="309"/>
      <point x="1127" y="428"/>
      <point x="1117" y="541"/>
      <point x="1108" y="635"/>
      <point x="1104" y="662" type="qcurve" smooth="yes"/>
      <point x="1099" y="692"/>
      <point x="1084" y="727"/>
      <point x="1063" y="745"/>
      <point x="1035" y="750"/>
      <point x="1018" y="750" type="qcurve" smooth="yes"/>
      <point x="1000" y="750"/>
      <point x="927" y="744"/>
      <point x="836" y="735"/>
      <point x="737" y="723"/>
      <point x="650" y="711"/>
      <point x="582" y="699"/>
      <point x="569" y="694" type="qcurve" smooth="yes"/>
      <point x="550" y="688"/>
      <point x="528" y="668"/>
      <point x="518" y="645"/>
      <point x="515" y="620"/>
      <point x="514" y="608" type="qcurve" smooth="yes"/>
      <point x="514" y="579"/>
      <point x="515" y="479"/>
      <point x="516" y="358"/>
      <point x="518" y="225"/>
      <point x="519" y="101"/>
      <point x="520" y="-4"/>
      <point x="520" y="-37" type="qcurve" smooth="yes"/>
      <point x="520" y="-84"/>
      <point x="532" y="-142"/>
      <point x="552" y="-177"/>
      <point x="580" y="-198"/>
      <point x="596" y="-207" type="qcurve" smooth="yes"/>
      <point x="613" y="-216"/>
      <point x="643" y="-231"/>
      <point x="643" y="-244" type="qcurve" smooth="yes"/>
      <point x="643" y="-252"/>
      <point x="630" y="-258"/>
      <point x="621" y="-258" type="qcurve" smooth="yes"/>
      <point x="600" y="-258"/>
      <point x="555" y="-246"/>
      <point x="495" y="-233"/>
      <point x="412" y="-221"/>
      <point x="354" y="-221" type="qcurve" smooth="yes"/>
      <point x="294" y="-221"/>
      <point x="193" y="-235"/>
      <point x="113" y="-252"/>
      <point x="55" y="-266"/>
      <point x="37" y="-266" type="qcurve" smooth="yes"/>
      <point x="0" y="-266"/>
      <point x="0" y="-240" type="qcurve" smooth="yes"/>
      <point x="0" y="-224"/>
      <point x="17" y="-210"/>
      <point x="31" y="-205" type="qcurve" smooth="yes"/>
      <point x="37" y="-203"/>
      <point x="65" y="-197"/>
      <point x="104" y="-190"/>
      <point x="150" y="-180"/>
      <point x="174" y="-174" type="qcurve" smooth="yes"/>
      <point x="206" y="-166"/>
      <point x="242" y="-138"/>
      <point x="259" y="-103"/>
      <point x="263" y="-63"/>
      <point x="264" y="-43" type="qcurve" smooth="yes"/>
      <point x="264" y="-37"/>
      <point x="266" y="32"/>
      <point x="270" y="137"/>
      <point x="274" y="272"/>
      <point x="278" y="417"/>
      <point x="280" y="562"/>
      <point x="281" y="627" type="qcurve" smooth="yes"/>
      <point x="281" y="642"/>
      <point x="282" y="711"/>
      <point x="282" y="807"/>
      <point x="283" y="925"/>
      <point x="283" y="989" type="qcurve" smooth="yes"/>
      <point x="283" y="1074"/>
      <point x="282" y="1250"/>
      <point x="279" y="1403"/>
      <point x="274" y="1519"/>
      <point x="270" y="1544" type="qcurve" smooth="yes"/>
      <point x="266" y="1573"/>
      <point x="252" y="1618"/>
      <point x="228" y="1654"/>
      <point x="195" y="1684"/>
      <point x="172" y="1698" type="qcurve" smooth="yes"/>
      <point x="150" y="1711"/>
      <point x="110" y="1731"/>
      <point x="79" y="1747"/>
      <point x="61" y="1764"/>
      <point x="61" y="1774" type="qcurve" smooth="yes"/>
      <point x="61" y="1783"/>
      <point x="73" y="1794"/>
    </contour>
  </outline>
</glyph>
<glyph name="L" format="2">
  <advance width="1352"/>
  <unicode hex="004C"/>
  <outline>
    <contour>
      <point x="80" y="1544" type="qcurve" smooth="yes"/>
      <point x="117" y="1543"/>
      <point x="199" y="1527"/>
      <point x="301" y="1505"/>
      <point x="426" y="1483"/>
      <point x="506" y="1477" type="qcurve" smooth="yes"/>
      <point x="548" y="1474"/>
      <point x="611" y="1470"/>
      <point x="637" y="1470" type="qcurve" smooth="yes"/>
      <point x="667" y="1470"/>
      <point x="717" y="1473"/>
      <point x="766" y="1478"/>
      <point x="820" y="1481"/>
      <point x="854" y="1481" type="qcurve" smooth="yes"/>
      <point x="902" y="1481"/>
      <point x="930" y="1463"/>
      <point x="930" y="1448" type="qcurve" smooth="yes"/>
      <point x="930" y="1432"/>
      <point x="903" y="1419"/>
      <point x="879" y="1417" type="qcurve" smooth="yes"/>
      <point x="860" y="1415"/>
      <point x="811" y="1412"/>
      <point x="788" y="1409" type="qcurve" smooth="yes"/>
      <point x="769" y="1406"/>
      <point x="732" y="1395"/>
      <point x="700" y="1372"/>
      <point x="676" y="1331"/>
      <point x="670" y="1298" type="qcurve" smooth="yes"/>
      <point x="661" y="1248"/>
      <point x="641" y="1084"/>
      <point x="623" y="892"/>
      <point x="607" y="686"/>
      <point x="595" y="500"/>
      <point x="588" y="348"/>
      <point x="588" y="307" type="qcurve" smooth="yes"/>
      <point x="588" y="242"/>
      <point x="623" y="185"/>
      <point x="657" y="174" type="qcurve" smooth="yes"/>
      <point x="667" y="171"/>
      <point x="705" y="165"/>
      <point x="754" y="161"/>
      <point x="811" y="158"/>
      <point x="840" y="158" type="qcurve" smooth="yes"/>
      <point x="925" y="158"/>
      <point x="1039" y="186"/>
      <point x="1108" y="244"/>
      <point x="1137" y="330"/>
      <point x="1137" y="389" type="qcurve" smooth="yes"/>
      <point x="1137" y="441"/>
      <point x="1121" y="542"/>
      <point x="1101" y="628"/>
      <point x="1085" y="696"/>
      <point x="1085" y="715" type="qcurve" smooth="yes"/>
      <point x="1085" y="726"/>
      <point x="1093" y="741"/>
      <point x="1102" y="741" type="qcurve" smooth="yes"/>
      <point x="1114" y="741"/>
      <point x="1130" y="720"/>
      <point x="1137" y="705" type="qcurve" smooth="yes"/>
      <point x="1149" y="670"/>
      <point x="1168" y="607"/>
      <point x="1188" y="539"/>
      <point x="1212" y="461"/>
      <point x="1229" y="412" type="qcurve" smooth="yes"/>
      <point x="1266" y="305"/>
      <point x="1319" y="168"/>
      <point x="1319" y="137" type="qcurve" smooth="yes"/>
      <point x="1319" y="122"/>
      <point x="1279" y="104"/>
      <point x="1223" y="104" type="qcurve" smooth="yes"/>
      <point x="1173" y="104"/>
      <point x="1005" y="104"/>
      <point x="809" y="101"/>
      <point x="604" y="95"/>
      <point x="518" y="90" type="qcurve" smooth="yes"/>
      <point x="448" y="85"/>
      <point x="346" y="72"/>
      <point x="261" y="60"/>
      <point x="184" y="51"/>
      <point x="139" y="51" type="qcurve" smooth="yes"/>
      <point x="108" y="51"/>
      <point x="86" y="64"/>
      <point x="86" y="78" type="qcurve" smooth="yes"/>
      <point x="86" y="90"/>
      <point x="109" y="101"/>
      <point x="125" y="104" type="qcurve" smooth="yes"/>
      <point x="130" y="105"/>
      <point x="164" y="109"/>
      <point x="207" y="117"/>
      <point x="255" y="129"/>
      <point x="274" y="137" type="qcurve" smooth="yes"/>
      <point x="321" y="157"/>
      <point x="357" y="247"/>
      <point x="362" y="315" type="qcurve" smooth="yes"/>
      <point x="366" y="363"/>
      <point x="369" y="503"/>
      <point x="369" y="584" type="qcurve" smooth="yes"/>
      <point x="369" y="674"/>
      <point x="367" y="864"/>
      <point x="362" y="1037"/>
      <point x="357" y="1180"/>
      <point x="354" y="1225" type="qcurve" smooth="yes"/>
      <point x="351" y="1270"/>
      <point x="338" y="1337"/>
      <point x="319" y="1385"/>
      <point x="294" y="1416"/>
      <point x="279" y="1427" type="qcurve" smooth="yes"/>
      <point x="265" y="1437"/>
      <point x="227" y="1453"/>
      <point x="186" y="1464"/>
      <point x="145" y="1472"/>
      <point x="127" y="1475" type="qcurve" smooth="yes"/>
      <point x="101" y="1479"/>
      <point x="67" y="1487"/>
      <point x="48" y="1497"/>
      <point x="41" y="1509"/>
      <point x="41" y="1516" type="qcurve" smooth="yes"/>
      <point x="41" y="1534"/>
      <point x="64" y="1544"/>
    </contour>
  </outline>
</glyph>
<glyph name="M" format="2">
  <advance width="2232"/>
  <unicode hex="004D"/>
  <outline>
    <contour>
      <point x="569" y="1014" type="qcurve" smooth="yes"/>
      <point x="558" y="1080"/>
      <point x="498" y="1157"/>
      <point x="467" y="1174" type="qcurve" smooth="yes"/>
      <point x="442" y="1188"/>
      <point x="393" y="1202"/>
      <point x="375" y="1208" type="qcurve" smooth="yes"/>
      <point x="356" y="1215"/>
      <point x="338" y="1231"/>
      <point x="338" y="1245" type="qcurve" smooth="yes"/>
      <point x="338" y="1274"/>
      <point x="377" y="1274" type="qcurve" smooth="yes"/>
      <point x="395" y="1274"/>
      <point x="429" y="1266"/>
      <point x="477" y="1256"/>
      <point x="543" y="1243"/>
      <point x="592" y="1239" type="qcurve" smooth="yes"/>
      <point x="637" y="1235"/>
      <point x="699" y="1234"/>
      <point x="742" y="1233"/>
      <point x="772" y="1230"/>
      <point x="784" y="1225" type="qcurve" smooth="yes"/>
      <point x="802" y="1217"/>
      <point x="861" y="1155"/>
      <point x="934" y="1065"/>
      <point x="1016" y="955"/>
      <point x="1097" y="842"/>
      <point x="1174" y="736"/>
      <point x="1237" y="654"/>
      <point x="1282" y="604"/>
      <point x="1290" y="604" type="qcurve" smooth="yes"/>
      <point x="1307" y="604"/>
      <point x="1406" y="789"/>
      <point x="1497" y="973" type="qcurve" smooth="yes"/>
      <point x="1522" y="1024"/>
      <point x="1575" y="1139"/>
      <point x="1626" y="1252"/>
      <point x="1672" y="1356"/>
      <point x="1711" y="1436"/>
      <point x="1741" y="1485"/>
      <point x="1749" y="1487" type="qcurve" smooth="yes"/>
      <point x="1754" y="1489"/>
      <point x="1765" y="1489"/>
      <point x="1772" y="1489" type="qcurve" smooth="yes"/>
      <point x="1790" y="1489"/>
      <point x="1854" y="1487"/>
      <point x="1905" y="1487" type="qcurve" smooth="yes"/>
      <point x="1936" y="1487"/>
      <point x="1986" y="1492"/>
      <point x="2025" y="1498"/>
      <point x="2057" y="1503"/>
      <point x="2071" y="1503" type="qcurve" smooth="yes"/>
      <point x="2092" y="1503"/>
      <point x="2105" y="1491"/>
      <point x="2105" y="1483" type="qcurve" smooth="yes"/>
      <point x="2105" y="1465"/>
      <point x="2075" y="1456" type="qcurve" smooth="yes"/>
      <point x="2046" y="1447"/>
      <point x="1941" y="1428"/>
      <point x="1876" y="1405" type="qcurve" smooth="yes"/>
      <point x="1836" y="1391"/>
      <point x="1804" y="1318"/>
      <point x="1804" y="1264" type="qcurve" smooth="yes"/>
      <point x="1804" y="1225"/>
      <point x="1817" y="1104"/>
      <point x="1840" y="957"/>
      <point x="1872" y="792"/>
      <point x="1909" y="625"/>
      <point x="1950" y="467"/>
      <point x="1992" y="333"/>
      <point x="2033" y="232"/>
      <point x="2052" y="207" type="qcurve" smooth="yes"/>
      <point x="2070" y="183"/>
      <point x="2107" y="149"/>
      <point x="2152" y="125"/>
      <point x="2205" y="107"/>
      <point x="2238" y="98" type="qcurve" smooth="yes"/>
      <point x="2270" y="90"/>
      <point x="2294" y="72"/>
      <point x="2294" y="59" type="qcurve" smooth="yes"/>
      <point x="2294" y="45"/>
      <point x="2261" y="27"/>
      <point x="2226" y="27" type="qcurve" smooth="yes"/>
      <point x="2184" y="27"/>
      <point x="2093" y="33"/>
      <point x="2038" y="33" type="qcurve" smooth="yes"/>
      <point x="1949" y="33"/>
      <point x="1802" y="7"/>
      <point x="1681" y="-25"/>
      <point x="1583" y="-51"/>
      <point x="1542" y="-51" type="qcurve" smooth="yes"/>
      <point x="1531" y="-51"/>
      <point x="1509" y="-43"/>
      <point x="1509" y="-29" type="qcurve" smooth="yes"/>
      <point x="1509" y="-14"/>
      <point x="1545" y="5"/>
      <point x="1602" y="22"/>
      <point x="1672" y="40"/>
      <point x="1706" y="55" type="qcurve" smooth="yes"/>
      <point x="1741" y="71"/>
      <point x="1772" y="122"/>
      <point x="1772" y="162" type="qcurve" smooth="yes"/>
      <point x="1772" y="185"/>
      <point x="1757" y="283"/>
      <point x="1733" y="413"/>
      <point x="1702" y="563"/>
      <point x="1669" y="713"/>
      <point x="1636" y="852"/>
      <point x="1610" y="958"/>
      <point x="1591" y="1022"/>
      <point x="1589" y="1022" type="qcurve" smooth="yes"/>
      <point x="1586" y="1022"/>
      <point x="1555" y="968"/>
      <point x="1509" y="878"/>
      <point x="1451" y="762"/>
      <point x="1392" y="640"/>
      <point x="1334" y="520"/>
      <point x="1286" y="421"/>
      <point x="1254" y="354"/>
      <point x="1249" y="346" type="qcurve" smooth="yes"/>
      <point x="1239" y="327"/>
      <point x="1217" y="285"/>
      <point x="1194" y="250"/>
      <point x="1174" y="227"/>
      <point x="1167" y="227" type="qcurve" smooth="yes"/>
      <point x="1161" y="227"/>
      <point x="1142" y="246"/>
      <point x="1122" y="274"/>
      <point x="1101" y="306"/>
      <point x="1094" y="319" type="qcurve" smooth="yes"/>
      <point x="1068" y="364"/>
      <point x="998" y="487"/>
      <point x="921" y="622"/>
      <point x="846" y="758"/>
      <point x="781" y="873"/>
      <point x="735" y="956"/>
      <point x="727" y="971" type="qcurve" smooth="yes"/>
      <point x="710" y="1001"/>
      <point x="686" y="1042"/>
      <point x="669" y="1066"/>
      <point x="657" y="1077"/>
      <point x="651" y="1077" type="qcurve" smooth="yes"/>
      <point x="643" y="1077"/>
      <point x="643" y="1061" type="qcurve" smooth="yes"/>
      <point x="643" y="1045"/>
      <point x="649" y="990"/>
      <point x="651" y="969" type="qcurve" smooth="yes"/>
      <point x="661" y="872"/>
      <point x="668" y="703"/>
      <point x="668" y="625" type="qcurve" smooth="yes"/>
      <point x="668" y="555"/>
      <point x="652" y="392"/>
      <point x="614" y="229"/>
      <point x="549" y="79"/>
      <point x="449" y="-37"/>
      <point x="312" y="-106"/>
      <point x="221" y="-106" type="qcurve" smooth="yes"/>
      <point x="168" y="-106"/>
      <point x="86" y="-72"/>
      <point x="29" y="-15"/>
      <point x="0" y="58"/>
      <point x="0" y="98" type="qcurve" smooth="yes"/>
      <point x="0" y="126"/>
      <point x="15" y="182"/>
      <point x="49" y="225"/>
      <point x="101" y="252"/>
      <point x="139" y="252" type="qcurve" smooth="yes"/>
      <point x="169" y="252"/>
      <point x="216" y="231"/>
      <point x="253" y="200"/>
      <point x="283" y="162"/>
      <point x="295" y="145" type="qcurve" smooth="yes"/>
      <point x="337" y="88"/>
      <point x="387" y="88" type="qcurve" smooth="yes"/>
      <point x="431" y="88"/>
      <point x="495" y="142"/>
      <point x="542" y="233"/>
      <point x="572" y="351"/>
      <point x="589" y="479"/>
      <point x="596" y="608"/>
      <point x="596" y="664" type="qcurve" smooth="yes"/>
      <point x="596" y="763"/>
      <point x="580" y="943"/>
    </contour>
  </outline>
</glyph>
<glyph name="S" format="2">
  <advance width="1059"/>
  <unicode hex="0053"/>
  <outline>
    <contour>
      <point x="647" y="1587" type="qcurve" smooth="yes"/>
      <point x="701" y="1587"/>
      <point x="783" y="1567"/>
      <point x="846" y="1542"/>
      <point x="893" y="1522"/>
      <point x="911" y="1522" type="qcurve" smooth="yes"/>
      <point x="924" y="1522"/>
      <point x="942" y="1544"/>
      <point x="956" y="1576"/>
      <point x="966" y="1614"/>
      <point x="971" y="1630" type="qcurve" smooth="yes"/>
      <point x="977" y="1653"/>
      <point x="992" y="1686"/>
      <point x="1006" y="1686" type="qcurve" smooth="yes"/>
      <point x="1022" y="1686"/>
      <point x="1022" y="1657" type="qcurve" smooth="yes"/>
      <point x="1022" y="1641"/>
      <point x="1015" y="1601"/>
      <point x="1004" y="1546"/>
      <point x="991" y="1473"/>
      <point x="985" y="1425" type="qcurve" smooth="yes"/>
      <point x="977" y="1366"/>
      <point x="972" y="1275"/>
      <point x="968" y="1214"/>
      <point x="961" y="1182"/>
      <point x="952" y="1182" type="qcurve" smooth="yes"/>
      <point x="945" y="1182"/>
      <point x="937" y="1197"/>
      <point x="931" y="1219"/>
      <point x="927" y="1241"/>
      <point x="926" y="1249" type="qcurve" smooth="yes"/>
      <point x="921" y="1275"/>
      <point x="906" y="1338"/>
      <point x="880" y="1403"/>
      <point x="842" y="1465"/>
      <point x="785" y="1513"/>
      <point x="707" y="1542"/>
      <point x="655" y="1542" type="qcurve" smooth="yes"/>
      <point x="561" y="1542"/>
      <point x="457" y="1430"/>
      <point x="457" y="1321" type="qcurve" smooth="yes"/>
      <point x="457" y="1266"/>
      <point x="510" y="1153"/>
      <point x="597" y="1033"/>
      <point x="707" y="907"/>
      <point x="823" y="773"/>
      <point x="933" y="631"/>
      <point x="1020" y="479"/>
      <point x="1073" y="316"/>
      <point x="1073" y="229" type="qcurve" smooth="yes"/>
      <point x="1073" y="109"/>
      <point x="995" y="-68"/>
      <point x="863" y="-185"/>
      <point x="689" y="-242"/>
      <point x="594" y="-242" type="qcurve" smooth="yes"/>
      <point x="520" y="-242"/>
      <point x="409" y="-207"/>
      <point x="320" y="-166"/>
      <point x="247" y="-131"/>
      <point x="211" y="-131" type="qcurve" smooth="yes"/>
      <point x="183" y="-131"/>
      <point x="136" y="-165"/>
      <point x="97" y="-206"/>
      <point x="68" y="-240"/>
      <point x="59" y="-240" type="qcurve" smooth="yes"/>
      <point x="51" y="-240"/>
      <point x="47" y="-229"/>
      <point x="47" y="-221" type="qcurve" smooth="yes"/>
      <point x="47" y="-213"/>
      <point x="53" y="-176"/>
      <point x="60" y="-124"/>
      <point x="66" y="-58"/>
      <point x="66" y="-20" type="qcurve" smooth="yes"/>
      <point x="66" y="48"/>
      <point x="40" y="191"/>
      <point x="8" y="317"/>
      <point x="-18" y="413"/>
      <point x="-18" y="434" type="qcurve" smooth="yes"/>
      <point x="-18" y="443"/>
      <point x="-11" y="459"/>
      <point x="0" y="459" type="qcurve" smooth="yes"/>
      <point x="15" y="459"/>
      <point x="41" y="416"/>
      <point x="55" y="381" type="qcurve" smooth="yes"/>
      <point x="64" y="357"/>
      <point x="93" y="287"/>
      <point x="129" y="206"/>
      <point x="172" y="118"/>
      <point x="197" y="76" type="qcurve" smooth="yes"/>
      <point x="240" y="2"/>
      <point x="334" y="-96"/>
      <point x="433" y="-155"/>
      <point x="535" y="-180"/>
      <point x="586" y="-180" type="qcurve" smooth="yes"/>
      <point x="647" y="-180"/>
      <point x="736" y="-134"/>
      <point x="794" y="-60"/>
      <point x="821" y="32"/>
      <point x="821" y="78" type="qcurve" smooth="yes"/>
      <point x="821" y="169"/>
      <point x="772" y="328"/>
      <point x="693" y="473"/>
      <point x="591" y="607"/>
      <point x="484" y="735"/>
      <point x="382" y="861"/>
      <point x="303" y="992"/>
      <point x="254" y="1131"/>
      <point x="254" y="1208" type="qcurve" smooth="yes"/>
      <point x="254" y="1283"/>
      <point x="292" y="1397"/>
      <point x="355" y="1481"/>
      <point x="436" y="1538"/>
      <point x="523" y="1572"/>
      <point x="610" y="1587"/>
    </contour>
  </outline>
</glyph>
<glyph name="T" format="2">
  <advance width="1350"/>
  <unicode hex="0054"/>
  <outline>
    <contour>
      <point x="109" y="1786" type="qcurve" smooth="yes"/>
      <point x="130" y="1786"/>
      <point x="186" y="1777"/>
      <point x="249" y="1765"/>
      <point x="317" y="1751"/>
      <point x="352" y="1747" type="qcurve" smooth="yes"/>
      <point x="409" y="1739"/>
      <point x="519" y="1726"/>
      <point x="640" y="1717"/>
      <point x="778" y="1712"/>
      <point x="862" y="1712" type="qcurve" smooth="yes"/>
      <point x="968" y="1712"/>
      <point x="1114" y="1726"/>
      <point x="1220" y="1743"/>
      <point x="1299" y="1757"/>
      <point x="1339" y="1757" type="qcurve" smooth="yes"/>
      <point x="1383" y="1757"/>
      <point x="1411" y="1717"/>
      <point x="1411" y="1681" type="qcurve" smooth="yes"/>
      <point x="1411" y="1648"/>
      <point x="1405" y="1553"/>
      <point x="1395" y="1451"/>
      <point x="1380" y="1350"/>
      <point x="1363" y="1270"/>
      <point x="1343" y="1220"/>
      <point x="1333" y="1221" type="qcurve" smooth="yes"/>
      <point x="1321" y="1221"/>
      <point x="1312" y="1304"/>
      <point x="1307" y="1384" type="qcurve" smooth="yes"/>
      <point x="1304" y="1443"/>
      <point x="1282" y="1534"/>
      <point x="1238" y="1598"/>
      <point x="1168" y="1638"/>
      <point x="1116" y="1647" type="qcurve" smooth="yes"/>
      <point x="1073" y="1655"/>
      <point x="962" y="1659"/>
      <point x="903" y="1659" type="qcurve"/>
      <point x="903" y="369" type="line" smooth="yes"/>
      <point x="903" y="263"/>
      <point x="928" y="131"/>
      <point x="967" y="53"/>
      <point x="1014" y="19"/>
      <point x="1036" y="10" type="qcurve" smooth="yes"/>
      <point x="1051" y="4"/>
      <point x="1093" y="-4"/>
      <point x="1139" y="-10"/>
      <point x="1184" y="-13"/>
      <point x="1202" y="-14" type="qcurve" smooth="yes"/>
      <point x="1242" y="-16"/>
      <point x="1288" y="-24"/>
      <point x="1288" y="-41" type="qcurve" smooth="yes"/>
      <point x="1288" y="-48"/>
      <point x="1280" y="-62"/>
      <point x="1258" y="-73"/>
      <point x="1217" y="-80"/>
      <point x="1184" y="-80" type="qcurve" smooth="yes"/>
      <point x="1133" y="-80"/>
      <point x="1035" y="-76"/>
      <point x="985" y="-76" type="qcurve" smooth="yes"/>
      <point x="909" y="-76"/>
      <point x="767" y="-97"/>
      <point x="629" y="-139"/>
      <point x="489" y="-202"/>
      <point x="416" y="-244" type="qcurve" smooth="yes"/>
      <point x="393" y="-258"/>
      <point x="346" y="-281"/>
      <point x="332" y="-281" type="qcurve" smooth="yes"/>
      <point x="319" y="-281"/>
      <point x="319" y="-268" type="qcurve" smooth="yes"/>
      <point x="319" y="-257"/>
      <point x="350" y="-228"/>
      <point x="400" y="-191"/>
      <point x="465" y="-141"/>
      <point x="500" y="-109" type="qcurve" smooth="yes"/>
      <point x="550" y="-62"/>
      <point x="611" y="30"/>
      <point x="646" y="130"/>
      <point x="661" y="243"/>
      <point x="664" y="311" type="qcurve" smooth="yes"/>
      <point x="731" y="1661" type="line"/>
      <point x="684" y="1662"/>
      <point x="621" y="1663"/>
      <point x="567" y="1663"/>
      <point x="512" y="1663"/>
      <point x="475" y="1663" type="qcurve" smooth="yes"/>
      <point x="406" y="1663"/>
      <point x="310" y="1650"/>
      <point x="245" y="1626"/>
      <point x="209" y="1589"/>
      <point x="190" y="1540"/>
      <point x="186" y="1480"/>
      <point x="186" y="1444" type="qcurve" smooth="yes"/>
      <point x="186" y="1405"/>
      <point x="195" y="1322"/>
      <point x="209" y="1242"/>
      <point x="225" y="1171"/>
      <point x="233" y="1143" type="qcurve" smooth="yes"/>
      <point x="240" y="1117"/>
      <point x="252" y="1077"/>
      <point x="252" y="1063" type="qcurve" smooth="yes"/>
      <point x="252" y="1058"/>
      <point x="247" y="1044"/>
      <point x="238" y="1044" type="qcurve" smooth="yes"/>
      <point x="225" y="1044"/>
      <point x="196" y="1082"/>
      <point x="168" y="1145"/>
      <point x="140" y="1225"/>
      <point x="115" y="1310"/>
      <point x="93" y="1393"/>
      <point x="84" y="1427" type="qcurve" smooth="yes"/>
      <point x="62" y="1512"/>
      <point x="41" y="1656"/>
      <point x="41" y="1700" type="qcurve" smooth="yes"/>
      <point x="41" y="1740"/>
      <point x="68" y="1786"/>
    </contour>
  </outline>
</glyph>
<glyph name="U" format="2">
  <advance width="1415"/>
  <unicode hex="0055"/>
  <outline>
    <contour>
      <point x="848" y="1614" type="qcurve" smooth="yes"/>
      <point x="874" y="1614"/>
      <point x="874" y="1593" type="qcurve" smooth="yes"/>
      <point x="874" y="1578"/>
      <point x="847" y="1554"/>
      <point x="813" y="1538" type="qcurve" smooth="yes"/>
      <point x="795" y="1530"/>
      <point x="752" y="1508"/>
      <point x="707" y="1479"/>
      <point x="663" y="1440"/>
      <point x="643" y="1415" type="qcurve" smooth="yes"/>
      <point x="617" y="1383"/>
      <point x="579" y="1283"/>
      <point x="552" y="1156"/>
      <point x="539" y="1006"/>
      <point x="539" y="924" type="qcurve" smooth="yes"/>
      <point x="539" y="834"/>
      <point x="551" y="657"/>
      <point x="580" y="497"/>
      <point x="628" y="361"/>
      <point x="699" y="261"/>
      <point x="797" y="205"/>
      <point x="862" y="205" type="qcurve" smooth="yes"/>
      <point x="945" y="205"/>
      <point x="1064" y="293"/>
      <point x="1141" y="431"/>
      <point x="1178" y="599"/>
      <point x="1178" y="680" type="qcurve" smooth="yes"/>
      <point x="1178" y="701"/>
      <point x="1177" y="772"/>
      <point x="1174" y="858"/>
      <point x="1167" y="950"/>
      <point x="1153" y="1036"/>
      <point x="1131" y="1107"/>
      <point x="1116" y="1128" type="qcurve" smooth="yes"/>
      <point x="1101" y="1149"/>
      <point x="1061" y="1183"/>
      <point x="1004" y="1211"/>
      <point x="926" y="1231"/>
      <point x="874" y="1239" type="qcurve" smooth="yes"/>
      <point x="832" y="1245"/>
      <point x="788" y="1262"/>
      <point x="788" y="1284" type="qcurve" smooth="yes"/>
      <point x="788" y="1303"/>
      <point x="823" y="1317"/>
      <point x="854" y="1317" type="qcurve" smooth="yes"/>
      <point x="883" y="1317"/>
      <point x="952" y="1309"/>
      <point x="1031" y="1300"/>
      <point x="1119" y="1292"/>
      <point x="1167" y="1292" type="qcurve" smooth="yes"/>
      <point x="1211" y="1292"/>
      <point x="1299" y="1302"/>
      <point x="1380" y="1313"/>
      <point x="1451" y="1323"/>
      <point x="1479" y="1323" type="qcurve" smooth="yes"/>
      <point x="1514" y="1323"/>
      <point x="1538" y="1311"/>
      <point x="1538" y="1300" type="qcurve" smooth="yes"/>
      <point x="1538" y="1288"/>
      <point x="1510" y="1280"/>
      <point x="1487" y="1278" type="qcurve" smooth="yes"/>
      <point x="1463" y="1276"/>
      <point x="1408" y="1272"/>
      <point x="1354" y="1258"/>
      <point x="1307" y="1230"/>
      <point x="1292" y="1204" type="qcurve" smooth="yes"/>
      <point x="1272" y="1171"/>
      <point x="1255" y="1057"/>
      <point x="1249" y="919"/>
      <point x="1249" y="770"/>
      <point x="1245" y="702" type="qcurve" smooth="yes"/>
      <point x="1243" y="662"/>
      <point x="1229" y="539"/>
      <point x="1195" y="402"/>
      <point x="1135" y="265"/>
      <point x="1038" y="155"/>
      <point x="898" y="86"/>
      <point x="801" y="86" type="qcurve" smooth="yes"/>
      <point x="707" y="86"/>
      <point x="553" y="142"/>
      <point x="431" y="244"/>
      <point x="343" y="385"/>
      <point x="315" y="469" type="qcurve" smooth="yes"/>
      <point x="298" y="520"/>
      <point x="277" y="647"/>
      <point x="264" y="787"/>
      <point x="257" y="935"/>
      <point x="256" y="1008" type="qcurve" smooth="yes"/>
      <point x="254" y="1071"/>
      <point x="246" y="1173"/>
      <point x="228" y="1251"/>
      <point x="197" y="1304"/>
      <point x="172" y="1319" type="qcurve" smooth="yes"/>
      <point x="144" y="1336"/>
      <point x="85" y="1350"/>
      <point x="39" y="1350" type="qcurve" smooth="yes"/>
      <point x="0" y="1350"/>
      <point x="0" y="1378" type="qcurve" smooth="yes"/>
      <point x="0" y="1401"/>
      <point x="33" y="1407" type="qcurve" smooth="yes"/>
      <point x="77" y="1414"/>
      <point x="166" y="1426"/>
      <point x="260" y="1440"/>
      <point x="360" y="1457"/>
      <point x="414" y="1470" type="qcurve" smooth="yes"/>
      <point x="511" y="1494"/>
      <point x="657" y="1545"/>
      <point x="762" y="1587"/>
      <point x="829" y="1614"/>
    </contour>
  </outline>
</glyph>
<glyph name="W" format="2">
  <advance width="2294"/>
  <unicode hex="0057"/>
  <outline>
    <contour>
      <point x="586" y="1300" type="qcurve" smooth="yes"/>
      <point x="595" y="1300"/>
      <point x="602" y="1290"/>
      <point x="602" y="1284" type="qcurve" smooth="yes"/>
      <point x="602" y="1272"/>
      <point x="568" y="1228"/>
      <point x="526" y="1169"/>
      <point x="492" y="1101"/>
      <point x="492" y="1067" type="qcurve" smooth="yes"/>
      <point x="492" y="1032"/>
      <point x="510" y="946"/>
      <point x="537" y="855"/>
      <point x="569" y="767"/>
      <point x="584" y="731" type="qcurve" smooth="yes"/>
      <point x="589" y="716"/>
      <point x="615" y="655"/>
      <point x="647" y="581"/>
      <point x="684" y="503"/>
      <point x="718" y="438"/>
      <point x="746" y="397"/>
      <point x="754" y="397" type="qcurve" smooth="yes"/>
      <point x="762" y="397"/>
      <point x="790" y="432"/>
      <point x="827" y="495"/>
      <point x="876" y="580"/>
      <point x="905" y="631" type="qcurve" smooth="yes"/>
      <point x="950" y="710"/>
      <point x="1019" y="836"/>
      <point x="1069" y="924"/>
      <point x="1101" y="971"/>
      <point x="1110" y="971" type="qcurve" smooth="yes"/>
      <point x="1119" y="971"/>
      <point x="1148" y="941"/>
      <point x="1203" y="863"/>
      <point x="1292" y="727"/>
      <point x="1362" y="621" type="qcurve" smooth="yes"/>
      <point x="1373" y="604"/>
      <point x="1414" y="540"/>
      <point x="1464" y="462"/>
      <point x="1519" y="381"/>
      <point x="1568" y="315"/>
      <point x="1607" y="272"/>
      <point x="1616" y="272" type="qcurve" smooth="yes"/>
      <point x="1626" y="272"/>
      <point x="1662" y="325"/>
      <point x="1704" y="402"/>
      <point x="1747" y="488"/>
      <point x="1763" y="522" type="qcurve" smooth="yes"/>
      <point x="1770" y="537"/>
      <point x="1804" y="611"/>
      <point x="1849" y="715"/>
      <point x="1903" y="842"/>
      <point x="1956" y="976"/>
      <point x="2006" y="1111"/>
      <point x="2045" y="1231"/>
      <point x="2068" y="1328"/>
      <point x="2068" y="1358" type="qcurve" smooth="yes"/>
      <point x="2068" y="1384"/>
      <point x="2034" y="1426"/>
      <point x="2003" y="1442" type="qcurve" smooth="yes"/>
      <point x="1956" y="1466"/>
      <point x="1883" y="1497"/>
      <point x="1832" y="1520"/>
      <point x="1806" y="1539"/>
      <point x="1806" y="1552" type="qcurve" smooth="yes"/>
      <point x="1806" y="1563"/>
      <point x="1822" y="1575"/>
      <point x="1833" y="1575" type="qcurve" smooth="yes"/>
      <point x="1848" y="1575"/>
      <point x="1896" y="1558"/>
      <point x="1975" y="1533"/>
      <point x="2094" y="1503"/>
      <point x="2181" y="1491" type="qcurve" smooth="yes"/>
      <point x="2250" y="1482"/>
      <point x="2366" y="1475"/>
      <point x="2417" y="1475" type="qcurve" smooth="yes"/>
      <point x="2448" y="1475"/>
      <point x="2490" y="1477"/>
      <point x="2503" y="1477" type="qcurve" smooth="yes"/>
      <point x="2531" y="1477"/>
      <point x="2552" y="1462"/>
      <point x="2552" y="1450" type="qcurve" smooth="yes"/>
      <point x="2552" y="1438"/>
      <point x="2536" y="1425"/>
      <point x="2513" y="1417"/>
      <point x="2486" y="1415"/>
      <point x="2474" y="1415" type="qcurve" smooth="yes"/>
      <point x="2422" y="1415"/>
      <point x="2349" y="1410"/>
      <point x="2294" y="1395"/>
      <point x="2250" y="1364"/>
      <point x="2228" y="1339" type="qcurve" smooth="yes"/>
      <point x="2205" y="1313"/>
      <point x="2145" y="1206"/>
      <point x="2077" y="1063"/>
      <point x="2002" y="895"/>
      <point x="1927" y="722"/>
      <point x="1853" y="554"/>
      <point x="1819" y="483" type="qcurve" smooth="yes"/>
      <point x="1798" y="439"/>
      <point x="1739" y="308"/>
      <point x="1673" y="162"/>
      <point x="1606" y="17"/>
      <point x="1546" y="-99"/>
      <point x="1500" y="-172"/>
      <point x="1489" y="-172" type="qcurve" smooth="yes"/>
      <point x="1472" y="-172"/>
      <point x="1397" y="-29"/>
      <point x="1335" y="104" type="qcurve" smooth="yes"/>
      <point x="1297" y="187"/>
      <point x="1228" y="346"/>
      <point x="1167" y="487"/>
      <point x="1117" y="605"/>
      <point x="1077" y="691"/>
      <point x="1049" y="739"/>
      <point x="1042" y="739" type="qcurve" smooth="yes"/>
      <point x="1035" y="739"/>
      <point x="1000" y="685"/>
      <point x="953" y="601"/>
      <point x="901" y="499"/>
      <point x="853" y="405"/>
      <point x="815" y="329"/>
      <point x="807" y="313" type="qcurve" smooth="yes"/>
      <point x="657" y="29" type="line" smooth="yes"/>
      <point x="643" y="4"/>
      <point x="624" y="-16"/>
      <point x="614" y="-16" type="qcurve" smooth="yes"/>
      <point x="597" y="-16"/>
      <point x="582" y="20" type="qcurve" smooth="yes"/>
      <point x="570" y="48"/>
      <point x="541" y="122"/>
      <point x="510" y="207"/>
      <point x="477" y="298"/>
      <point x="461" y="342" type="qcurve" smooth="yes"/>
      <point x="432" y="423"/>
      <point x="386" y="576"/>
      <point x="342" y="713"/>
      <point x="296" y="827"/>
      <point x="240" y="910"/>
      <point x="169" y="956"/>
      <point x="123" y="956" type="qcurve" smooth="yes"/>
      <point x="100" y="956"/>
      <point x="57" y="951"/>
      <point x="18" y="945"/>
      <point x="-15" y="940"/>
      <point x="-27" y="940" type="qcurve" smooth="yes"/>
      <point x="-61" y="940"/>
      <point x="-61" y="965" type="qcurve" smooth="yes"/>
      <point x="-61" y="979"/>
      <point x="-43" y="992"/>
      <point x="-29" y="997" type="qcurve" smooth="yes"/>
      <point x="-11" y="1003"/>
      <point x="49" y="1013"/>
      <point x="128" y="1033"/>
      <point x="226" y="1067"/>
      <point x="283" y="1096" type="qcurve" smooth="yes"/>
      <point x="363" y="1136"/>
      <point x="469" y="1210"/>
      <point x="538" y="1267"/>
      <point x="575" y="1300"/>
    </contour>
  </outline>
</glyph>
<glyph name="bracketleft" format="2">
  <advance width="705"/>
  <unicode hex="005B"/>
  <outline>
    <contour>
      <point x="264" y="1667" type="qcurve" smooth="yes"/>
      <point x="293" y="1667"/>
      <point x="373" y="1656"/>
      <point x="466" y="1640"/>
      <point x="570" y="1620"/>
      <point x="623" y="1610" type="qcurve" smooth="yes"/>
      <point x="647" y="1605"/>
      <point x="684" y="1589"/>
      <point x="684" y="1577" type="qcurve" smooth="yes"/>
      <point x="684" y="1563"/>
      <point x="651" y="1563" type="qcurve" smooth="yes"/>
      <point x="627" y="1563"/>
      <point x="578" y="1569"/>
      <point x="530" y="1575"/>
      <point x="487" y="1581"/>
      <point x="469" y="1581" type="qcurve" smooth="yes"/>
      <point x="447" y="1581"/>
      <point x="411" y="1575"/>
      <point x="397" y="1563" type="qcurve" smooth="yes"/>
      <point x="374" y="1543"/>
      <point x="339" y="1414"/>
      <point x="312" y="1214"/>
      <point x="293" y="951"/>
      <point x="287" y="795" type="qcurve" smooth="yes"/>
      <point x="283" y="712"/>
      <point x="276" y="541"/>
      <point x="271" y="374"/>
      <point x="268" y="214"/>
      <point x="268" y="141" type="qcurve" smooth="yes"/>
      <point x="268" y="68"/>
      <point x="272" y="-58"/>
      <point x="281" y="-159"/>
      <point x="294" y="-232"/>
      <point x="303" y="-250" type="qcurve" smooth="yes"/>
      <point x="315" y="-274"/>
      <point x="355" y="-303"/>
      <point x="404" y="-319"/>
      <point x="460" y="-324"/>
      <point x="489" y="-324" type="qcurve" smooth="yes"/>
      <point x="499" y="-324"/>
      <point x="524" y="-323"/>
      <point x="549" y="-323"/>
      <point x="572" y="-322"/>
      <point x="580" y="-322" type="qcurve" smooth="yes"/>
      <point x="622" y="-322"/>
      <point x="657" y="-343"/>
      <point x="657" y="-360" type="qcurve" smooth="yes"/>
      <point x="657" y="-374"/>
      <point x="622" y="-392"/>
      <point x="559" y="-402"/>
      <point x="474" y="-406"/>
      <point x="424" y="-406" type="qcurve" smooth="yes"/>
      <point x="377" y="-406"/>
      <point x="292" y="-402"/>
      <point x="266" y="-399" type="qcurve" smooth="yes"/>
      <point x="229" y="-395"/>
      <point x="154" y="-383"/>
      <point x="90" y="-362"/>
      <point x="44" y="-327"/>
      <point x="37" y="-299" type="qcurve" smooth="yes"/>
      <point x="29" y="-274"/>
      <point x="23" y="-180"/>
      <point x="23" y="-115" type="qcurve" smooth="yes"/>
      <point x="23" y="0"/>
      <point x="39" y="306"/>
      <point x="51" y="473" type="qcurve" smooth="yes"/>
      <point x="57" y="555"/>
      <point x="75" y="754"/>
      <point x="97" y="962"/>
      <point x="121" y="1166"/>
      <point x="143" y="1341"/>
      <point x="162" y="1474"/>
      <point x="168" y="1507" type="qcurve" smooth="yes"/>
      <point x="176" y="1553"/>
      <point x="194" y="1615"/>
      <point x="216" y="1652"/>
      <point x="245" y="1667"/>
    </contour>
  </outline>
</glyph>
<glyph name="c" format="2">
  <advance width="897"/>
  <unicode hex="0063"/>
  <outline>
    <contour>
      <point x="676" y="881" type="qcurve" smooth="yes"/>
      <point x="644" y="881"/>
      <point x="589" y="901"/>
      <point x="549" y="942"/>
      <point x="526" y="1005"/>
      <point x="526" y="1047" type="qcurve" smooth="yes"/>
      <point x="526" y="1077"/>
      <point x="519" y="1133"/>
      <point x="497" y="1177"/>
      <point x="456" y="1204"/>
      <point x="422" y="1204" type="qcurve" smooth="yes"/>
      <point x="381" y="1204"/>
      <point x="301" y="1153"/>
      <point x="237" y="1051"/>
      <point x="197" y="899"/>
      <point x="197" y="799" type="qcurve" smooth="yes"/>
      <point x="197" y="677"/>
      <point x="246" y="486"/>
      <point x="339" y="353"/>
      <point x="473" y="283"/>
      <point x="557" y="283" type="qcurve" smooth="yes"/>
      <point x="612" y="283"/>
      <point x="699" y="321"/>
      <point x="757" y="385"/>
      <point x="788" y="472"/>
      <point x="788" y="520" type="qcurve" smooth="yes"/>
      <point x="788" y="571"/>
      <point x="763" y="641"/>
      <point x="734" y="690"/>
      <point x="709" y="723"/>
      <point x="709" y="735" type="qcurve" smooth="yes"/>
      <point x="709" y="750"/>
      <point x="725" y="750" type="qcurve" smooth="yes"/>
      <point x="740" y="750"/>
      <point x="787" y="718"/>
      <point x="832" y="657"/>
      <point x="864" y="569"/>
      <point x="864" y="514" type="qcurve" smooth="yes"/>
      <point x="864" y="424"/>
      <point x="805" y="285"/>
      <point x="701" y="190"/>
      <point x="557" y="141"/>
      <point x="473" y="141" type="qcurve" smooth="yes"/>
      <point x="375" y="141"/>
      <point x="213" y="215"/>
      <point x="96" y="354"/>
      <point x="31" y="553"/>
      <point x="31" y="678" type="qcurve" smooth="yes"/>
      <point x="31" y="738"/>
      <point x="53" y="856"/>
      <point x="91" y="963"/>
      <point x="141" y="1055"/>
      <point x="170" y="1090" type="qcurve" smooth="yes"/>
      <point x="213" y="1142"/>
      <point x="303" y="1213"/>
      <point x="396" y="1256"/>
      <point x="495" y="1274"/>
      <point x="547" y="1274" type="qcurve" smooth="yes"/>
      <point x="604" y="1274"/>
      <point x="704" y="1242"/>
      <point x="777" y="1184"/>
      <point x="819" y="1103"/>
      <point x="819" y="1053" type="qcurve" smooth="yes"/>
      <point x="819" y="1005"/>
      <point x="793" y="940"/>
      <point x="751" y="899"/>
      <point x="700" y="881"/>
    </contour>
  </outline>
</glyph>
<glyph name="g" format="2">
  <advance width="1163"/>
  <unicode hex="0067"/>
  <outline>
    <contour>
      <point x="995" y="1214" type="qcurve" smooth="yes"/>
      <point x="1046" y="1214"/>
      <point x="1128" y="1183"/>
      <point x="1186" y="1129"/>
      <point x="1217" y="1057"/>
      <point x="1217" y="1016" type="qcurve" smooth="yes"/>
      <point x="1217" y="935"/>
      <point x="1140" y="846"/>
      <point x="1075" y="846" type="qcurve" smooth="yes"/>
      <point x="1048" y="846"/>
      <point x="1002" y="862"/>
      <point x="968" y="894"/>
      <point x="948" y="940"/>
      <point x="948" y="969" type="qcurve" smooth="yes"/>
      <point x="948" y="1001"/>
      <point x="965" y="1052"/>
      <point x="965" y="1077" type="qcurve" smooth="yes"/>
      <point x="965" y="1111"/>
      <point x="925" y="1137"/>
      <point x="899" y="1137" type="qcurve" smooth="yes"/>
      <point x="865" y="1137"/>
      <point x="796" y="1091"/>
      <point x="774" y="1053" type="qcurve" smooth="yes"/>
      <point x="765" y="1036"/>
      <point x="752" y="999"/>
      <point x="752" y="985" type="qcurve" smooth="yes"/>
      <point x="752" y="977"/>
      <point x="770" y="958"/>
      <point x="799" y="934"/>
      <point x="836" y="903"/>
      <point x="854" y="883" type="qcurve" smooth="yes"/>
      <point x="886" y="848"/>
      <point x="938" y="742"/>
      <point x="938" y="670" type="qcurve" smooth="yes"/>
      <point x="938" y="590"/>
      <point x="902" y="471"/>
      <point x="839" y="384"/>
      <point x="755" y="327"/>
      <point x="658" y="293"/>
      <point x="553" y="279"/>
      <point x="502" y="279" type="qcurve" smooth="yes"/>
      <point x="463" y="279" type="line"/>
      <point x="398" y="268"/>
      <point x="317" y="208"/>
      <point x="317" y="160" type="qcurve" smooth="yes"/>
      <point x="317" y="129"/>
      <point x="357" y="87"/>
      <point x="424" y="58"/>
      <point x="512" y="41"/>
      <point x="607" y="28"/>
      <point x="702" y="16"/>
      <point x="743" y="8" type="qcurve" smooth="yes"/>
      <point x="812" y="-6"/>
      <point x="941" y="-52"/>
      <point x="1040" y="-129"/>
      <point x="1100" y="-245"/>
      <point x="1100" y="-328" type="qcurve" smooth="yes"/>
      <point x="1100" y="-393"/>
      <point x="1056" y="-506"/>
      <point x="978" y="-601"/>
      <point x="872" y="-679"/>
      <point x="811" y="-707" type="qcurve" smooth="yes"/>
      <point x="731" y="-744"/>
      <point x="541" y="-782"/>
      <point x="438" y="-782" type="qcurve" smooth="yes"/>
      <point x="342" y="-782"/>
      <point x="174" y="-740"/>
      <point x="49" y="-653"/>
      <point x="-23" y="-521"/>
      <point x="-23" y="-432" type="qcurve" smooth="yes"/>
      <point x="-23" y="-359"/>
      <point x="25" y="-241"/>
      <point x="100" y="-148"/>
      <point x="193" y="-78"/>
      <point x="282" y="-28"/>
      <point x="358" y="4"/>
      <point x="379" y="12" type="qcurve"/>
      <point x="344" y="16"/>
      <point x="273" y="36"/>
      <point x="216" y="70"/>
      <point x="180" y="123"/>
      <point x="180" y="160" type="qcurve" smooth="yes"/>
      <point x="180" y="209"/>
      <point x="265" y="278"/>
      <point x="342" y="297" type="qcurve"/>
      <point x="285" y="312"/>
      <point x="187" y="369"/>
      <point x="115" y="453"/>
      <point x="74" y="567"/>
      <point x="74" y="639" type="qcurve" smooth="yes"/>
      <point x="74" y="728"/>
      <point x="137" y="868"/>
      <point x="245" y="965"/>
      <point x="391" y="1016"/>
      <point x="475" y="1016" type="qcurve" smooth="yes"/>
      <point x="500" y="1016"/>
      <point x="552" y="1011"/>
      <point x="598" y="1004"/>
      <point x="637" y="999"/>
      <point x="649" y="999" type="qcurve" smooth="yes"/>
      <point x="674" y="999"/>
      <point x="707" y="1013"/>
      <point x="721" y="1036" type="qcurve" smooth="yes"/>
      <point x="741" y="1068"/>
      <point x="789" y="1132"/>
      <point x="853" y="1183"/>
      <point x="938" y="1214"/>
    </contour>
    <contour>
      <point x="545" y="956" type="qcurve" smooth="yes"/>
      <point x="507" y="956"/>
      <point x="432" y="921"/>
      <point x="373" y="840"/>
      <point x="336" y="710"/>
      <point x="336" y="616" type="qcurve" smooth="yes"/>
      <point x="336" y="539"/>
      <point x="369" y="430"/>
      <point x="422" y="359"/>
      <point x="488" y="326"/>
      <point x="520" y="326" type="qcurve" smooth="yes"/>
      <point x="548" y="326"/>
      <point x="620" y="353"/>
      <point x="684" y="429"/>
      <point x="729" y="563"/>
      <point x="729" y="670" type="qcurve" smooth="yes"/>
      <point x="729" y="812"/>
      <point x="630" y="956"/>
    </contour>
    <contour>
      <point x="231" y="-369" type="qcurve" smooth="yes"/>
      <point x="231" y="-442"/>
      <point x="274" y="-569"/>
      <point x="358" y="-664"/>
      <point x="480" y="-719"/>
      <point x="559" y="-719" type="qcurve" smooth="yes"/>
      <point x="649" y="-719"/>
      <point x="779" y="-662"/>
      <point x="863" y="-569"/>
      <point x="903" y="-448"/>
      <point x="903" y="-383" type="qcurve" smooth="yes"/>
      <point x="903" y="-320"/>
      <point x="871" y="-209"/>
      <point x="805" y="-119"/>
      <point x="701" y="-52"/>
      <point x="629" y="-33" type="qcurve" smooth="yes"/>
      <point x="582" y="-20"/>
      <point x="496" y="-7"/>
      <point x="461" y="-4" type="qcurve"/>
      <point x="426" y="-25"/>
      <point x="345" y="-92"/>
      <point x="276" y="-183"/>
      <point x="231" y="-299"/>
    </contour>
  </outline>
</glyph>
<glyph name="i" format="2">
  <advance width="618"/>
  <unicode hex="0069"/>
  <outline>
    <contour>
      <point x="317" y="1604" type="qcurve" smooth="yes"/>
      <point x="376" y="1604"/>
      <point x="446" y="1542"/>
      <point x="446" y="1485" type="qcurve" smooth="yes"/>
      <point x="446" y="1447"/>
      <point x="422" y="1396"/>
      <point x="384" y="1365"/>
      <point x="339" y="1352"/>
      <point x="317" y="1352" type="qcurve" smooth="yes"/>
      <point x="298" y="1352"/>
      <point x="256" y="1364"/>
      <point x="220" y="1393"/>
      <point x="197" y="1440"/>
      <point x="197" y="1475" type="qcurve" smooth="yes"/>
      <point x="197" y="1512"/>
      <point x="221" y="1561"/>
      <point x="257" y="1591"/>
      <point x="299" y="1604"/>
    </contour>
    <contour>
      <point x="459" y="1276" type="qcurve" smooth="yes"/>
      <point x="469" y="1276"/>
      <point x="469" y="1253" type="qcurve" smooth="yes"/>
      <point x="469" y="1238"/>
      <point x="462" y="1169"/>
      <point x="457" y="1130" type="qcurve" smooth="yes"/>
      <point x="449" y="1068"/>
      <point x="433" y="917"/>
      <point x="418" y="758"/>
      <point x="405" y="602"/>
      <point x="395" y="469"/>
      <point x="389" y="368"/>
      <point x="389" y="344" type="qcurve" smooth="yes"/>
      <point x="389" y="313"/>
      <point x="397" y="273"/>
      <point x="409" y="247"/>
      <point x="424" y="231"/>
      <point x="432" y="225" type="qcurve" smooth="yes"/>
      <point x="441" y="219"/>
      <point x="467" y="209"/>
      <point x="497" y="200"/>
      <point x="528" y="194"/>
      <point x="541" y="193" type="qcurve" smooth="yes"/>
      <point x="562" y="189"/>
      <point x="588" y="185"/>
      <point x="588" y="174" type="qcurve" smooth="yes"/>
      <point x="588" y="154"/>
      <point x="545" y="154" type="qcurve" smooth="yes"/>
      <point x="515" y="154"/>
      <point x="455" y="163"/>
      <point x="392" y="175"/>
      <point x="324" y="184"/>
      <point x="285" y="184" type="qcurve" smooth="yes"/>
      <point x="249" y="184"/>
      <point x="191" y="180"/>
      <point x="143" y="174"/>
      <point x="101" y="170"/>
      <point x="80" y="170" type="qcurve" smooth="yes"/>
      <point x="63" y="170"/>
      <point x="35" y="179"/>
      <point x="35" y="193" type="qcurve" smooth="yes"/>
      <point x="35" y="207"/>
      <point x="66" y="218"/>
      <point x="82" y="221" type="qcurve" smooth="yes"/>
      <point x="102" y="225"/>
      <point x="140" y="235"/>
      <point x="171" y="256"/>
      <point x="192" y="291"/>
      <point x="195" y="319" type="qcurve" smooth="yes"/>
      <point x="199" y="374"/>
      <point x="203" y="488"/>
      <point x="205" y="599"/>
      <point x="205" y="704"/>
      <point x="205" y="750" type="qcurve" smooth="yes"/>
      <point x="205" y="805"/>
      <point x="205" y="896"/>
      <point x="203" y="928" type="qcurve" smooth="yes"/>
      <point x="201" y="979"/>
      <point x="182" y="1037"/>
      <point x="147" y="1065"/>
      <point x="93" y="1074"/>
      <point x="55" y="1077" type="qcurve" smooth="yes"/>
      <point x="44" y="1079"/>
      <point x="31" y="1089"/>
      <point x="31" y="1100" type="qcurve" smooth="yes"/>
      <point x="31" y="1119"/>
      <point x="61" y="1122" type="qcurve" smooth="yes"/>
      <point x="76" y="1123"/>
      <point x="122" y="1128"/>
      <point x="183" y="1138"/>
      <point x="255" y="1157"/>
      <point x="295" y="1174" type="qcurve" smooth="yes"/>
      <point x="339" y="1192"/>
      <point x="396" y="1228"/>
      <point x="432" y="1257"/>
      <point x="452" y="1276"/>
    </contour>
  </outline>
</glyph>
<glyph name="j" format="2">
  <advance width="752"/>
  <unicode hex="006A"/>
  <outline>
    <contour>
      <point x="426" y="1313" type="qcurve" smooth="yes"/>
      <point x="451" y="1313"/>
      <point x="495" y="1296"/>
      <point x="528" y="1264"/>
      <point x="547" y="1217"/>
      <point x="547" y="1188" type="qcurve" smooth="yes"/>
      <point x="547" y="1165"/>
      <point x="531" y="1121"/>
      <point x="499" y="1085"/>
      <point x="453" y="1063"/>
      <point x="422" y="1063" type="qcurve" smooth="yes"/>
      <point x="399" y="1063"/>
      <point x="356" y="1079"/>
      <point x="323" y="1109"/>
      <point x="303" y="1153"/>
      <point x="303" y="1182" type="qcurve" smooth="yes"/>
      <point x="303" y="1217"/>
      <point x="325" y="1267"/>
      <point x="360" y="1298"/>
      <point x="404" y="1313"/>
    </contour>
    <contour>
      <point x="573" y="940" type="qcurve" smooth="yes"/>
      <point x="585" y="940"/>
      <point x="604" y="924"/>
      <point x="622" y="881"/>
      <point x="639" y="807"/>
      <point x="649" y="750" type="qcurve" smooth="yes"/>
      <point x="664" y="667"/>
      <point x="686" y="490"/>
      <point x="701" y="312"/>
      <point x="709" y="138"/>
      <point x="709" y="57" type="qcurve" smooth="yes"/>
      <point x="709" y="-146"/>
      <point x="666" y="-465"/>
      <point x="588" y="-706"/>
      <point x="481" y="-875"/>
      <point x="354" y="-980"/>
      <point x="211" y="-1028"/>
      <point x="137" y="-1028" type="qcurve" smooth="yes"/>
      <point x="41" y="-1028"/>
      <point x="-97" y="-965"/>
      <point x="-187" y="-860"/>
      <point x="-229" y="-725"/>
      <point x="-229" y="-653" type="qcurve" smooth="yes"/>
      <point x="-229" y="-567"/>
      <point x="-182" y="-437"/>
      <point x="-105" y="-349"/>
      <point x="-6" y="-305"/>
      <point x="45" y="-305" type="qcurve" smooth="yes"/>
      <point x="90" y="-305"/>
      <point x="154" y="-332"/>
      <point x="193" y="-375"/>
      <point x="211" y="-429"/>
      <point x="211" y="-457" type="qcurve" smooth="yes"/>
      <point x="211" y="-495"/>
      <point x="189" y="-549"/>
      <point x="150" y="-587"/>
      <point x="99" y="-610"/>
      <point x="70" y="-616" type="qcurve" smooth="yes"/>
      <point x="23" y="-626"/>
      <point x="-48" y="-651"/>
      <point x="-95" y="-689"/>
      <point x="-119" y="-742"/>
      <point x="-119" y="-780" type="qcurve" smooth="yes"/>
      <point x="-119" y="-820"/>
      <point x="-83" y="-892"/>
      <point x="-18" y="-947"/>
      <point x="73" y="-979"/>
      <point x="129" y="-979" type="qcurve" smooth="yes"/>
      <point x="240" y="-979"/>
      <point x="394" y="-867"/>
      <point x="490" y="-668"/>
      <point x="532" y="-393"/>
      <point x="532" y="-231" type="qcurve" smooth="yes"/>
      <point x="532" y="-73"/>
      <point x="505" y="200"/>
      <point x="464" y="422"/>
      <point x="414" y="587"/>
      <point x="391" y="637" type="qcurve" smooth="yes"/>
      <point x="365" y="696"/>
      <point x="282" y="789"/>
      <point x="225" y="817" type="qcurve" smooth="yes"/>
      <point x="185" y="837"/>
      <point x="104" y="862"/>
      <point x="76" y="870" type="qcurve" smooth="yes"/>
      <point x="47" y="880"/>
      <point x="47" y="893" type="qcurve" smooth="yes"/>
      <point x="47" y="909"/>
      <point x="70" y="909" type="qcurve" smooth="yes"/>
      <point x="79" y="909"/>
      <point x="119" y="905"/>
      <point x="175" y="899"/>
      <point x="246" y="895"/>
      <point x="285" y="895" type="qcurve" smooth="yes"/>
      <point x="346" y="895"/>
      <point x="438" y="909"/>
      <point x="506" y="926"/>
      <point x="555" y="940"/>
    </contour>
  </outline>
</glyph>
<glyph name="k" format="2">
  <advance width="1163"/>
  <unicode hex="006B"/>
  <outline>
    <contour>
      <point x="352" y="-223" type="qcurve" smooth="yes"/>
      <point x="301" y="-223"/>
      <point x="195" y="-231"/>
      <point x="98" y="-242"/>
      <point x="18" y="-250"/>
      <point x="-8" y="-250" type="qcurve" smooth="yes"/>
      <point x="-28" y="-250"/>
      <point x="-43" y="-236"/>
      <point x="-43" y="-225" type="qcurve" smooth="yes"/>
      <point x="-43" y="-201"/>
      <point x="-8" y="-201" type="qcurve" smooth="yes"/>
      <point x="35" y="-201"/>
      <point x="93" y="-188"/>
      <point x="115" y="-180" type="qcurve" smooth="yes"/>
      <point x="160" y="-163"/>
      <point x="210" y="-97"/>
      <point x="232" y="-15"/>
      <point x="236" y="77"/>
      <point x="236" y="119" type="qcurve" smooth="yes"/>
      <point x="236" y="177"/>
      <point x="235" y="316"/>
      <point x="232" y="465"/>
      <point x="230" y="616"/>
      <point x="227" y="757"/>
      <point x="224" y="880"/>
      <point x="223" y="926" type="qcurve" smooth="yes"/>
      <point x="222" y="984"/>
      <point x="220" y="1120"/>
      <point x="217" y="1261"/>
      <point x="214" y="1401"/>
      <point x="209" y="1523"/>
      <point x="203" y="1620"/>
      <point x="199" y="1649" type="qcurve" smooth="yes"/>
      <point x="193" y="1690"/>
      <point x="163" y="1740"/>
      <point x="124" y="1767"/>
      <point x="77" y="1776"/>
      <point x="53" y="1776" type="qcurve" smooth="yes"/>
      <point x="18" y="1776"/>
      <point x="-60" y="1765"/>
      <point x="-92" y="1765" type="qcurve" smooth="yes"/>
      <point x="-118" y="1765"/>
      <point x="-141" y="1778"/>
      <point x="-141" y="1792" type="qcurve" smooth="yes"/>
      <point x="-141" y="1804"/>
      <point x="-123" y="1818"/>
      <point x="-111" y="1821" type="qcurve" smooth="yes"/>
      <point x="-59" y="1832"/>
      <point x="28" y="1854"/>
      <point x="102" y="1879"/>
      <point x="167" y="1909"/>
      <point x="199" y="1929" type="qcurve" smooth="yes"/>
      <point x="234" y="1951"/>
      <point x="283" y="1999"/>
      <point x="318" y="2037"/>
      <point x="343" y="2062"/>
      <point x="354" y="2062" type="qcurve" smooth="yes"/>
      <point x="368" y="2062"/>
      <point x="377" y="2035"/>
      <point x="377" y="2021" type="qcurve" smooth="yes"/>
      <point x="377" y="2005"/>
      <point x="375" y="1952"/>
      <point x="373" y="1890"/>
      <point x="371" y="1827"/>
      <point x="371" y="1802" type="qcurve" smooth="yes"/>
      <point x="371" y="1763"/>
      <point x="374" y="1627"/>
      <point x="379" y="1456"/>
      <point x="385" y="1262"/>
      <point x="392" y="1068"/>
      <point x="399" y="885"/>
      <point x="406" y="736"/>
      <point x="412" y="633"/>
      <point x="414" y="616" type="qcurve"/>
      <point x="454" y="658"/>
      <point x="516" y="720"/>
      <point x="568" y="777"/>
      <point x="619" y="836"/>
      <point x="649" y="874" type="qcurve" smooth="yes"/>
      <point x="666" y="897"/>
      <point x="682" y="935"/>
      <point x="682" y="952" type="qcurve" smooth="yes"/>
      <point x="682" y="992"/>
      <point x="639" y="1014" type="qcurve" smooth="yes"/>
      <point x="557" y="1053" type="line" smooth="yes"/>
      <point x="537" y="1064"/>
      <point x="537" y="1081" type="qcurve" smooth="yes"/>
      <point x="537" y="1091"/>
      <point x="547" y="1106"/>
      <point x="561" y="1106" type="qcurve" smooth="yes"/>
      <point x="573" y="1106"/>
      <point x="603" y="1090"/>
      <point x="651" y="1068"/>
      <point x="719" y="1042"/>
      <point x="768" y="1032" type="qcurve" smooth="yes"/>
      <point x="787" y="1028"/>
      <point x="840" y="1022"/>
      <point x="896" y="1017"/>
      <point x="949" y="1014"/>
      <point x="967" y="1014" type="qcurve" smooth="yes"/>
      <point x="988" y="1014"/>
      <point x="1012" y="1003"/>
      <point x="1012" y="989" type="qcurve" smooth="yes"/>
      <point x="1012" y="978"/>
      <point x="990" y="963"/>
      <point x="963" y="963" type="qcurve" smooth="yes"/>
      <point x="937" y="963"/>
      <point x="886" y="959"/>
      <point x="836" y="947"/>
      <point x="786" y="923"/>
      <point x="760" y="903" type="qcurve" smooth="yes"/>
      <point x="744" y="891"/>
      <point x="701" y="852"/>
      <point x="658" y="807"/>
      <point x="618" y="760"/>
      <point x="604" y="739" type="qcurve"/>
      <point x="607" y="717"/>
      <point x="630" y="620"/>
      <point x="670" y="499"/>
      <point x="729" y="370"/>
      <point x="805" y="264"/>
      <point x="901" y="195"/>
      <point x="958" y="195" type="qcurve" smooth="yes"/>
      <point x="1011" y="195"/>
      <point x="1075" y="271"/>
      <point x="1075" y="334" type="qcurve" smooth="yes"/>
      <point x="1075" y="361"/>
      <point x="1061" y="412"/>
      <point x="1039" y="458"/>
      <point x="1009" y="497"/>
      <point x="993" y="512" type="qcurve" smooth="yes"/>
      <point x="981" y="524"/>
      <point x="956" y="543"/>
      <point x="956" y="549" type="qcurve" smooth="yes"/>
      <point x="956" y="557"/>
      <point x="967" y="557" type="qcurve" smooth="yes"/>
      <point x="979" y="557"/>
      <point x="1022" y="532"/>
      <point x="1040" y="516" type="qcurve" smooth="yes"/>
      <point x="1060" y="500"/>
      <point x="1097" y="455"/>
      <point x="1126" y="397"/>
      <point x="1143" y="326"/>
      <point x="1143" y="283" type="qcurve" smooth="yes"/>
      <point x="1143" y="252"/>
      <point x="1124" y="168"/>
      <point x="1075" y="91"/>
      <point x="987" y="37"/>
      <point x="918" y="37" type="qcurve" smooth="yes"/>
      <point x="825" y="37"/>
      <point x="680" y="124"/>
      <point x="569" y="274"/>
      <point x="489" y="474"/>
      <point x="461" y="586" type="qcurve"/>
      <point x="420" y="541" type="line"/>
      <point x="422" y="492"/>
      <point x="429" y="378"/>
      <point x="439" y="263"/>
      <point x="449" y="153"/>
      <point x="458" y="61"/>
      <point x="466" y="-6"/>
      <point x="469" y="-20" type="qcurve" smooth="yes"/>
      <point x="475" y="-53"/>
      <point x="494" y="-105"/>
      <point x="526" y="-141"/>
      <point x="576" y="-160"/>
      <point x="614" y="-160" type="qcurve" smooth="yes"/>
      <point x="631" y="-160"/>
      <point x="670" y="-158"/>
      <point x="688" y="-158" type="qcurve" smooth="yes"/>
      <point x="701" y="-158"/>
      <point x="727" y="-161"/>
      <point x="747" y="-169"/>
      <point x="760" y="-183"/>
      <point x="760" y="-195" type="qcurve" smooth="yes"/>
      <point x="760" y="-213"/>
      <point x="723" y="-240"/>
      <point x="668" y="-240" type="qcurve" smooth="yes"/>
      <point x="640" y="-240"/>
      <point x="585" y="-235"/>
      <point x="514" y="-228"/>
      <point x="419" y="-223"/>
    </contour>
  </outline>
</glyph>
<glyph name="m" format="2">
  <advance width="1450"/>
  <unicode hex="006D"/>
  <outline>
    <contour>
      <point x="78" y="303" type="qcurve" smooth="yes"/>
      <point x="78" y="316"/>
      <point x="101" y="329"/>
      <point x="136" y="336"/>
      <point x="178" y="341"/>
      <point x="197" y="346" type="qcurve" smooth="yes"/>
      <point x="222" y="353"/>
      <point x="264" y="399"/>
      <point x="264" y="446" type="qcurve" smooth="yes"/>
      <point x="264" y="495"/>
      <point x="255" y="604"/>
      <point x="241" y="706"/>
      <point x="222" y="794"/>
      <point x="213" y="823" type="qcurve" smooth="yes"/>
      <point x="202" y="857"/>
      <point x="159" y="899"/>
      <point x="113" y="899" type="qcurve" smooth="yes"/>
      <point x="99" y="899"/>
      <point x="74" y="897"/>
      <point x="66" y="897" type="qcurve" smooth="yes"/>
      <point x="47" y="897"/>
      <point x="31" y="910"/>
      <point x="31" y="920" type="qcurve" smooth="yes"/>
      <point x="31" y="934"/>
      <point x="56" y="945"/>
      <point x="103" y="954"/>
      <point x="172" y="970"/>
      <point x="217" y="989" type="qcurve" smooth="yes"/>
      <point x="260" y="1007"/>
      <point x="314" y="1042"/>
      <point x="347" y="1069"/>
      <point x="365" y="1085"/>
      <point x="371" y="1085" type="qcurve" smooth="yes"/>
      <point x="379" y="1085"/>
      <point x="394" y="1030"/>
      <point x="406" y="948"/>
      <point x="416" y="850"/>
      <point x="420" y="807" type="qcurve"/>
      <point x="428" y="825"/>
      <point x="467" y="884"/>
      <point x="527" y="940"/>
      <point x="608" y="981"/>
      <point x="659" y="981" type="qcurve" smooth="yes"/>
      <point x="704" y="981"/>
      <point x="773" y="952"/>
      <point x="821" y="907"/>
      <point x="851" y="849"/>
      <point x="858" y="821" type="qcurve"/>
      <point x="877" y="855"/>
      <point x="927" y="915"/>
      <point x="989" y="958"/>
      <point x="1064" y="983"/>
      <point x="1108" y="983" type="qcurve" smooth="yes"/>
      <point x="1172" y="983"/>
      <point x="1254" y="937"/>
      <point x="1301" y="861"/>
      <point x="1319" y="765"/>
      <point x="1319" y="715" type="qcurve" smooth="yes"/>
      <point x="1319" y="674"/>
      <point x="1312" y="587"/>
      <point x="1305" y="503"/>
      <point x="1298" y="426"/>
      <point x="1298" y="395" type="qcurve" smooth="yes"/>
      <point x="1298" y="364"/>
      <point x="1308" y="308"/>
      <point x="1319" y="285" type="qcurve" smooth="yes"/>
      <point x="1331" y="258"/>
      <point x="1366" y="228"/>
      <point x="1397" y="209"/>
      <point x="1419" y="193"/>
      <point x="1419" y="180" type="qcurve" smooth="yes"/>
      <point x="1419" y="171"/>
      <point x="1403" y="160"/>
      <point x="1389" y="160" type="qcurve" smooth="yes"/>
      <point x="1371" y="160"/>
      <point x="1317" y="187"/>
      <point x="1257" y="225"/>
      <point x="1195" y="264"/>
      <point x="1169" y="276" type="qcurve" smooth="yes"/>
      <point x="1128" y="296"/>
      <point x="1061" y="317"/>
      <point x="1013" y="332"/>
      <point x="987" y="345"/>
      <point x="987" y="358" type="qcurve" smooth="yes"/>
      <point x="987" y="369"/>
      <point x="1005" y="380"/>
      <point x="1022" y="385" type="qcurve" smooth="yes"/>
      <point x="1044" y="391"/>
      <point x="1078" y="428"/>
      <point x="1087" y="459" type="qcurve" smooth="yes"/>
      <point x="1092" y="474"/>
      <point x="1102" y="520"/>
      <point x="1109" y="573"/>
      <point x="1114" y="630"/>
      <point x="1114" y="657" type="qcurve" smooth="yes"/>
      <point x="1114" y="686"/>
      <point x="1108" y="758"/>
      <point x="1085" y="821"/>
      <point x="1040" y="864"/>
      <point x="1001" y="864" type="qcurve" smooth="yes"/>
      <point x="975" y="864"/>
      <point x="936" y="846"/>
      <point x="908" y="819"/>
      <point x="889" y="788"/>
      <point x="883" y="774" type="qcurve" smooth="yes"/>
      <point x="864" y="731"/>
      <point x="848" y="607"/>
      <point x="848" y="547" type="qcurve" smooth="yes"/>
      <point x="848" y="488"/>
      <point x="888" y="417"/>
      <point x="922" y="401" type="qcurve" smooth="yes"/>
      <point x="930" y="398"/>
      <point x="944" y="387"/>
      <point x="944" y="379" type="qcurve" smooth="yes"/>
      <point x="944" y="358"/>
      <point x="913" y="358" type="qcurve" smooth="yes"/>
      <point x="895" y="358"/>
      <point x="845" y="369"/>
      <point x="785" y="382"/>
      <point x="719" y="393"/>
      <point x="686" y="393" type="qcurve" smooth="yes"/>
      <point x="661" y="393"/>
      <point x="626" y="389"/>
      <point x="598" y="389" type="qcurve" smooth="yes"/>
      <point x="573" y="389"/>
      <point x="545" y="398"/>
      <point x="545" y="408" type="qcurve" smooth="yes"/>
      <point x="545" y="414"/>
      <point x="555" y="420"/>
      <point x="572" y="423"/>
      <point x="593" y="427"/>
      <point x="604" y="432" type="qcurve" smooth="yes"/>
      <point x="626" y="441"/>
      <point x="654" y="485"/>
      <point x="669" y="546"/>
      <point x="674" y="621"/>
      <point x="674" y="662" type="qcurve" smooth="yes"/>
      <point x="674" y="691"/>
      <point x="669" y="763"/>
      <point x="647" y="827"/>
      <point x="602" y="870"/>
      <point x="563" y="870" type="qcurve" smooth="yes"/>
      <point x="540" y="870"/>
      <point x="503" y="851"/>
      <point x="473" y="819"/>
      <point x="452" y="780"/>
      <point x="446" y="760" type="qcurve" smooth="yes"/>
      <point x="440" y="740"/>
      <point x="422" y="630"/>
      <point x="422" y="539" type="qcurve" smooth="yes"/>
      <point x="422" y="469"/>
      <point x="442" y="363"/>
      <point x="473" y="340" type="qcurve" smooth="yes"/>
      <point x="493" y="325"/>
      <point x="538" y="313"/>
      <point x="577" y="305"/>
      <point x="602" y="296"/>
      <point x="602" y="285" type="qcurve" smooth="yes"/>
      <point x="602" y="277"/>
      <point x="581" y="266"/>
      <point x="553" y="266" type="qcurve" smooth="yes"/>
      <point x="537" y="266"/>
      <point x="484" y="273"/>
      <point x="423" y="282"/>
      <point x="360" y="289"/>
      <point x="334" y="289" type="qcurve" smooth="yes"/>
      <point x="307" y="289"/>
      <point x="261" y="286"/>
      <point x="215" y="282"/>
      <point x="167" y="279"/>
      <point x="139" y="279" type="qcurve" smooth="yes"/>
      <point x="118" y="279"/>
      <point x="93" y="284"/>
      <point x="81" y="292"/>
      <point x="78" y="300"/>
    </contour>
  </outline>
</glyph>
<glyph name="o" format="2">
  <advance width="1032"/>
  <unicode hex="006F"/>
  <outline>
    <contour>
      <point x="43" y="614" type="qcurve" smooth="yes"/>
      <point x="43" y="726"/>
      <point x="113" y="907"/>
      <point x="241" y="1035"/>
      <point x="422" y="1104"/>
      <point x="532" y="1104" type="qcurve" smooth="yes"/>
      <point x="631" y="1104"/>
      <point x="798" y="1038"/>
      <point x="920" y="915"/>
      <point x="989" y="740"/>
      <point x="989" y="631" type="qcurve" smooth="yes"/>
      <point x="989" y="502"/>
      <point x="904" y="318"/>
      <point x="771" y="200"/>
      <point x="607" y="145"/>
      <point x="528" y="145" type="qcurve" smooth="yes"/>
      <point x="433" y="145"/>
      <point x="258" y="208"/>
      <point x="124" y="328"/>
      <point x="43" y="503"/>
    </contour>
    <contour>
      <point x="518" y="1065" type="qcurve" smooth="yes"/>
      <point x="461" y="1065"/>
      <point x="378" y="1008"/>
      <point x="324" y="911"/>
      <point x="299" y="782"/>
      <point x="299" y="711" type="qcurve" smooth="yes"/>
      <point x="299" y="652"/>
      <point x="313" y="532"/>
      <point x="342" y="421"/>
      <point x="385" y="324"/>
      <point x="445" y="252"/>
      <point x="522" y="211"/>
      <point x="569" y="211" type="qcurve" smooth="yes"/>
      <point x="630" y="211"/>
      <point x="713" y="266"/>
      <point x="763" y="355"/>
      <point x="784" y="466"/>
      <point x="784" y="522" type="qcurve" smooth="yes"/>
      <point x="784" y="660"/>
      <point x="744" y="864"/>
      <point x="672" y="999"/>
      <point x="575" y="1065"/>
    </contour>
  </outline>
</glyph>
<glyph name="r" format="2">
  <advance width="848"/>
  <unicode hex="0072"/>
  <outline>
    <contour>
      <point x="381" y="1276" type="qcurve" smooth="yes"/>
      <point x="381" y="1264"/>
      <point x="379" y="1221"/>
      <point x="379" y="1198" type="qcurve" smooth="yes"/>
      <point x="379" y="1169"/>
      <point x="386" y="1104"/>
      <point x="397" y="1049"/>
      <point x="408" y="1012"/>
      <point x="412" y="1012" type="qcurve" smooth="yes"/>
      <point x="416" y="1012"/>
      <point x="431" y="1070"/>
      <point x="460" y="1158"/>
      <point x="506" y="1259"/>
      <point x="578" y="1347"/>
      <point x="679" y="1405"/>
      <point x="748" y="1405" type="qcurve" smooth="yes"/>
      <point x="812" y="1405"/>
      <point x="899" y="1361"/>
      <point x="951" y="1295"/>
      <point x="973" y="1218"/>
      <point x="973" y="1184" type="qcurve" smooth="yes"/>
      <point x="973" y="1131"/>
      <point x="945" y="1052"/>
      <point x="898" y="1000"/>
      <point x="838" y="973"/>
      <point x="807" y="973" type="qcurve" smooth="yes"/>
      <point x="750" y="973"/>
      <point x="678" y="1027"/>
      <point x="678" y="1079" type="qcurve" smooth="yes"/>
      <point x="678" y="1107"/>
      <point x="693" y="1147"/>
      <point x="718" y="1175"/>
      <point x="753" y="1194"/>
      <point x="774" y="1200" type="qcurve" smooth="yes"/>
      <point x="817" y="1213"/>
      <point x="848" y="1251"/>
      <point x="848" y="1276" type="qcurve" smooth="yes"/>
      <point x="848" y="1291"/>
      <point x="837" y="1319"/>
      <point x="812" y="1342"/>
      <point x="773" y="1356"/>
      <point x="745" y="1356" type="qcurve" smooth="yes"/>
      <point x="688" y="1356"/>
      <point x="602" y="1303"/>
      <point x="538" y="1214"/>
      <point x="496" y="1098"/>
      <point x="470" y="971"/>
      <point x="459" y="842"/>
      <point x="459" y="786" type="qcurve" smooth="yes"/>
      <point x="459" y="735"/>
      <point x="467" y="616"/>
      <point x="480" y="496"/>
      <point x="496" y="382"/>
      <point x="511" y="288"/>
      <point x="523" y="220"/>
      <point x="526" y="207" type="qcurve" smooth="yes"/>
      <point x="537" y="162"/>
      <point x="584" y="127"/>
      <point x="623" y="127" type="qcurve" smooth="yes"/>
      <point x="640" y="127"/>
      <point x="677" y="129"/>
      <point x="686" y="129" type="qcurve" smooth="yes"/>
      <point x="713" y="129"/>
      <point x="713" y="109" type="qcurve" smooth="yes"/>
      <point x="713" y="93"/>
      <point x="698" y="88" type="qcurve" smooth="yes"/>
      <point x="686" y="83"/>
      <point x="625" y="81"/>
      <point x="544" y="79"/>
      <point x="450" y="75"/>
      <point x="406" y="70" type="qcurve" smooth="yes"/>
      <point x="357" y="64"/>
      <point x="265" y="43"/>
      <point x="187" y="24"/>
      <point x="127" y="10"/>
      <point x="109" y="10" type="qcurve" smooth="yes"/>
      <point x="90" y="10"/>
      <point x="76" y="26"/>
      <point x="76" y="35" type="qcurve" smooth="yes"/>
      <point x="76" y="50"/>
      <point x="101" y="63"/>
      <point x="123" y="70" type="qcurve" smooth="yes"/>
      <point x="140" y="75"/>
      <point x="187" y="86"/>
      <point x="219" y="100" type="qcurve" smooth="yes"/>
      <point x="251" y="114"/>
      <point x="276" y="161"/>
      <point x="276" y="209" type="qcurve" smooth="yes"/>
      <point x="276" y="224"/>
      <point x="272" y="295"/>
      <point x="265" y="393"/>
      <point x="256" y="510"/>
      <point x="246" y="633"/>
      <point x="235" y="755"/>
      <point x="225" y="862"/>
      <point x="216" y="946"/>
      <point x="213" y="971" type="qcurve" smooth="yes"/>
      <point x="209" y="1001"/>
      <point x="193" y="1036"/>
      <point x="171" y="1054"/>
      <point x="142" y="1059"/>
      <point x="125" y="1059" type="qcurve" smooth="yes"/>
      <point x="84" y="1059" type="line" smooth="yes"/>
      <point x="79" y="1059"/>
      <point x="64" y="1060"/>
      <point x="50" y="1065"/>
      <point x="41" y="1075"/>
      <point x="41" y="1083" type="qcurve" smooth="yes"/>
      <point x="41" y="1094"/>
      <point x="59" y="1104"/>
      <point x="72" y="1106" type="qcurve" smooth="yes"/>
      <point x="122" y="1112"/>
      <point x="203" y="1134"/>
      <point x="242" y="1163" type="qcurve" smooth="yes"/>
      <point x="266" y="1182"/>
      <point x="319" y="1245"/>
      <point x="336" y="1280" type="qcurve" smooth="yes"/>
      <point x="348" y="1305"/>
      <point x="362" y="1305" type="qcurve" smooth="yes"/>
      <point x="375" y="1305"/>
      <point x="381" y="1285"/>
    </contour>
  </outline>
</glyph>
<glyph name="s" format="2">
  <advance width="989"/>
  <unicode hex="0073"/>
  <outline>
    <contour>
      <point x="598" y="1282" type="qcurve" smooth="yes"/>
      <point x="639" y="1282"/>
      <point x="696" y="1274"/>
      <point x="737" y="1263"/>
      <point x="767" y="1255"/>
      <point x="782" y="1255" type="qcurve" smooth="yes"/>
      <point x="799" y="1255"/>
      <point x="818" y="1291"/>
      <point x="827" y="1317" type="qcurve" smooth="yes"/>
      <point x="840" y="1352"/>
      <point x="858" y="1352" type="qcurve" smooth="yes"/>
      <point x="874" y="1352"/>
      <point x="883" y="1332"/>
      <point x="883" y="1323" type="qcurve" smooth="yes"/>
      <point x="883" y="1311"/>
      <point x="878" y="1286"/>
      <point x="868" y="1246"/>
      <point x="855" y="1186"/>
      <point x="848" y="1141" type="qcurve" smooth="yes"/>
      <point x="842" y="1104"/>
      <point x="835" y="1050"/>
      <point x="832" y="1008"/>
      <point x="828" y="974"/>
      <point x="825" y="956" type="qcurve" smooth="yes"/>
      <point x="819" y="918"/>
      <point x="799" y="918" type="qcurve" smooth="yes"/>
      <point x="786" y="918"/>
      <point x="778" y="943"/>
      <point x="778" y="958" type="qcurve" smooth="yes"/>
      <point x="778" y="1036" type="line" smooth="yes"/>
      <point x="778" y="1095"/>
      <point x="751" y="1175"/>
      <point x="704" y="1223"/>
      <point x="639" y="1243"/>
      <point x="602" y="1243" type="qcurve" smooth="yes"/>
      <point x="569" y="1243"/>
      <point x="508" y="1221"/>
      <point x="462" y="1178"/>
      <point x="434" y="1116"/>
      <point x="434" y="1077" type="qcurve" smooth="yes"/>
      <point x="434" y="1026"/>
      <point x="482" y="930"/>
      <point x="560" y="838"/>
      <point x="659" y="745"/>
      <point x="764" y="647"/>
      <point x="863" y="541"/>
      <point x="941" y="422"/>
      <point x="989" y="288"/>
      <point x="989" y="211" type="qcurve" smooth="yes"/>
      <point x="989" y="108"/>
      <point x="925" y="-51"/>
      <point x="817" y="-159"/>
      <point x="673" y="-215"/>
      <point x="592" y="-215" type="qcurve" smooth="yes"/>
      <point x="536" y="-215"/>
      <point x="439" y="-191"/>
      <point x="358" y="-153"/>
      <point x="294" y="-104"/>
      <point x="272" y="-80" type="qcurve" smooth="yes"/>
      <point x="231" y="-34"/>
      <point x="173" y="14"/>
      <point x="139" y="14" type="qcurve" smooth="yes"/>
      <point x="121" y="14"/>
      <point x="79" y="-12"/>
      <point x="38" y="-42"/>
      <point x="2" y="-68"/>
      <point x="-10" y="-68" type="qcurve" smooth="yes"/>
      <point x="-21" y="-68"/>
      <point x="-31" y="-55"/>
      <point x="-31" y="-49" type="qcurve" smooth="yes"/>
      <point x="-31" y="-37"/>
      <point x="-16" y="-23" type="qcurve" smooth="yes"/>
      <point x="-10" y="-17"/>
      <point x="25" y="15"/>
      <point x="77" y="67"/>
      <point x="142" y="143"/>
      <point x="178" y="193" type="qcurve" smooth="yes"/>
      <point x="212" y="240"/>
      <point x="256" y="323"/>
      <point x="288" y="384"/>
      <point x="313" y="420"/>
      <point x="328" y="420" type="qcurve" smooth="yes"/>
      <point x="343" y="420"/>
      <point x="352" y="402"/>
      <point x="352" y="391" type="qcurve" smooth="yes"/>
      <point x="352" y="376"/>
      <point x="330" y="328"/>
      <point x="305" y="260"/>
      <point x="283" y="170"/>
      <point x="283" y="113" type="qcurve" smooth="yes"/>
      <point x="283" y="80"/>
      <point x="309" y="-8"/>
      <point x="367" y="-86"/>
      <point x="462" y="-141"/>
      <point x="530" y="-141" type="qcurve" smooth="yes"/>
      <point x="584" y="-141"/>
      <point x="671" y="-101"/>
      <point x="733" y="-28"/>
      <point x="766" y="73"/>
      <point x="766" y="135" type="qcurve" smooth="yes"/>
      <point x="766" y="214"/>
      <point x="692" y="361"/>
      <point x="580" y="502"/>
      <point x="450" y="638"/>
      <point x="338" y="773"/>
      <point x="264" y="909"/>
      <point x="264" y="979" type="qcurve" smooth="yes"/>
      <point x="264" y="1057"/>
      <point x="322" y="1172"/>
      <point x="417" y="1246"/>
      <point x="536" y="1282"/>
    </contour>
  </outline>
</glyph>
<glyph name="z" format="2">
  <advance width="944"/>
  <unicode hex="007A"/>
  <outline>
    <contour>
      <point x="113" y="1151" type="qcurve" smooth="yes"/>
      <point x="134" y="1151"/>
      <point x="200" y="1137"/>
      <point x="288" y="1117"/>
      <point x="396" y="1098"/>
      <point x="459" y="1094" type="qcurve" smooth="yes"/>
      <point x="521" y="1089"/>
      <point x="612" y="1085"/>
      <point x="647" y="1085" type="qcurve" smooth="yes"/>
      <point x="682" y="1085"/>
      <point x="742" y="1087"/>
      <point x="776" y="1087" type="qcurve" smooth="yes"/>
      <point x="802" y="1087"/>
      <point x="821" y="1069"/>
      <point x="821" y="1055" type="qcurve" smooth="yes"/>
      <point x="821" y="1044"/>
      <point x="812" y="1020"/>
      <point x="809" y="1012" type="qcurve" smooth="yes"/>
      <point x="807" y="1008"/>
      <point x="772" y="934"/>
      <point x="717" y="818"/>
      <point x="648" y="671"/>
      <point x="575" y="517"/>
      <point x="505" y="368"/>
      <point x="449" y="247"/>
      <point x="411" y="166"/>
      <point x="408" y="158" type="qcurve" smooth="yes"/>
      <point x="406" y="153"/>
      <point x="403" y="142"/>
      <point x="403" y="139" type="qcurve" smooth="yes"/>
      <point x="403" y="125"/>
      <point x="431" y="121"/>
      <point x="446" y="121" type="qcurve" smooth="yes"/>
      <point x="476" y="121"/>
      <point x="566" y="128"/>
      <point x="659" y="140"/>
      <point x="743" y="155"/>
      <point x="768" y="164" type="qcurve" smooth="yes"/>
      <point x="802" y="176"/>
      <point x="847" y="217"/>
      <point x="875" y="265"/>
      <point x="890" y="317"/>
      <point x="895" y="342" type="qcurve" smooth="yes"/>
      <point x="898" y="355"/>
      <point x="904" y="389"/>
      <point x="912" y="419"/>
      <point x="923" y="440"/>
      <point x="930" y="440" type="qcurve" smooth="yes"/>
      <point x="940" y="440"/>
      <point x="944" y="394"/>
      <point x="944" y="367" type="qcurve" smooth="yes"/>
      <point x="944" y="353"/>
      <point x="943" y="294"/>
      <point x="942" y="228"/>
      <point x="939" y="166"/>
      <point x="938" y="150" type="qcurve" smooth="yes"/>
      <point x="935" y="108"/>
      <point x="915" y="66"/>
      <point x="887" y="66" type="qcurve" smooth="yes"/>
      <point x="833" y="66"/>
      <point x="698" y="72"/>
      <point x="627" y="72" type="qcurve" smooth="yes"/>
      <point x="588" y="72"/>
      <point x="503" y="71"/>
      <point x="455" y="68" type="qcurve" smooth="yes"/>
      <point x="375" y="63"/>
      <point x="258" y="48"/>
      <point x="171" y="33"/>
      <point x="109" y="23"/>
      <point x="84" y="23" type="qcurve" smooth="yes"/>
      <point x="62" y="23"/>
      <point x="45" y="36"/>
      <point x="45" y="47" type="qcurve" smooth="yes"/>
      <point x="45" y="64"/>
      <point x="61" y="90" type="qcurve" smooth="yes"/>
      <point x="172" y="268"/>
      <point x="346" y="560"/>
      <point x="478" y="793"/>
      <point x="570" y="970"/>
      <point x="598" y="1032" type="qcurve"/>
      <point x="573" y="1036"/>
      <point x="514" y="1043"/>
      <point x="451" y="1048"/>
      <point x="388" y="1051"/>
      <point x="360" y="1051" type="qcurve" smooth="yes"/>
      <point x="334" y="1051"/>
      <point x="290" y="1048"/>
      <point x="274" y="1044" type="qcurve" smooth="yes"/>
      <point x="240" y="1038"/>
      <point x="189" y="997"/>
      <point x="150" y="931"/>
      <point x="119" y="840"/>
      <point x="106" y="784" type="qcurve" smooth="yes"/>
      <point x="101" y="760"/>
      <point x="91" y="712"/>
      <point x="80" y="672"/>
      <point x="66" y="647"/>
      <point x="57" y="647" type="qcurve" smooth="yes"/>
      <point x="51" y="647"/>
      <point x="41" y="662"/>
      <point x="41" y="682" type="qcurve" smooth="yes"/>
      <point x="41" y="689"/>
      <point x="44" y="740"/>
      <point x="49" y="804"/>
      <point x="53" y="870"/>
      <point x="55" y="891" type="qcurve" smooth="yes"/>
      <point x="66" y="1094" type="line" smooth="yes"/>
      <point x="68" y="1128"/>
      <point x="90" y="1151"/>
    </contour>
  </outline>
</glyph>
<glyph name="braceleft" format="2">
  <advance width="944"/>
  <unicode hex="007B"/>
  <outline>
    <contour>
      <point x="676" y="1956" type="qcurve" smooth="yes"/>
      <point x="733" y="1956"/>
      <point x="820" y="1928"/>
      <point x="879" y="1890"/>
      <point x="909" y="1851"/>
      <point x="909" y="1839" type="qcurve" smooth="yes"/>
      <point x="909" y="1825"/>
      <point x="895" y="1825" type="qcurve" smooth="yes"/>
      <point x="880" y="1825"/>
      <point x="847" y="1849"/>
      <point x="801" y="1877"/>
      <point x="738" y="1901"/>
      <point x="694" y="1901" type="qcurve" smooth="yes"/>
      <point x="617" y="1901"/>
      <point x="547" y="1798"/>
      <point x="547" y="1704" type="qcurve" smooth="yes"/>
      <point x="547" y="1639"/>
      <point x="577" y="1494"/>
      <point x="613" y="1342"/>
      <point x="643" y="1188"/>
      <point x="643" y="1116" type="qcurve" smooth="yes"/>
      <point x="643" y="1037"/>
      <point x="618" y="971" type="qcurve" smooth="yes"/>
      <point x="596" y="912"/>
      <point x="520" y="829"/>
      <point x="432" y="773"/>
      <point x="343" y="740"/>
      <point x="271" y="720"/>
      <point x="225" y="711"/>
      <point x="225" y="707" type="qcurve" smooth="yes"/>
      <point x="225" y="701"/>
      <point x="265" y="682"/>
      <point x="327" y="652"/>
      <point x="401" y="608"/>
      <point x="436" y="578" type="qcurve" smooth="yes"/>
      <point x="490" y="530"/>
      <point x="556" y="410"/>
      <point x="592" y="275"/>
      <point x="604" y="129"/>
      <point x="604" y="57" type="qcurve" smooth="yes"/>
      <point x="604" y="17"/>
      <point x="602" y="-62"/>
      <point x="602" y="-100" type="qcurve" smooth="yes"/>
      <point x="602" y="-180"/>
      <point x="613" y="-325"/>
      <point x="645" y="-435"/>
      <point x="704" y="-500"/>
      <point x="752" y="-500" type="qcurve" smooth="yes"/>
      <point x="790" y="-500"/>
      <point x="837" y="-468"/>
      <point x="865" y="-419"/>
      <point x="877" y="-362"/>
      <point x="883" y="-313"/>
      <point x="888" y="-281"/>
      <point x="895" y="-281" type="qcurve" smooth="yes"/>
      <point x="909" y="-281"/>
      <point x="920" y="-329"/>
      <point x="920" y="-367" type="qcurve" smooth="yes"/>
      <point x="920" y="-438"/>
      <point x="887" y="-539"/>
      <point x="826" y="-604"/>
      <point x="740" y="-635"/>
      <point x="688" y="-635" type="qcurve" smooth="yes"/>
      <point x="602" y="-635"/>
      <point x="482" y="-583"/>
      <point x="406" y="-482"/>
      <point x="371" y="-337"/>
      <point x="371" y="-244" type="qcurve" smooth="yes"/>
      <point x="371" y="-184"/>
      <point x="378" y="-39"/>
      <point x="387" y="102"/>
      <point x="395" y="226"/>
      <point x="395" y="266" type="qcurve" smooth="yes"/>
      <point x="395" y="311"/>
      <point x="383" y="401"/>
      <point x="352" y="486"/>
      <point x="296" y="563"/>
      <point x="252" y="596" type="qcurve" smooth="yes"/>
      <point x="208" y="629"/>
      <point x="125" y="667"/>
      <point x="60" y="692"/>
      <point x="20" y="711"/>
      <point x="20" y="725" type="qcurve" smooth="yes"/>
      <point x="20" y="734"/>
      <point x="43" y="749"/>
      <point x="76" y="760"/>
      <point x="115" y="768"/>
      <point x="131" y="772" type="qcurve" smooth="yes"/>
      <point x="192" y="787"/>
      <point x="293" y="840"/>
      <point x="364" y="921"/>
      <point x="403" y="1033"/>
      <point x="403" y="1106" type="qcurve" smooth="yes"/>
      <point x="403" y="1154"/>
      <point x="390" y="1259"/>
      <point x="375" y="1371"/>
      <point x="362" y="1487"/>
      <point x="362" y="1546" type="qcurve" smooth="yes"/>
      <point x="362" y="1618"/>
      <point x="395" y="1765"/>
      <point x="469" y="1882"/>
      <point x="589" y="1956"/>
    </contour>
  </outline>
</glyph>
<glyph name="brokenbar" format="2">
  <advance width="700"/>
  <unicode hex="00A6"/>
  <outline>
    <contour>
      <point x="346" y="1837" type="qcurve" smooth="yes"/>
      <point x="362" y="1837"/>
      <point x="377" y="1807"/>
      <point x="379" y="1772" type="qcurve" smooth="yes"/>
      <point x="381" y="1736"/>
      <point x="381" y="1612"/>
      <point x="381" y="1526" type="qcurve" smooth="yes"/>
      <point x="381" y="1499"/>
      <point x="382" y="1418"/>
      <point x="383" y="1326"/>
      <point x="385" y="1229"/>
      <point x="386" y="1142"/>
      <point x="387" y="1072"/>
      <point x="387" y="1053" type="qcurve" smooth="yes"/>
      <point x="387" y="1024"/>
      <point x="380" y="987"/>
      <point x="369" y="966"/>
      <point x="355" y="958"/>
      <point x="348" y="958" type="qcurve" smooth="yes"/>
      <point x="331" y="958"/>
      <point x="313" y="999"/>
      <point x="313" y="1055" type="qcurve" smooth="yes"/>
      <point x="313" y="1098"/>
      <point x="314" y="1227"/>
      <point x="314" y="1370"/>
      <point x="315" y="1511"/>
      <point x="315" y="1567" type="qcurve" smooth="yes"/>
      <point x="315" y="1757" type="line" smooth="yes"/>
      <point x="315" y="1791"/>
      <point x="326" y="1837"/>
    </contour>
    <contour>
      <point x="348" y="729" type="qcurve" smooth="yes"/>
      <point x="365" y="729"/>
      <point x="379" y="694"/>
      <point x="381" y="670" type="qcurve" smooth="yes"/>
      <point x="382" y="652"/>
      <point x="385" y="590"/>
      <point x="388" y="515"/>
      <point x="390" y="431"/>
      <point x="392" y="353"/>
      <point x="393" y="286"/>
      <point x="393" y="264" type="qcurve" smooth="yes"/>
      <point x="393" y="214"/>
      <point x="392" y="90"/>
      <point x="392" y="-42"/>
      <point x="390" y="-172"/>
      <point x="390" y="-286"/>
      <point x="389" y="-375"/>
      <point x="389" y="-399" type="qcurve" smooth="yes"/>
      <point x="389" y="-472"/>
      <point x="368" y="-543"/>
      <point x="342" y="-543" type="qcurve" smooth="yes"/>
      <point x="329" y="-543"/>
      <point x="315" y="-521"/>
      <point x="308" y="-490"/>
      <point x="307" y="-454"/>
      <point x="307" y="-440" type="qcurve" smooth="yes"/>
      <point x="307" y="-431"/>
      <point x="310" y="-339"/>
      <point x="313" y="-206"/>
      <point x="318" y="-48"/>
      <point x="321" y="101"/>
      <point x="324" y="227"/>
      <point x="324" y="262" type="qcurve" smooth="yes"/>
      <point x="324" y="331"/>
      <point x="322" y="465"/>
      <point x="321" y="576"/>
      <point x="319" y="657"/>
      <point x="319" y="672" type="qcurve" smooth="yes"/>
      <point x="319" y="703"/>
      <point x="334" y="729"/>
    </contour>
  </outline>
</glyph>
<glyph name="section" format="2">
  <advance width="1120"/>
  <unicode hex="00A7"/>
  <outline>
    <contour>
      <point x="637" y="1706" type="qcurve" smooth="yes"/>
      <point x="728" y="1706"/>
      <point x="869" y="1647"/>
      <point x="963" y="1551"/>
      <point x="1012" y="1432"/>
      <point x="1012" y="1372" type="qcurve" smooth="yes"/>
      <point x="1012" y="1343"/>
      <point x="998" y="1282"/>
      <point x="964" y="1233"/>
      <point x="909" y="1202"/>
      <point x="868" y="1202" type="qcurve" smooth="yes"/>
      <point x="836" y="1202"/>
      <point x="790" y="1224"/>
      <point x="758" y="1259"/>
      <point x="743" y="1303"/>
      <point x="743" y="1325" type="qcurve" smooth="yes"/>
      <point x="743" y="1358"/>
      <point x="759" y="1411"/>
      <point x="777" y="1459"/>
      <point x="793" y="1504"/>
      <point x="793" y="1530" type="qcurve" smooth="yes"/>
      <point x="793" y="1553"/>
      <point x="771" y="1601"/>
      <point x="728" y="1640"/>
      <point x="665" y="1665"/>
      <point x="625" y="1665" type="qcurve" smooth="yes"/>
      <point x="578" y="1665"/>
      <point x="493" y="1637"/>
      <point x="428" y="1579"/>
      <point x="389" y="1490"/>
      <point x="389" y="1430" type="qcurve" smooth="yes"/>
      <point x="389" y="1354"/>
      <point x="443" y="1231"/>
      <point x="532" y="1126"/>
      <point x="645" y="1034"/>
      <point x="762" y="946"/>
      <point x="875" y="856"/>
      <point x="964" y="753"/>
      <point x="1018" y="633"/>
      <point x="1018" y="559" type="qcurve" smooth="yes"/>
      <point x="1018" y="491"/>
      <point x="978" y="378"/>
      <point x="917" y="288"/>
      <point x="844" y="221"/>
      <point x="811" y="197" type="qcurve"/>
      <point x="880" y="123"/>
      <point x="969" y="-65"/>
      <point x="969" y="-190" type="qcurve" smooth="yes"/>
      <point x="969" y="-301"/>
      <point x="902" y="-464"/>
      <point x="790" y="-572"/>
      <point x="641" y="-625"/>
      <point x="559" y="-625" type="qcurve" smooth="yes"/>
      <point x="503" y="-625"/>
      <point x="422" y="-602"/>
      <point x="365" y="-565"/>
      <point x="330" y="-520"/>
      <point x="310" y="-477"/>
      <point x="303" y="-440"/>
      <point x="303" y="-430" type="qcurve" smooth="yes"/>
      <point x="303" y="-409"/>
      <point x="315" y="-363"/>
      <point x="345" y="-323"/>
      <point x="396" y="-297"/>
      <point x="434" y="-297" type="qcurve" smooth="yes"/>
      <point x="471" y="-297"/>
      <point x="521" y="-330"/>
      <point x="558" y="-380"/>
      <point x="589" y="-439"/>
      <point x="627" y="-489"/>
      <point x="679" y="-522"/>
      <point x="719" y="-522" type="qcurve" smooth="yes"/>
      <point x="755" y="-522"/>
      <point x="816" y="-488"/>
      <point x="861" y="-429"/>
      <point x="887" y="-348"/>
      <point x="887" y="-301" type="qcurve" smooth="yes"/>
      <point x="887" y="-210"/>
      <point x="820" y="-71"/>
      <point x="709" y="39"/>
      <point x="568" y="130"/>
      <point x="421" y="217"/>
      <point x="280" y="306"/>
      <point x="169" y="415"/>
      <point x="102" y="550"/>
      <point x="102" y="639" type="qcurve" smooth="yes"/>
      <point x="102" y="712"/>
      <point x="145" y="824"/>
      <point x="208" y="906"/>
      <point x="281" y="962"/>
      <point x="311" y="979" type="qcurve"/>
      <point x="261" y="1034"/>
      <point x="199" y="1178"/>
      <point x="199" y="1276" type="qcurve" smooth="yes"/>
      <point x="199" y="1377"/>
      <point x="271" y="1537"/>
      <point x="392" y="1648"/>
      <point x="550" y="1706"/>
    </contour>
    <contour>
      <point x="481" y="844" type="qcurve" smooth="yes"/>
      <point x="447" y="864"/>
      <point x="384" y="908"/>
      <point x="356" y="934" type="qcurve"/>
      <point x="341" y="919"/>
      <point x="311" y="881"/>
      <point x="287" y="833"/>
      <point x="272" y="775"/>
      <point x="272" y="739" type="qcurve" smooth="yes"/>
      <point x="272" y="687"/>
      <point x="318" y="599"/>
      <point x="395" y="519"/>
      <point x="496" y="445"/>
      <point x="608" y="368"/>
      <point x="722" y="284"/>
      <point x="774" y="236" type="qcurve"/>
      <point x="797" y="254"/>
      <point x="841" y="298"/>
      <point x="875" y="353"/>
      <point x="895" y="420"/>
      <point x="895" y="459" type="qcurve" smooth="yes"/>
      <point x="895" y="505"/>
      <point x="854" y="585"/>
      <point x="786" y="656"/>
      <point x="699" y="718"/>
      <point x="607" y="773"/>
      <point x="517" y="821"/>
    </contour>
  </outline>
</glyph>
<glyph name="dieresis" format="2">
  <advance width="805"/>
  <unicode hex="00A8"/>
  <outline>
    <contour>
      <point x="324" y="1546" type="qcurve" smooth="yes"/>
      <point x="372" y="1546"/>
      <point x="424" y="1483"/>
      <point x="424" y="1440" type="qcurve" smooth="yes"/>
      <point x="424" y="1405"/>
      <point x="402" y="1356"/>
      <point x="367" y="1324"/>
      <point x="324" y="1309"/>
      <point x="303" y="1309" type="qcurve" smooth="yes"/>
      <point x="284" y="1309"/>
      <point x="247" y="1323"/>
      <point x="219" y="1350"/>
      <point x="201" y="1392"/>
      <point x="201" y="1419" type="qcurve" smooth="yes"/>
      <point x="201" y="1447"/>
      <point x="221" y="1493"/>
      <point x="256" y="1527"/>
      <point x="300" y="1546"/>
    </contour>
    <contour>
      <point x="582" y="1524" type="qcurve" smooth="yes"/>
      <point x="598" y="1524"/>
      <point x="630" y="1513"/>
      <point x="656" y="1490"/>
      <point x="672" y="1454"/>
      <point x="672" y="1430" type="qcurve" smooth="yes"/>
      <point x="672" y="1405"/>
      <point x="657" y="1363"/>
      <point x="630" y="1332"/>
      <point x="594" y="1315"/>
      <point x="573" y="1315" type="qcurve" smooth="yes"/>
      <point x="555" y="1315"/>
      <point x="522" y="1326"/>
      <point x="495" y="1350"/>
      <point x="479" y="1389"/>
      <point x="479" y="1417" type="qcurve" smooth="yes"/>
      <point x="479" y="1442"/>
      <point x="496" y="1481"/>
      <point x="524" y="1509"/>
      <point x="562" y="1524"/>
    </contour>
  </outline>
</glyph>
<glyph name="guillemotleft" format="2">
  <advance width="1247"/>
  <unicode hex="00AB"/>
  <outline>
    <contour>
      <point x="772" y="1098" type="qcurve" smooth="yes"/>
      <point x="780" y="1098"/>
      <point x="784" y="1083"/>
      <point x="784" y="1075" type="qcurve" smooth="yes"/>
      <point x="784" y="1063"/>
      <point x="773" y="1007"/>
      <point x="746" y="924"/>
      <point x="702" y="820"/>
      <point x="670" y="762" type="qcurve" smooth="yes"/>
      <point x="625" y="681"/>
      <point x="546" y="562"/>
      <point x="487" y="478"/>
      <point x="453" y="426"/>
      <point x="453" y="412" type="qcurve" smooth="yes"/>
      <point x="453" y="401"/>
      <point x="491" y="341"/>
      <point x="551" y="251"/>
      <point x="626" y="135"/>
      <point x="662" y="68" type="qcurve" smooth="yes"/>
      <point x="679" y="36"/>
      <point x="729" y="-58"/>
      <point x="783" y="-164"/>
      <point x="836" y="-273"/>
      <point x="879" y="-370"/>
      <point x="905" y="-446"/>
      <point x="905" y="-465" type="qcurve" smooth="yes"/>
      <point x="905" y="-474"/>
      <point x="896" y="-489"/>
      <point x="885" y="-489" type="qcurve" smooth="yes"/>
      <point x="865" y="-489"/>
      <point x="792" y="-401"/>
      <point x="693" y="-261"/>
      <point x="569" y="-90"/>
      <point x="498" y="-6" type="qcurve" smooth="yes"/>
      <point x="414" y="91"/>
      <point x="269" y="232"/>
      <point x="163" y="330"/>
      <point x="102" y="389"/>
      <point x="102" y="406" type="qcurve" smooth="yes"/>
      <point x="102" y="423"/>
      <point x="169" y="475"/>
      <point x="274" y="547"/>
      <point x="401" y="638"/>
      <point x="461" y="694" type="qcurve" smooth="yes"/>
      <point x="547" y="775"/>
      <point x="653" y="922"/>
      <point x="719" y="1033"/>
      <point x="756" y="1098"/>
    </contour>
    <contour>
      <point x="1083" y="1298" type="qcurve" smooth="yes"/>
      <point x="1093" y="1298"/>
      <point x="1100" y="1267"/>
      <point x="1100" y="1247" type="qcurve" smooth="yes"/>
      <point x="1100" y="1183"/>
      <point x="1077" y="1032"/>
      <point x="1041" y="879"/>
      <point x="1001" y="734"/>
      <point x="965" y="616"/>
      <point x="942" y="536"/>
      <point x="942" y="524" type="qcurve" smooth="yes"/>
      <point x="942" y="510"/>
      <point x="971" y="458"/>
      <point x="1016" y="376"/>
      <point x="1067" y="261"/>
      <point x="1112" y="110"/>
      <point x="1141" y="-81"/>
      <point x="1141" y="-199" type="qcurve" smooth="yes"/>
      <point x="1141" y="-251"/>
      <point x="1130" y="-313"/>
      <point x="1120" y="-313" type="qcurve" smooth="yes"/>
      <point x="1111" y="-313"/>
      <point x="1081" y="-237"/>
      <point x="1031" y="-111"/>
      <point x="960" y="54"/>
      <point x="909" y="143" type="qcurve" smooth="yes"/>
      <point x="869" y="214"/>
      <point x="785" y="312"/>
      <point x="715" y="380"/>
      <point x="670" y="424"/>
      <point x="670" y="440" type="qcurve" smooth="yes"/>
      <point x="670" y="455"/>
      <point x="725" y="512"/>
      <point x="806" y="610"/>
      <point x="900" y="754"/>
      <point x="938" y="858" type="qcurve" smooth="yes"/>
      <point x="976" y="962"/>
      <point x="1022" y="1125"/>
      <point x="1050" y="1238"/>
      <point x="1070" y="1298"/>
    </contour>
  </outline>
</glyph>
<glyph name="registered" format="2">
  <advance width="2148"/>
  <unicode hex="00AE"/>
  <outline>
    <contour>
      <point x="1079" y="1438" type="qcurve" smooth="yes"/>
      <point x="1199" y="1438"/>
      <point x="1436" y="1391"/>
      <point x="1651" y="1295"/>
      <point x="1834" y="1147"/>
      <point x="1968" y="946"/>
      <point x="2044" y="689"/>
      <point x="2044" y="532" type="qcurve" smooth="yes"/>
      <point x="2044" y="283"/>
      <point x="1895" y="-86"/>
      <point x="1633" y="-330"/>
      <point x="1278" y="-451"/>
      <point x="1071" y="-451" type="qcurve" smooth="yes"/>
      <point x="959" y="-451"/>
      <point x="728" y="-407"/>
      <point x="513" y="-312"/>
      <point x="324" y="-165"/>
      <point x="183" y="40"/>
      <point x="102" y="306"/>
      <point x="102" y="473" type="qcurve" smooth="yes"/>
      <point x="102" y="581"/>
      <point x="134" y="769"/>
      <point x="192" y="931"/>
      <point x="274" y="1066"/>
      <point x="324" y="1122" type="qcurve" smooth="yes"/>
      <point x="403" y="1210"/>
      <point x="595" y="1331"/>
      <point x="796" y="1406"/>
      <point x="994" y="1438"/>
    </contour>
    <contour>
      <point x="1079" y="1362" type="qcurve" smooth="yes"/>
      <point x="985" y="1362"/>
      <point x="781" y="1324"/>
      <point x="586" y="1239"/>
      <point x="411" y="1106"/>
      <point x="279" y="915"/>
      <point x="201" y="664"/>
      <point x="201" y="504" type="qcurve" smooth="yes"/>
      <point x="201" y="350"/>
      <point x="268" y="96"/>
      <point x="388" y="-105"/>
      <point x="553" y="-253"/>
      <point x="750" y="-351"/>
      <point x="970" y="-399"/>
      <point x="1085" y="-399" type="qcurve" smooth="yes"/>
      <point x="1313" y="-399"/>
      <point x="1653" y="-261"/>
      <point x="1880" y="-18"/>
      <point x="1993" y="314"/>
      <point x="1993" y="508" type="qcurve" smooth="yes"/>
      <point x="1993" y="666"/>
      <point x="1921" y="915"/>
      <point x="1795" y="1105"/>
      <point x="1622" y="1239"/>
      <point x="1418" y="1323"/>
      <point x="1194" y="1362"/>
    </contour>
    <contour>
      <point x="1102" y="1114" type="qcurve" smooth="yes"/>
      <point x="1169" y="1114"/>
      <point x="1283" y="1082"/>
      <point x="1366" y="1017"/>
      <point x="1413" y="919"/>
      <point x="1413" y="852" type="qcurve" smooth="yes"/>
      <point x="1413" y="778"/>
      <point x="1366" y="664"/>
      <point x="1291" y="579"/>
      <point x="1197" y="522"/>
      <point x="1149" y="506" type="qcurve"/>
      <point x="1160" y="471"/>
      <point x="1193" y="388"/>
      <point x="1214" y="348" type="qcurve" smooth="yes"/>
      <point x="1235" y="308"/>
      <point x="1284" y="236"/>
      <point x="1342" y="182"/>
      <point x="1413" y="150"/>
      <point x="1456" y="150" type="qcurve" smooth="yes"/>
      <point x="1491" y="150"/>
      <point x="1540" y="176"/>
      <point x="1570" y="215"/>
      <point x="1583" y="262"/>
      <point x="1583" y="283" type="qcurve" smooth="yes"/>
      <point x="1583" y="316"/>
      <point x="1569" y="364"/>
      <point x="1552" y="399"/>
      <point x="1538" y="423"/>
      <point x="1538" y="432" type="qcurve" smooth="yes"/>
      <point x="1538" y="446"/>
      <point x="1550" y="446" type="qcurve" smooth="yes"/>
      <point x="1562" y="446"/>
      <point x="1594" y="417"/>
      <point x="1621" y="369"/>
      <point x="1640" y="307"/>
      <point x="1640" y="274" type="qcurve" smooth="yes"/>
      <point x="1640" y="225"/>
      <point x="1614" y="139"/>
      <point x="1559" y="76"/>
      <point x="1476" y="39"/>
      <point x="1419" y="39" type="qcurve" smooth="yes"/>
      <point x="1346" y="39"/>
      <point x="1227" y="84"/>
      <point x="1132" y="158"/>
      <point x="1061" y="251"/>
      <point x="1010" y="346"/>
      <point x="978" y="436"/>
      <point x="971" y="469" type="qcurve"/>
      <point x="889" y="461" type="line"/>
      <point x="890" y="417"/>
      <point x="897" y="318"/>
      <point x="912" y="224"/>
      <point x="936" y="144"/>
      <point x="954" y="119" type="qcurve" smooth="yes"/>
      <point x="973" y="92"/>
      <point x="1018" y="55"/>
      <point x="1060" y="30"/>
      <point x="1095" y="16"/>
      <point x="1106" y="12" type="qcurve" smooth="yes"/>
      <point x="1126" y="4"/>
      <point x="1139" y="-4"/>
      <point x="1139" y="-12" type="qcurve" smooth="yes"/>
      <point x="1139" y="-18"/>
      <point x="1126" y="-27"/>
      <point x="1112" y="-27" type="qcurve" smooth="yes"/>
      <point x="1084" y="-27"/>
      <point x="1020" y="-11"/>
      <point x="944" y="7"/>
      <point x="852" y="23"/>
      <point x="797" y="23" type="qcurve" smooth="yes"/>
      <point x="761" y="23"/>
      <point x="679" y="16"/>
      <point x="604" y="7"/>
      <point x="543" y="0"/>
      <point x="526" y="0" type="qcurve" smooth="yes"/>
      <point x="497" y="0"/>
      <point x="477" y="14"/>
      <point x="477" y="25" type="qcurve" smooth="yes"/>
      <point x="477" y="34"/>
      <point x="494" y="46"/>
      <point x="516" y="49" type="qcurve" smooth="yes"/>
      <point x="544" y="53"/>
      <point x="594" y="64"/>
      <point x="637" y="84"/>
      <point x="673" y="114"/>
      <point x="688" y="137" type="qcurve" smooth="yes"/>
      <point x="703" y="160"/>
      <point x="718" y="251"/>
      <point x="725" y="358"/>
      <point x="726" y="465"/>
      <point x="727" y="504" type="qcurve" smooth="yes"/>
      <point x="727" y="524"/>
      <point x="729" y="583"/>
      <point x="729" y="618" type="qcurve" smooth="yes"/>
      <point x="729" y="669"/>
      <point x="728" y="779"/>
      <point x="722" y="878"/>
      <point x="710" y="955"/>
      <point x="698" y="973" type="qcurve" smooth="yes"/>
      <point x="685" y="994"/>
      <point x="630" y="1014"/>
      <point x="574" y="1028"/>
      <point x="532" y="1041"/>
      <point x="532" y="1053" type="qcurve" smooth="yes"/>
      <point x="532" y="1067"/>
      <point x="555" y="1067" type="qcurve" smooth="yes"/>
      <point x="575" y="1067"/>
      <point x="611" y="1064"/>
      <point x="651" y="1061"/>
      <point x="701" y="1059"/>
      <point x="735" y="1059" type="qcurve" smooth="yes"/>
      <point x="778" y="1059"/>
      <point x="868" y="1076"/>
      <point x="960" y="1097"/>
      <point x="1054" y="1114"/>
    </contour>
    <contour>
      <point x="887" y="510" type="line"/>
      <point x="905" y="512"/>
      <point x="946" y="516"/>
      <point x="971" y="522" type="qcurve" smooth="yes"/>
      <point x="1041" y="537"/>
      <point x="1130" y="600"/>
      <point x="1182" y="685"/>
      <point x="1202" y="787"/>
      <point x="1202" y="842" type="qcurve" smooth="yes"/>
      <point x="1202" y="891"/>
      <point x="1175" y="972"/>
      <point x="1125" y="1029"/>
      <point x="1056" y="1061"/>
      <point x="1014" y="1061" type="qcurve" smooth="yes"/>
      <point x="983" y="1061"/>
      <point x="941" y="1052"/>
      <point x="912" y="1038"/>
      <point x="897" y="1021"/>
      <point x="893" y="1014" type="qcurve" smooth="yes"/>
      <point x="885" y="998"/>
      <point x="879" y="906"/>
      <point x="879" y="846" type="qcurve" smooth="yes"/>
      <point x="879" y="803"/>
      <point x="881" y="710"/>
      <point x="884" y="623"/>
      <point x="886" y="549"/>
      <point x="887" y="524" type="qcurve" smooth="yes"/>
    </contour>
  </outline>
</glyph>
<glyph name="macron" format="2">
  <advance width="784"/>
  <unicode hex="00AF"/>
  <outline>
    <contour>
      <point x="590" y="1696" type="qcurve" smooth="yes"/>
      <point x="618" y="1696"/>
      <point x="653" y="1690"/>
      <point x="674" y="1679"/>
      <point x="682" y="1665"/>
      <point x="682" y="1657" type="qcurve" smooth="yes"/>
      <point x="682" y="1634"/>
      <point x="633" y="1612"/>
      <point x="573" y="1612" type="qcurve" smooth="yes"/>
      <point x="547" y="1612"/>
      <point x="469" y="1613"/>
      <point x="377" y="1614"/>
      <point x="278" y="1616"/>
      <point x="231" y="1618" type="qcurve" smooth="yes"/>
      <point x="174" y="1620"/>
      <point x="102" y="1629"/>
      <point x="102" y="1649" type="qcurve" smooth="yes"/>
      <point x="102" y="1659"/>
      <point x="121" y="1671"/>
      <point x="154" y="1679"/>
      <point x="201" y="1684"/>
      <point x="229" y="1686" type="qcurve" smooth="yes"/>
      <point x="246" y="1687"/>
      <point x="304" y="1689"/>
      <point x="373" y="1691"/>
      <point x="448" y="1694"/>
      <point x="517" y="1695"/>
      <point x="574" y="1696"/>
    </contour>
  </outline>
</glyph>
<glyph name="threesuperior" format="2">
  <advance width="760"/>
  <unicode hex="00B3"/>
  <outline>
    <contour>
      <point x="506" y="1784" type="qcurve" smooth="yes"/>
      <point x="526" y="1784"/>
      <point x="526" y="1765" type="qcurve" smooth="yes"/>
      <point x="526" y="1753"/>
      <point x="499" y="1703"/>
      <point x="459" y="1640"/>
      <point x="413" y="1573"/>
      <point x="373" y="1516"/>
      <point x="346" y="1476"/>
      <point x="346" y="1473" type="qcurve" smooth="yes"/>
      <point x="346" y="1470"/>
      <point x="366" y="1468"/>
      <point x="402" y="1465"/>
      <point x="452" y="1457"/>
      <point x="483" y="1448" type="qcurve" smooth="yes"/>
      <point x="525" y="1436"/>
      <point x="609" y="1389"/>
      <point x="676" y="1312"/>
      <point x="719" y="1204"/>
      <point x="719" y="1130" type="qcurve" smooth="yes"/>
      <point x="719" y="1040"/>
      <point x="656" y="905"/>
      <point x="551" y="816"/>
      <point x="415" y="772"/>
      <point x="342" y="772" type="qcurve" smooth="yes"/>
      <point x="279" y="772"/>
      <point x="169" y="815"/>
      <point x="88" y="894"/>
      <point x="41" y="1009"/>
      <point x="41" y="1081" type="qcurve" smooth="yes"/>
      <point x="41" y="1118"/>
      <point x="52" y="1179"/>
      <point x="67" y="1223"/>
      <point x="84" y="1247"/>
      <point x="90" y="1247" type="qcurve" smooth="yes"/>
      <point x="96" y="1247"/>
      <point x="96" y="1237" type="qcurve" smooth="yes"/>
      <point x="96" y="1225"/>
      <point x="90" y="1179"/>
      <point x="90" y="1145" type="qcurve" smooth="yes"/>
      <point x="90" y="1093"/>
      <point x="117" y="995"/>
      <point x="173" y="920"/>
      <point x="259" y="874"/>
      <point x="319" y="874" type="qcurve" smooth="yes"/>
      <point x="368" y="874"/>
      <point x="445" y="910"/>
      <point x="497" y="975"/>
      <point x="524" y="1064"/>
      <point x="524" y="1118" type="qcurve" smooth="yes"/>
      <point x="524" y="1197"/>
      <point x="447" y="1314"/>
      <point x="385" y="1341" type="qcurve" smooth="yes"/>
      <point x="363" y="1351"/>
      <point x="315" y="1366"/>
      <point x="276" y="1376"/>
      <point x="250" y="1385"/>
      <point x="250" y="1389" type="qcurve" smooth="yes"/>
      <point x="250" y="1398"/>
      <point x="271" y="1437"/>
      <point x="293" y="1473" type="qcurve" smooth="yes"/>
      <point x="305" y="1491"/>
      <point x="330" y="1535"/>
      <point x="351" y="1575"/>
      <point x="365" y="1605"/>
      <point x="365" y="1610" type="qcurve" smooth="yes"/>
      <point x="365" y="1614"/>
      <point x="345" y="1618"/>
      <point x="316" y="1621"/>
      <point x="286" y="1622"/>
      <point x="276" y="1622" type="qcurve" smooth="yes"/>
      <point x="233" y="1620"/>
      <point x="177" y="1605"/>
      <point x="166" y="1591" type="qcurve" smooth="yes"/>
      <point x="158" y="1581"/>
      <point x="148" y="1549"/>
      <point x="140" y="1518"/>
      <point x="132" y="1495"/>
      <point x="127" y="1495" type="qcurve" smooth="yes"/>
      <point x="118" y="1495"/>
      <point x="115" y="1575"/>
      <point x="109" y="1653" type="qcurve" smooth="yes"/>
      <point x="105" y="1687"/>
      <point x="98" y="1740"/>
      <point x="98" y="1755" type="qcurve" smooth="yes"/>
      <point x="98" y="1771"/>
      <point x="111" y="1780"/>
      <point x="125" y="1780" type="qcurve" smooth="yes"/>
      <point x="153" y="1780"/>
      <point x="256" y="1767"/>
      <point x="319" y="1767" type="qcurve" smooth="yes"/>
      <point x="355" y="1767"/>
      <point x="412" y="1772"/>
      <point x="457" y="1779"/>
      <point x="491" y="1784"/>
    </contour>
  </outline>
</glyph>
<glyph name="acute" format="2">
  <advance width="481"/>
  <unicode hex="00B4"/>
  <outline>
    <contour>
      <point x="340" y="1952" type="qcurve" smooth="yes"/>
      <point x="360" y="1952"/>
      <point x="379" y="1928"/>
      <point x="379" y="1907" type="qcurve" smooth="yes"/>
      <point x="379" y="1889"/>
      <point x="356" y="1834"/>
      <point x="320" y="1770"/>
      <point x="275" y="1700"/>
      <point x="252" y="1669" type="qcurve" smooth="yes"/>
      <point x="210" y="1612"/>
      <point x="136" y="1538"/>
      <point x="119" y="1538" type="qcurve" smooth="yes"/>
      <point x="109" y="1538"/>
      <point x="104" y="1549"/>
      <point x="104" y="1559" type="qcurve" smooth="yes"/>
      <point x="104" y="1573"/>
      <point x="124" y="1642"/>
      <point x="159" y="1729"/>
      <point x="205" y="1823"/>
      <point x="257" y="1901"/>
      <point x="313" y="1952"/>
    </contour>
  </outline>
</glyph>
<glyph name="paragraph" format="2">
  <advance width="1448"/>
  <unicode hex="00B6"/>
  <outline>
    <contour>
      <point x="1360" y="1722" type="qcurve" smooth="yes"/>
      <point x="1372" y="1722"/>
      <point x="1382" y="1709"/>
      <point x="1382" y="1698" type="qcurve" smooth="yes"/>
      <point x="1382" y="1685"/>
      <point x="1356" y="1662"/>
      <point x="1314" y="1636"/>
      <point x="1262" y="1604"/>
      <point x="1209" y="1559"/>
      <point x="1161" y="1499"/>
      <point x="1145" y="1458" type="qcurve" smooth="yes"/>
      <point x="1134" y="1431"/>
      <point x="1117" y="1347"/>
      <point x="1104" y="1244"/>
      <point x="1094" y="1129"/>
      <point x="1088" y="1015"/>
      <point x="1085" y="910"/>
      <point x="1085" y="868" type="qcurve" smooth="yes"/>
      <point x="1085" y="781"/>
      <point x="1090" y="573"/>
      <point x="1099" y="356"/>
      <point x="1114" y="143"/>
      <point x="1135" y="-41"/>
      <point x="1161" y="-183"/>
      <point x="1178" y="-221" type="qcurve" smooth="yes"/>
      <point x="1195" y="-260"/>
      <point x="1251" y="-304"/>
      <point x="1314" y="-327"/>
      <point x="1374" y="-336"/>
      <point x="1395" y="-340" type="qcurve" smooth="yes"/>
      <point x="1426" y="-346"/>
      <point x="1448" y="-358"/>
      <point x="1448" y="-369" type="qcurve" smooth="yes"/>
      <point x="1448" y="-389"/>
      <point x="1407" y="-389" type="qcurve" smooth="yes"/>
      <point x="1361" y="-389"/>
      <point x="1263" y="-375"/>
      <point x="1200" y="-375" type="qcurve" smooth="yes"/>
      <point x="1165" y="-375"/>
      <point x="1102" y="-383"/>
      <point x="1044" y="-393"/>
      <point x="993" y="-401"/>
      <point x="971" y="-401" type="qcurve" smooth="yes"/>
      <point x="957" y="-401"/>
      <point x="939" y="-384"/>
      <point x="936" y="-356" type="qcurve" smooth="yes"/>
      <point x="934" y="-339"/>
      <point x="932" y="-276"/>
      <point x="929" y="-190"/>
      <point x="928" y="-85"/>
      <point x="928" y="-27" type="qcurve" smooth="yes"/>
      <point x="928" y="61"/>
      <point x="930" y="256"/>
      <point x="933" y="443"/>
      <point x="936" y="610"/>
      <point x="938" y="672" type="qcurve" smooth="yes"/>
      <point x="939" y="712"/>
      <point x="942" y="819"/>
      <point x="946" y="942"/>
      <point x="949" y="1073"/>
      <point x="952" y="1200"/>
      <point x="954" y="1317"/>
      <point x="954" y="1364" type="qcurve" smooth="yes"/>
      <point x="954" y="1413"/>
      <point x="950" y="1469"/>
      <point x="934" y="1496"/>
      <point x="901" y="1503"/>
      <point x="872" y="1503" type="qcurve" smooth="yes"/>
      <point x="844" y="1503"/>
      <point x="779" y="1499"/>
      <point x="721" y="1492"/>
      <point x="676" y="1482"/>
      <point x="668" y="1477" type="qcurve" smooth="yes"/>
      <point x="661" y="1472"/>
      <point x="648" y="1352"/>
      <point x="637" y="1148"/>
      <point x="631" y="874"/>
      <point x="631" y="717" type="qcurve" smooth="yes"/>
      <point x="631" y="660"/>
      <point x="636" y="507"/>
      <point x="645" y="331"/>
      <point x="657" y="139"/>
      <point x="668" y="-53"/>
      <point x="680" y="-237"/>
      <point x="689" y="-398"/>
      <point x="694" y="-526"/>
      <point x="694" y="-567" type="qcurve" smooth="yes"/>
      <point x="694" y="-584"/>
      <point x="686" y="-600"/>
      <point x="668" y="-606" type="qcurve" smooth="yes"/>
      <point x="639" y="-615"/>
      <point x="522" y="-639"/>
      <point x="444" y="-664" type="qcurve" smooth="yes"/>
      <point x="400" y="-678"/>
      <point x="316" y="-708"/>
      <point x="242" y="-735"/>
      <point x="183" y="-752"/>
      <point x="164" y="-752" type="qcurve" smooth="yes"/>
      <point x="139" y="-752"/>
      <point x="125" y="-736"/>
      <point x="125" y="-725" type="qcurve" smooth="yes"/>
      <point x="125" y="-705"/>
      <point x="168" y="-683"/>
      <point x="199" y="-674" type="qcurve" smooth="yes"/>
      <point x="273" y="-652"/>
      <point x="370" y="-604"/>
      <point x="430" y="-555"/>
      <point x="462" y="-505"/>
      <point x="471" y="-479" type="qcurve" smooth="yes"/>
      <point x="483" y="-447"/>
      <point x="492" y="-300"/>
      <point x="492" y="-203" type="qcurve" smooth="yes"/>
      <point x="492" y="-133"/>
      <point x="488" y="20"/>
      <point x="481" y="173"/>
      <point x="471" y="319"/>
      <point x="461" y="442"/>
      <point x="451" y="536"/>
      <point x="446" y="561" type="qcurve" smooth="yes"/>
      <point x="438" y="604"/>
      <point x="388" y="650"/>
      <point x="346" y="666" type="qcurve" smooth="yes"/>
      <point x="276" y="692"/>
      <point x="151" y="759"/>
      <point x="56" y="856"/>
      <point x="0" y="992"/>
      <point x="0" y="1087" type="qcurve" smooth="yes"/>
      <point x="0" y="1157"/>
      <point x="38" y="1285"/>
      <point x="117" y="1392"/>
      <point x="239" y="1473"/>
      <point x="324" y="1497" type="qcurve" smooth="yes"/>
      <point x="376" y="1512"/>
      <point x="491" y="1529"/>
      <point x="610" y="1540"/>
      <point x="732" y="1549"/>
      <point x="791" y="1556" type="qcurve" smooth="yes"/>
      <point x="900" y="1569"/>
      <point x="1062" y="1604"/>
      <point x="1178" y="1641"/>
      <point x="1256" y="1676"/>
      <point x="1310" y="1705"/>
      <point x="1345" y="1722"/>
    </contour>
  </outline>
</glyph>
<glyph name="ordmasculine" format="2">
  <advance width="1032"/>
  <unicode hex="00BA"/>
  <outline>
    <contour>
      <point x="496" y="1561" type="qcurve" smooth="yes"/>
      <point x="604" y="1561"/>
      <point x="779" y="1490"/>
      <point x="902" y="1368"/>
      <point x="969" y="1202"/>
      <point x="969" y="1108" type="qcurve" smooth="yes"/>
      <point x="969" y="1007"/>
      <point x="916" y="835"/>
      <point x="807" y="711"/>
      <point x="640" y="641"/>
      <point x="526" y="641" type="qcurve" smooth="yes"/>
      <point x="478" y="641"/>
      <point x="372" y="663"/>
      <point x="269" y="710"/>
      <point x="177" y="784"/>
      <point x="107" y="887"/>
      <point x="66" y="1021"/>
      <point x="66" y="1106" type="qcurve" smooth="yes"/>
      <point x="66" y="1220"/>
      <point x="135" y="1390"/>
      <point x="252" y="1504"/>
      <point x="408" y="1561"/>
    </contour>
    <contour>
      <point x="387" y="1466" type="qcurve" smooth="yes"/>
      <point x="340" y="1466"/>
      <point x="262" y="1430"/>
      <point x="205" y="1364"/>
      <point x="174" y="1271"/>
      <point x="174" y="1214" type="qcurve" smooth="yes"/>
      <point x="174" y="1110"/>
      <point x="236" y="924"/>
      <point x="349" y="784"/>
      <point x="507" y="702"/>
      <point x="602" y="702" type="qcurve" smooth="yes"/>
      <point x="667" y="702"/>
      <point x="752" y="745"/>
      <point x="801" y="815"/>
      <point x="821" y="907"/>
      <point x="821" y="956" type="qcurve" smooth="yes"/>
      <point x="821" y="1058"/>
      <point x="763" y="1243"/>
      <point x="652" y="1383"/>
      <point x="491" y="1466"/>
    </contour>
  </outline>
</glyph>
<glyph name="questiondown" format="2">
  <advance width="1171"/>
  <unicode hex="00BF"/>
  <outline>
    <contour>
      <point x="637" y="1587" type="qcurve" smooth="yes"/>
      <point x="665" y="1587"/>
      <point x="721" y="1566"/>
      <point x="766" y="1525"/>
      <point x="793" y="1463"/>
      <point x="793" y="1421" type="qcurve" smooth="yes"/>
      <point x="793" y="1376"/>
      <point x="762" y="1312"/>
      <point x="713" y="1271"/>
      <point x="654" y="1253"/>
      <point x="627" y="1253" type="qcurve" smooth="yes"/>
      <point x="555" y="1253"/>
      <point x="465" y="1334"/>
      <point x="465" y="1411" type="qcurve" smooth="yes"/>
      <point x="465" y="1456"/>
      <point x="494" y="1522"/>
      <point x="542" y="1565"/>
      <point x="604" y="1587"/>
    </contour>
    <contour>
      <point x="522" y="1192" type="qcurve" smooth="yes"/>
      <point x="550" y="1192"/>
      <point x="621" y="1156"/>
      <point x="649" y="1124" type="qcurve" smooth="yes"/>
      <point x="669" y="1100"/>
      <point x="694" y="1037"/>
      <point x="694" y="999" type="qcurve" smooth="yes"/>
      <point x="694" y="929"/>
      <point x="647" y="813"/>
      <point x="577" y="706"/>
      <point x="494" y="597"/>
      <point x="424" y="472"/>
      <point x="377" y="321"/>
      <point x="377" y="225" type="qcurve" smooth="yes"/>
      <point x="377" y="113"/>
      <point x="435" y="-39"/>
      <point x="526" y="-131"/>
      <point x="640" y="-170"/>
      <point x="696" y="-170" type="qcurve" smooth="yes"/>
      <point x="762" y="-170"/>
      <point x="858" y="-130"/>
      <point x="920" y="-66"/>
      <point x="950" y="17"/>
      <point x="950" y="61" type="qcurve" smooth="yes"/>
      <point x="950" y="84"/>
      <point x="936" y="137"/>
      <point x="899" y="189"/>
      <point x="834" y="239"/>
      <point x="782" y="260" type="qcurve" smooth="yes"/>
      <point x="710" y="289"/>
      <point x="645" y="373"/>
      <point x="645" y="436" type="qcurve" smooth="yes"/>
      <point x="645" y="477"/>
      <point x="673" y="545"/>
      <point x="724" y="594"/>
      <point x="795" y="621"/>
      <point x="838" y="621" type="qcurve" smooth="yes"/>
      <point x="907" y="621"/>
      <point x="1016" y="575"/>
      <point x="1093" y="494"/>
      <point x="1133" y="383"/>
      <point x="1133" y="317" type="qcurve" smooth="yes"/>
      <point x="1133" y="261"/>
      <point x="1112" y="137"/>
      <point x="1063" y="16"/>
      <point x="984" y="-95"/>
      <point x="868" y="-179"/>
      <point x="712" y="-229"/>
      <point x="612" y="-229" type="qcurve" smooth="yes"/>
      <point x="458" y="-229"/>
      <point x="243" y="-160"/>
      <point x="109" y="-43"/>
      <point x="49" y="113"/>
      <point x="49" y="201" type="qcurve" smooth="yes"/>
      <point x="49" y="283"/>
      <point x="99" y="418"/>
      <point x="181" y="530"/>
      <point x="285" y="624"/>
      <point x="395" y="707"/>
      <point x="499" y="784"/>
      <point x="581" y="864"/>
      <point x="631" y="949"/>
      <point x="631" y="999" type="qcurve" smooth="yes"/>
      <point x="631" y="1047"/>
      <point x="591" y="1106"/>
      <point x="542" y="1143"/>
      <point x="502" y="1166"/>
      <point x="502" y="1178" type="qcurve" smooth="yes"/>
      <point x="502" y="1183"/>
      <point x="510" y="1192"/>
    </contour>
  </outline>
</glyph>
<glyph name="Oslash" format="2">
  <advance width="1530"/>
  <unicode hex="00D8"/>
  <outline>
    <contour>
      <point x="1456" y="1800" type="qcurve" smooth="yes"/>
      <point x="1473" y="1800"/>
      <point x="1473" y="1780" type="qcurve" smooth="yes"/>
      <point x="1473" y="1764"/>
      <point x="1427" y="1678"/>
      <point x="1358" y="1567"/>
      <point x="1277" y="1447"/>
      <point x="1243" y="1397" type="qcurve"/>
      <point x="1373" y="1297"/>
      <point x="1518" y="994"/>
      <point x="1518" y="805" type="qcurve" smooth="yes"/>
      <point x="1518" y="711"/>
      <point x="1478" y="525"/>
      <point x="1398" y="357"/>
      <point x="1275" y="213"/>
      <point x="1110" y="107"/>
      <point x="901" y="47"/>
      <point x="774" y="47" type="qcurve" smooth="yes"/>
      <point x="644" y="47"/>
      <point x="429" y="101"/>
      <point x="342" y="152" type="qcurve"/>
      <point x="308" y="104"/>
      <point x="247" y="17"/>
      <point x="221" y="-18" type="qcurve" smooth="yes"/>
      <point x="187" y="-63"/>
      <point x="143" y="-121"/>
      <point x="123" y="-121" type="qcurve" smooth="yes"/>
      <point x="114" y="-121"/>
      <point x="100" y="-110"/>
      <point x="100" y="-96" type="qcurve" smooth="yes"/>
      <point x="100" y="-71"/>
      <point x="162" y="32"/>
      <point x="213" y="104" type="qcurve" smooth="yes"/>
      <point x="279" y="197" type="line"/>
      <point x="144" y="299"/>
      <point x="10" y="618"/>
      <point x="10" y="817" type="qcurve" smooth="yes"/>
      <point x="10" y="980"/>
      <point x="116" y="1253"/>
      <point x="307" y="1451"/>
      <point x="572" y="1561"/>
      <point x="731" y="1561" type="qcurve" smooth="yes"/>
      <point x="859" y="1561"/>
      <point x="1083" y="1500"/>
      <point x="1176" y="1444" type="qcurve"/>
      <point x="1309" y="1630" type="line" smooth="yes"/>
      <point x="1363" y="1706"/>
      <point x="1433" y="1800"/>
    </contour>
    <contour>
      <point x="690" y="1509" type="qcurve" smooth="yes"/>
      <point x="592" y="1509"/>
      <point x="435" y="1421"/>
      <point x="324" y="1258"/>
      <point x="264" y="1027"/>
      <point x="264" y="883" type="qcurve" smooth="yes"/>
      <point x="264" y="818"/>
      <point x="278" y="680"/>
      <point x="307" y="541"/>
      <point x="354" y="408"/>
      <point x="387" y="350" type="qcurve"/>
      <point x="475" y="475" type="line" smooth="yes"/>
      <point x="533" y="559"/>
      <point x="678" y="761"/>
      <point x="834" y="976"/>
      <point x="996" y="1196"/>
      <point x="1071" y="1300" type="qcurve"/>
      <point x="1040" y="1347"/>
      <point x="964" y="1424"/>
      <point x="869" y="1479"/>
      <point x="757" y="1509"/>
    </contour>
    <contour>
      <point x="1225" y="662" type="qcurve" smooth="yes"/>
      <point x="1225" y="728"/>
      <point x="1214" y="871"/>
      <point x="1189" y="1015"/>
      <point x="1148" y="1155"/>
      <point x="1118" y="1219" type="qcurve"/>
      <point x="1070" y="1152"/>
      <point x="954" y="991"/>
      <point x="828" y="819"/>
      <point x="700" y="644"/>
      <point x="580" y="480"/>
      <point x="474" y="336"/>
      <point x="434" y="281" type="qcurve"/>
      <point x="495" y="201"/>
      <point x="673" y="102"/>
      <point x="795" y="102" type="qcurve" smooth="yes"/>
      <point x="915" y="102"/>
      <point x="1079" y="199"/>
      <point x="1180" y="357"/>
      <point x="1225" y="558"/>
    </contour>
  </outline>
</glyph>
<glyph name="ae" format="2">
  <advance width="1434"/>
  <unicode hex="00E6"/>
  <outline>
    <contour>
      <point x="315" y="1057" type="qcurve" smooth="yes"/>
      <point x="376" y="1057"/>
      <point x="469" y="1008"/>
      <point x="536" y="928"/>
      <point x="579" y="826"/>
      <point x="590" y="772" type="qcurve"/>
      <point x="631" y="892"/>
      <point x="697" y="987" type="qcurve" smooth="yes"/>
      <point x="725" y="1027"/>
      <point x="797" y="1104"/>
      <point x="886" y="1165"/>
      <point x="992" y="1202"/>
      <point x="1055" y="1202" type="qcurve" smooth="yes"/>
      <point x="1114" y="1202"/>
      <point x="1220" y="1166"/>
      <point x="1301" y="1094"/>
      <point x="1348" y="988"/>
      <point x="1348" y="918" type="qcurve" smooth="yes"/>
      <point x="1348" y="801"/>
      <point x="1263" y="634"/>
      <point x="1121" y="527"/>
      <point x="933" y="477"/>
      <point x="831" y="477" type="qcurve" smooth="yes"/>
      <point x="780" y="477"/>
      <point x="693" y="487"/>
      <point x="664" y="492" type="qcurve"/>
      <point x="676" y="388"/>
      <point x="751" y="216"/>
      <point x="864" y="93"/>
      <point x="1006" y="25"/>
      <point x="1085" y="25" type="qcurve" smooth="yes"/>
      <point x="1149" y="25"/>
      <point x="1242" y="70"/>
      <point x="1303" y="145"/>
      <point x="1333" y="242"/>
      <point x="1333" y="295" type="qcurve" smooth="yes"/>
      <point x="1333" y="319"/>
      <point x="1327" y="356"/>
      <point x="1319" y="385"/>
      <point x="1313" y="408"/>
      <point x="1313" y="418" type="qcurve" smooth="yes"/>
      <point x="1313" y="427"/>
      <point x="1323" y="434"/>
      <point x="1329" y="434" type="qcurve" smooth="yes"/>
      <point x="1338" y="434"/>
      <point x="1364" y="407"/>
      <point x="1387" y="355"/>
      <point x="1403" y="281"/>
      <point x="1403" y="233" type="qcurve" smooth="yes"/>
      <point x="1403" y="192"/>
      <point x="1385" y="99"/>
      <point x="1347" y="8"/>
      <point x="1285" y="-77"/>
      <point x="1198" y="-141"/>
      <point x="1082" y="-180"/>
      <point x="1008" y="-180" type="qcurve" smooth="yes"/>
      <point x="923" y="-180"/>
      <point x="791" y="-135"/>
      <point x="693" y="-67"/>
      <point x="624" y="15"/>
      <point x="580" y="90"/>
      <point x="558" y="147"/>
      <point x="555" y="156" type="qcurve"/>
      <point x="547" y="95"/>
      <point x="508" y="-19"/>
      <point x="442" y="-107"/>
      <point x="345" y="-160"/>
      <point x="281" y="-160" type="qcurve" smooth="yes"/>
      <point x="234" y="-160"/>
      <point x="144" y="-122"/>
      <point x="74" y="-45"/>
      <point x="31" y="68"/>
      <point x="31" y="143" type="qcurve" smooth="yes"/>
      <point x="31" y="222"/>
      <point x="75" y="347"/>
      <point x="146" y="444"/>
      <point x="234" y="514"/>
      <point x="323" y="563"/>
      <point x="403" y="593"/>
      <point x="430" y="602" type="qcurve" smooth="yes"/>
      <point x="458" y="611"/>
      <point x="479" y="645"/>
      <point x="479" y="680" type="qcurve" smooth="yes"/>
      <point x="479" y="726"/>
      <point x="467" y="843"/>
      <point x="430" y="947"/>
      <point x="362" y="1018"/>
      <point x="307" y="1018" type="qcurve" smooth="yes"/>
      <point x="278" y="1018"/>
      <point x="237" y="999"/>
      <point x="210" y="969"/>
      <point x="197" y="932"/>
      <point x="197" y="913" type="qcurve" smooth="yes"/>
      <point x="197" y="878"/>
      <point x="226" y="834"/>
      <point x="262" y="796"/>
      <point x="291" y="753"/>
      <point x="291" y="719" type="qcurve" smooth="yes"/>
      <point x="291" y="676"/>
      <point x="235" y="623"/>
      <point x="190" y="623" type="qcurve" smooth="yes"/>
      <point x="141" y="623"/>
      <point x="74" y="698"/>
      <point x="74" y="772" type="qcurve" smooth="yes"/>
      <point x="74" y="839"/>
      <point x="113" y="944"/>
      <point x="179" y="1018"/>
      <point x="267" y="1057"/>
    </contour>
    <contour>
      <point x="659" y="557" type="line"/>
      <point x="675" y="555"/>
      <point x="717" y="551"/>
      <point x="743" y="551" type="qcurve" smooth="yes"/>
      <point x="865" y="551"/>
      <point x="1026" y="616"/>
      <point x="1122" y="716"/>
      <point x="1161" y="835"/>
      <point x="1161" y="889" type="qcurve" smooth="yes"/>
      <point x="1161" y="902"/>
      <point x="1158" y="943"/>
      <point x="1145" y="990"/>
      <point x="1121" y="1037"/>
      <point x="1079" y="1076"/>
      <point x="1017" y="1100"/>
      <point x="973" y="1100" type="qcurve" smooth="yes"/>
      <point x="905" y="1100"/>
      <point x="790" y="1028"/>
      <point x="706" y="893"/>
      <point x="659" y="702"/>
      <point x="659" y="582" type="qcurve" smooth="yes"/>
    </contour>
    <contour>
      <point x="330" y="27" type="qcurve" smooth="yes"/>
      <point x="375" y="27"/>
      <point x="444" y="72"/>
      <point x="491" y="146"/>
      <point x="514" y="240"/>
      <point x="514" y="289" type="qcurve" smooth="yes"/>
      <point x="514" y="329"/>
      <point x="508" y="422"/>
      <point x="493" y="503"/>
      <point x="466" y="557"/>
      <point x="444" y="557" type="qcurve" smooth="yes"/>
      <point x="420" y="557"/>
      <point x="364" y="535"/>
      <point x="308" y="494"/>
      <point x="256" y="435"/>
      <point x="236" y="399" type="qcurve" smooth="yes"/>
      <point x="213" y="357"/>
      <point x="188" y="258"/>
      <point x="188" y="201" type="qcurve" smooth="yes"/>
      <point x="188" y="166"/>
      <point x="207" y="103"/>
      <point x="243" y="55"/>
      <point x="296" y="27"/>
    </contour>
  </outline>
</glyph>
<glyph name="ccedilla" format="2">
  <advance width="897"/>
  <unicode hex="00E7"/>
  <outline>
    <contour>
      <point x="676" y="881" type="qcurve" smooth="yes"/>
      <point x="644" y="881"/>
      <point x="589" y="901"/>
      <point x="549" y="942"/>
      <point x="526" y="1005"/>
      <point x="526" y="1047" type="qcurve" smooth="yes"/>
      <point x="526" y="1077"/>
      <point x="519" y="1133"/>
      <point x="497" y="1177"/>
      <point x="456" y="1204"/>
      <point x="422" y="1204" type="qcurve" smooth="yes"/>
      <point x="381" y="1204"/>
      <point x="301" y="1153"/>
      <point x="237" y="1051"/>
      <point x="197" y="899"/>
      <point x="197" y="799" type="qcurve" smooth="yes"/>
      <point x="197" y="677"/>
      <point x="246" y="486"/>
      <point x="339" y="353"/>
      <point x="473" y="283"/>
      <point x="557" y="283" type="qcurve" smooth="yes"/>
      <point x="612" y="283"/>
      <point x="699" y="321"/>
      <point x="757" y="385"/>
      <point x="788" y="472"/>
      <point x="788" y="520" type="qcurve" smooth="yes"/>
      <point x="788" y="571"/>
      <point x="763" y="641"/>
      <point x="734" y="690"/>
      <point x="709" y="723"/>
      <point x="709" y="735" type="qcurve" smooth="yes"/>
      <point x="709" y="750"/>
      <point x="725" y="750" type="qcurve" smooth="yes"/>
      <point x="740" y="750"/>
      <point x="787" y="718"/>
      <point x="832" y="657"/>
      <point x="864" y="569"/>
      <point x="864" y="514" type="qcurve" smooth="yes"/>
      <point x="864" y="429"/>
      <point x="811" y="295"/>
      <point x="716" y="201"/>
      <point x="586" y="147"/>
      <point x="508" y="141" type="qcurve"/>
      <point x="502" y="112"/>
      <point x="492" y="55"/>
      <point x="492" y="41" type="qcurve" smooth="yes"/>
      <point x="492" y="38"/>
      <point x="510" y="33"/>
      <point x="540" y="24"/>
      <point x="580" y="10"/>
      <point x="602" y="-2" type="qcurve" smooth="yes"/>
      <point x="661" y="-31"/>
      <point x="729" y="-135"/>
      <point x="729" y="-213" type="qcurve" smooth="yes"/>
      <point x="729" y="-252"/>
      <point x="701" y="-338"/>
      <point x="641" y="-410"/>
      <point x="547" y="-457"/>
      <point x="481" y="-457" type="qcurve" smooth="yes"/>
      <point x="420" y="-457"/>
      <point x="335" y="-412"/>
      <point x="282" y="-348"/>
      <point x="258" y="-278"/>
      <point x="258" y="-254" type="qcurve" smooth="yes"/>
      <point x="258" y="-246"/>
      <point x="262" y="-225"/>
      <point x="270" y="-225" type="qcurve" smooth="yes"/>
      <point x="279" y="-225"/>
      <point x="302" y="-266"/>
      <point x="340" y="-315"/>
      <point x="398" y="-356"/>
      <point x="442" y="-356" type="qcurve" smooth="yes"/>
      <point x="498" y="-356"/>
      <point x="559" y="-291"/>
      <point x="559" y="-240" type="qcurve" smooth="yes"/>
      <point x="559" y="-202"/>
      <point x="536" y="-150"/>
      <point x="500" y="-116"/>
      <point x="460" y="-97"/>
      <point x="424" y="-85"/>
      <point x="401" y="-78"/>
      <point x="401" y="-72" type="qcurve" smooth="yes"/>
      <point x="401" y="-66"/>
      <point x="414" y="-22"/>
      <point x="432" y="36"/>
      <point x="451" y="98"/>
      <point x="457" y="123" type="qcurve" smooth="yes"/>
      <point x="459" y="128"/>
      <point x="461" y="136"/>
      <point x="461" y="141" type="qcurve"/>
      <point x="366" y="143"/>
      <point x="208" y="219"/>
      <point x="94" y="357"/>
      <point x="31" y="554"/>
      <point x="31" y="678" type="qcurve" smooth="yes"/>
      <point x="31" y="738"/>
      <point x="53" y="856"/>
      <point x="91" y="963"/>
      <point x="141" y="1055"/>
      <point x="170" y="1090" type="qcurve" smooth="yes"/>
      <point x="213" y="1142"/>
      <point x="303" y="1213"/>
      <point x="396" y="1256"/>
      <point x="495" y="1274"/>
      <point x="547" y="1274" type="qcurve" smooth="yes"/>
      <point x="604" y="1274"/>
      <point x="704" y="1242"/>
      <point x="777" y="1184"/>
      <point x="819" y="1103"/>
      <point x="819" y="1053" type="qcurve" smooth="yes"/>
      <point x="819" y="1005"/>
      <point x="793" y="940"/>
      <point x="751" y="899"/>
      <point x="700" y="881"/>
    </contour>
  </outline>
</glyph>
<glyph name="eth" format="2">
  <advance width="975"/>
  <unicode hex="00F0"/>
  <outline>
    <contour>
      <point x="662" y="1620" type="qcurve" smooth="yes"/>
      <point x="670" y="1620"/>
      <point x="670" y="1610" type="qcurve" smooth="yes"/>
      <point x="670" y="1598"/>
      <point x="643" y="1543"/>
      <point x="603" y="1476"/>
      <point x="557" y="1404"/>
      <point x="537" y="1374" type="qcurve"/>
      <point x="644" y="1318"/>
      <point x="798" y="1121"/>
      <point x="896" y="861"/>
      <point x="942" y="552"/>
      <point x="942" y="385" type="qcurve" smooth="yes"/>
      <point x="942" y="312"/>
      <point x="925" y="166"/>
      <point x="888" y="34"/>
      <point x="829" y="-80"/>
      <point x="745" y="-163"/>
      <point x="634" y="-211"/>
      <point x="563" y="-211" type="qcurve" smooth="yes"/>
      <point x="452" y="-211"/>
      <point x="281" y="-134"/>
      <point x="163" y="-1"/>
      <point x="102" y="177"/>
      <point x="102" y="279" type="qcurve" smooth="yes"/>
      <point x="102" y="372"/>
      <point x="160" y="530"/>
      <point x="261" y="645"/>
      <point x="399" y="709"/>
      <point x="479" y="709" type="qcurve" smooth="yes"/>
      <point x="524" y="709"/>
      <point x="599" y="692"/>
      <point x="657" y="668"/>
      <point x="698" y="645"/>
      <point x="707" y="639" type="qcurve"/>
      <point x="708" y="653"/>
      <point x="710" y="667" type="qcurve" smooth="yes"/>
      <point x="711" y="679"/>
      <point x="713" y="707"/>
      <point x="713" y="721" type="qcurve" smooth="yes"/>
      <point x="713" y="762"/>
      <point x="705" y="860"/>
      <point x="684" y="965"/>
      <point x="649" y="1072"/>
      <point x="597" y="1170"/>
      <point x="525" y="1256"/>
      <point x="477" y="1288" type="qcurve"/>
      <point x="360" y="1106" type="line" smooth="yes"/>
      <point x="331" y="1061"/>
      <point x="299" y="1010"/>
      <point x="287" y="1010" type="qcurve" smooth="yes"/>
      <point x="282" y="1010"/>
      <point x="274" y="1016"/>
      <point x="274" y="1024" type="qcurve" smooth="yes"/>
      <point x="274" y="1037"/>
      <point x="303" y="1094"/>
      <point x="351" y="1171"/>
      <point x="411" y="1263"/>
      <point x="442" y="1311" type="qcurve"/>
      <point x="407" y="1329"/>
      <point x="322" y="1352"/>
      <point x="272" y="1352" type="qcurve" smooth="yes"/>
      <point x="195" y="1352"/>
      <point x="75" y="1303"/>
      <point x="29" y="1272" type="qcurve" smooth="yes"/>
      <point x="-6" y="1249"/>
      <point x="-61" y="1201"/>
      <point x="-104" y="1163"/>
      <point x="-135" y="1139"/>
      <point x="-145" y="1139" type="qcurve" smooth="yes"/>
      <point x="-155" y="1139"/>
      <point x="-164" y="1149"/>
      <point x="-164" y="1157" type="qcurve" smooth="yes"/>
      <point x="-164" y="1173"/>
      <point x="-130" y="1227"/>
      <point x="-68" y="1289"/>
      <point x="17" y="1352"/>
      <point x="118" y="1404"/>
      <point x="231" y="1436"/>
      <point x="291" y="1436" type="qcurve" smooth="yes"/>
      <point x="351" y="1436"/>
      <point x="446" y="1414"/>
      <point x="496" y="1393" type="qcurve"/>
      <point x="530" y="1445"/>
      <point x="589" y="1534"/>
      <point x="610" y="1565" type="qcurve" smooth="yes"/>
      <point x="629" y="1591"/>
      <point x="652" y="1620"/>
    </contour>
    <contour>
      <point x="498" y="649" type="qcurve" smooth="yes"/>
      <point x="450" y="649"/>
      <point x="379" y="600"/>
      <point x="332" y="519"/>
      <point x="309" y="414"/>
      <point x="309" y="358" type="qcurve" smooth="yes"/>
      <point x="309" y="262"/>
      <point x="353" y="89"/>
      <point x="429" y="-42"/>
      <point x="534" y="-119"/>
      <point x="596" y="-119" type="qcurve" smooth="yes"/>
      <point x="646" y="-119"/>
      <point x="716" y="-75"/>
      <point x="761" y="-2"/>
      <point x="782" y="94"/>
      <point x="782" y="145" type="qcurve" smooth="yes"/>
      <point x="782" y="202"/>
      <point x="770" y="322"/>
      <point x="743" y="434"/>
      <point x="699" y="533"/>
      <point x="636" y="606"/>
      <point x="552" y="649"/>
    </contour>
  </outline>
</glyph>
<glyph name="oslash" format="2">
  <advance width="813"/>
  <unicode hex="00F8"/>
  <outline>
    <contour>
      <point x="508" y="1282" type="qcurve" smooth="yes"/>
      <point x="520" y="1282"/>
      <point x="530" y="1263"/>
      <point x="530" y="1247" type="qcurve" smooth="yes"/>
      <point x="530" y="1226"/>
      <point x="514" y="1143"/>
      <point x="502" y="1094" type="qcurve"/>
      <point x="567" y="1082"/>
      <point x="670" y="1020"/>
      <point x="741" y="930"/>
      <point x="778" y="817"/>
      <point x="778" y="754" type="qcurve" smooth="yes"/>
      <point x="778" y="668"/>
      <point x="723" y="522"/>
      <point x="619" y="416"/>
      <point x="469" y="356"/>
      <point x="375" y="356" type="qcurve" smooth="yes"/>
      <point x="358" y="356"/>
      <point x="325" y="358"/>
      <point x="309" y="360" type="qcurve"/>
      <point x="260" y="180" type="line" smooth="yes"/>
      <point x="242" y="111"/>
      <point x="209" y="53"/>
      <point x="184" y="53" type="qcurve" smooth="yes"/>
      <point x="158" y="53"/>
      <point x="158" y="86" type="qcurve" smooth="yes"/>
      <point x="158" y="98"/>
      <point x="169" y="155"/>
      <point x="189" y="233"/>
      <point x="216" y="330"/>
      <point x="231" y="383" type="qcurve"/>
      <point x="186" y="401"/>
      <point x="110" y="460"/>
      <point x="56" y="543"/>
      <point x="25" y="648"/>
      <point x="25" y="711" type="qcurve" smooth="yes"/>
      <point x="25" y="816"/>
      <point x="94" y="964"/>
      <point x="206" y="1059"/>
      <point x="348" y="1102"/>
      <point x="420" y="1102" type="qcurve" smooth="yes"/>
      <point x="432" y="1102" type="line"/>
      <point x="445" y="1148"/>
      <point x="462" y="1215"/>
      <point x="467" y="1229" type="qcurve" smooth="yes"/>
      <point x="476" y="1260"/>
      <point x="497" y="1282"/>
    </contour>
    <contour>
      <point x="569" y="758" type="qcurve" smooth="yes"/>
      <point x="569" y="789"/>
      <point x="562" y="864"/>
      <point x="543" y="937"/>
      <point x="510" y="1003"/>
      <point x="485" y="1024" type="qcurve"/>
      <point x="319" y="406" type="line"/>
      <point x="332" y="401"/>
      <point x="357" y="395"/>
      <point x="371" y="395" type="qcurve" smooth="yes"/>
      <point x="428" y="395"/>
      <point x="505" y="465"/>
      <point x="550" y="572"/>
      <point x="569" y="700"/>
    </contour>
    <contour>
      <point x="401" y="1055" type="qcurve" smooth="yes"/>
      <point x="353" y="1055"/>
      <point x="279" y="1007"/>
      <point x="228" y="917"/>
      <point x="201" y="787"/>
      <point x="201" y="705" type="qcurve" smooth="yes"/>
      <point x="201" y="635"/>
      <point x="228" y="508"/>
      <point x="256" y="463" type="qcurve"/>
      <point x="272" y="517"/>
      <point x="304" y="624"/>
      <point x="334" y="722"/>
      <point x="358" y="806"/>
      <point x="367" y="838" type="qcurve" smooth="yes"/>
      <point x="422" y="1053" type="line"/>
      <point x="417" y="1055"/>
      <point x="406" y="1055"/>
    </contour>
  </outline>
</glyph>
<glyph name="emdash" format="2">
  <advance width="1335"/>
  <unicode hex="2014"/>
  <outline>
    <contour>
      <point x="1141" y="582" type="qcurve" smooth="yes"/>
      <point x="1233" y="582"/>
      <point x="1233" y="539" type="qcurve" smooth="yes"/>
      <point x="1233" y="527"/>
      <point x="1219" y="510"/>
      <point x="1196" y="499"/>
      <point x="1168" y="493"/>
      <point x="1153" y="492" type="qcurve" smooth="yes"/>
      <point x="1128" y="489"/>
      <point x="1026" y="484"/>
      <point x="899" y="478"/>
      <point x="759" y="471"/>
      <point x="696" y="467" type="qcurve" smooth="yes"/>
      <point x="653" y="464"/>
      <point x="552" y="456"/>
      <point x="448" y="449"/>
      <point x="346" y="441"/>
      <point x="255" y="436"/>
      <point x="179" y="432"/>
      <point x="154" y="432" type="qcurve" smooth="yes"/>
      <point x="102" y="432"/>
      <point x="102" y="457" type="qcurve" smooth="yes"/>
      <point x="102" y="472"/>
      <point x="143" y="491"/>
      <point x="221" y="504"/>
      <point x="335" y="516"/>
      <point x="408" y="524" type="qcurve" smooth="yes"/>
      <point x="444" y="528"/>
      <point x="559" y="540"/>
      <point x="696" y="553"/>
      <point x="844" y="566"/>
      <point x="982" y="576"/>
      <point x="1101" y="582"/>
    </contour>
  </outline>
</glyph>
<glyph name="bullet" format="2">
  <advance width="719"/>
  <unicode hex="2022"/>
  <outline>
    <contour>
      <point x="373" y="1090" type="qcurve" smooth="yes"/>
      <point x="424" y="1090"/>
      <point x="512" y="1056"/>
      <point x="578" y="992"/>
      <point x="616" y="900"/>
      <point x="616" y="842" type="qcurve" smooth="yes"/>
      <point x="616" y="779"/>
      <point x="577" y="685"/>
      <point x="505" y="623"/>
      <point x="404" y="592"/>
      <point x="342" y="592" type="qcurve" smooth="yes"/>
      <point x="300" y="592"/>
      <point x="214" y="618"/>
      <point x="145" y="675"/>
      <point x="102" y="765"/>
      <point x="102" y="829" type="qcurve" smooth="yes"/>
      <point x="102" y="904"/>
      <point x="156" y="1005"/>
      <point x="237" y="1065"/>
      <point x="332" y="1090"/>
    </contour>
  </outline>
</glyph>
